<?xml version="1.0" encoding="UTF-8"?>
<svg viewBox="0 0 2044 675" xmlns="http://www.w3.org/2000/svg">
    <g fill="#ff4342">
        <path d="m301.38 102.6c11.59-2.62 24.3 0.17 33.65 7.52 6.17 4.75 10.59 11.45 13.37 18.66 1.39 3.91 1.09 8.13 1.18 12.21-0.059998 4.26 0.16 8.57-0.75 12.76-4.12 13.21-15.55 23.47-28.76 27.15-5.62 0.98001-11.41 1.05-17.08 0.56001-15.47-2.52-28.55-15.12-31.94-30.36-0.59-6.7-0.72998-13.53 0.16-20.22 3.93-13.98 15.87-25.38 30.17-28.28z"/>
        <path d="m232.77 203.77c8.13-7.62 18.82-13.02 30.11-13.19 25.68-1.12 51.4-1 77.1-0.61 6.82 0.19 13.67 0.28999 20.47 0.89 14.09 1.82 26.27 10.96 34.32 22.34 5.94 8.69 8.51 19.35 8.56 29.79 0.58002 31.01 0.30002 62.03 0.31003 93.05-0.17001 10.33 0.029999 20.68-0.62003 31-0.16 5.32-3.03 10.77-7.94 13.14-5.98 3.43-13.89 3.28-19.67-0.50998-2.71-1.72-4.49-4.45-6.32-7.01-0.17999-39.84-0.35001-79.68-0.53-119.52-2.59-0.009995-5.18-0.009995-7.76 0-0.009979 62.29 0.01001 124.58-0.009979 186.87-0.12 37.31 0.25998 74.63-0.52002 111.94-0.23999 5.96-0.22 11.99-1.47 17.84-0.70999 3.4901-3.81 5.67-6.3 7.91-5.62 4.77-13.52 5-20.49 4.19-6.25-0.73004-11.53-4.88-15.12-9.84-1.95-3.65-1.93-7.94-2.25-11.96-0.87003-20.69-0.51001-41.4-0.62003-62.1-0.039978-38.71 0-77.41-0.019989-116.12-2.6-0.01001-5.19-0.01001-7.78-0.01001-0.059998 49.06 0.079987 98.11-0.14002 147.17-0.059998 11.02-0.12 22.03-0.50998 33.04 0.64999 11.08-10.13 19.96-20.65 20.23-9.09 1.58-18.4-3.53-22.98-11.3-2.37-3.88-1.64-8.61-1.91-12.92-0.75-55.69-0.54001-111.39-0.62-167.08 0-45.95 0.01001-91.91 0-137.86-2.6-0.009995-5.2-0.009995-7.8 0-0.10001 36.28 0.22 72.56-0.26 108.83-0.25 4.6 0.2 9.73-2.77 13.61-6.39 9.2-21.76 9.35-28.51 0.44-2.35-2.4-2.75-5.81-2.81-9-0.89999-22.32-0.87-44.66-0.90999-67 0.14-22.68 0.079987-45.39 1.23-68.05 1.19-10.89 7.43-20.72 15.19-28.2z"/>
        <path d="m1404.6 126.76c6.37-1.06 13.09-0.23 18.84 2.82 7.63 3.83 13.39 10.78 16.74 18.54 3.49 8.18 3.28 17.33 2.5 26.01-2.1 17.88-20.11 31.19-37.66 30.11-15.71-1.54-30.5-14.11-32.37-30.18-0.55994-7.49-1.16-15.43 1.92-22.49 2.0599-5.77 4.71-11.53 9.26-15.78 5.5399-5.44 13.18-8.11 20.77-9.03z"/>
        <path d="m1084.7 133.69c9.13-3.42 19.47-3.77 28.84-1.08 14.18 4.19 23.52 18.85 23.39 33.33 0.1001 34.18 0 68.36 0.050049 102.54 17.12-8.16 35.89-13.17 54.93-13.34 19.71-0.080002 39.72 2.95 57.78 11.14 16.84 7.54 31.52 19.59 42.61 34.31 17.45 20.76 28.7 47.11 29.1 74.42-0.02002 53.34-0.060059 106.68 0.009888 160.02 0.5 7.9-0.90991 16.21-5.71 22.68-9.4 12.76-27.97 18.64-42.66 12.08-8.75-3.95-16.6-10.78-20.01-19.93-3.2201-7.91-2.3601-16.58-2.4701-24.9v-133.93c-0.02002-4.35 0.22009-8.73-0.52991-13.03-1.8-11.77-4.7301-23.7-11.3-33.78-4.36-6.71-10.71-12.23-18.31-14.91-11.46-4.8-24.2-5.24-36.43-4.23-10.92 1.06-22.27 4.75-29.75 13.17-4.8201 5.37-7.37 12.25-10.29 18.73-3.48 8.63-6.72 17.62-6.99 27.01 0.02002 48.99 0 97.98 0.02002 146.98 0.27002 8.9901-0.53003 18.58-5.88 26.16-9.99 14.11-30.85 18.87-46.09 10.82-6.7001-3.6-12.95-8.83-15.82-16.06-3.83-8.46-2.98-17.92-3.0399-26.94-0.01001-117.99 0.009888-235.97-0.01001-353.96-0.15002-6.14 0.16992-12.42 2.4099-18.2 2.9401-8 8.9301-14.69 16.15-19.1z"/>
        <path d="m1690.9 135.97c13.41-6.77 31.91-4.77 41.56 7.47 7.23 6.41 11.43 15.83 11.25 25.5 0.040039 85.35 0 170.71 0.02002 256.06 0.32996 26.47-4.34 53.06-14.05 77.71-7.1599 17.64-18.22 33.93-33.11 45.93-9.6799 7.97-20.95 13.8-32.75 17.92-13.37 4.86-27.63 7.31-41.85 6.99-7.35-0.41998-14.76-0.19-22.04-1.5-13.49-2.12-26.44-7.08-38.31-13.77-5.27-2.9301-10.18-6.4301-15.32-9.55-9-5.04-15.77-13.08-22.43-20.77-22.74-27.3-33.21-62.92-35.01-97.96-1.67-34.02 1.84-69.28 16.85-100.28 13.59-28.19 37.75-51.41 66.91-62.98 9.76-3.76 20-6.19 30.35-7.64 23.88-3.88 48.17 2.4 69.94 12.06 0.030029-34.73-0.079956-69.46 0.050049-104.18 0.10998-12.46 6.8199-25.05 17.94-31.01m-84.48 192.72c-9.2899 2.97-18.5 7.25-25.38 14.33-6.85 6.97-11.75 15.69-14.93 24.89-5.36 15.41-6.86 31.88-6.78 48.1 0.55005 23.84 6.11 48.55 20.96 67.71 3.5901 4.3 7.03 9.22 12.4 11.44 7.1801 3.51 14.68 6.45 22.45 8.39 8.71 0.71002 17.92 0.69 25.84-3.54 5.23-3.02 10.97-5.39 15.33-9.71 7.01-6.76 10.96-16.04 13.25-25.36 4.77-18.96 3.01-38.65 3.34-58-0.30994-15.77 1.1801-31.85-2.7-47.32-3.28-8.86-10.63-15.46-18.24-20.67-6.66-4.94-14.79-7.14-22.72-9.09-7.47-1.57-15.32-3.87-22.82-1.17z"/>
        <path d="m697.51 249.82c8.21-2.18 17.3-1.3 24.8 2.79 6.97 3.73 12.42 9.72 16.97 16.08 4.7 6.72 6.4399 15.41 4.56 23.4-7.76 34.45-17.05 68.53-27.3 102.31-5.53 17.66-10.7 35.46-17.35 52.74-7.99 21.25-16.28 42.42-26.05 62.93-6.48 13.88-14.28 27.16-23.94 39.08-7.74 10.59-18.71 19.16-31.59 22.32-7.72 1.9301-15.84 2.3-23.71 1.23-14.76-3.07-27.95-11.57-38.07-22.59-13.01-13.78-21.92-30.69-30.33-47.5-6.28-16.46-13.22-32.68-18.84-49.4-18.05-51.99-31.58-105.43-43.5-159.12-2.46-10.37 0.16998-21.69 7.05-29.85 6.08-7.17 14.03-14.05 23.88-14.54 8.02-0.080002 16.5-0.41 23.83 3.43 8.73 4.33 14.6 12.88 17.88 21.82 9.66 40.97 19.64 81.89 31.81 122.19 5.54 18.74 11.63 37.32 18.67 55.55 3.35 9.22 8.35 17.71 12.53 26.55 0.81 1.13 1.39 3.53 3.21 3.04 1.85-1.45 2.42-3.85 3.37-5.88 18.28-40.13 31.89-82.19 44.44-124.41 5.99-19.92 11.38-40.01 16.81-60.09 1.71-5.49 1.76-11.34 3.72-16.77 2.81-8.96 9.14-16.9 17.69-20.95 3.18-1.39 6.25-3.04 9.46-4.36z"/>
        <path d="m1400.4 255.63c8.62-1.25 17.96-0.23001 25.4 4.58 10.04 6.88 17.45 18.36 17.18 30.82 0.049927 81.98 0.02002 163.96 0.02002 245.93 0.049927 7.37-1.8601 14.89-6.28 20.87-8.72 11.85-25.14 18.64-39.43 13.7-9.0399-3.19-17.25-9.5601-21.59-18.22-2.51-5.04-3.5601-10.71-3.52-16.31 0-81 0.02002-162-0.01001-243-0.14002-4.88 0.29004-9.9 2.42-14.36 2.29-4.66 4.09-9.65 7.45-13.68 4.4501-5.7 11.25-9.3 18.36-10.33z"/>
        <path d="m825.1 293.1c31.6-25.6 77.85-32.12 115.01-15.29 25.78 11.39 47.11 32.22 59.64 57.42 9.63 19.13 14.33 40.46 15.57 61.76 0.080017 44.68 0 89.37 0.039978 134.05 0.049988 11.42-0.64996 23.22-5.25 33.84-4.2 10.4-15.05 17.46-26.17 17.76-8.47 0.21997-17.33-1.33-24.41-6.23-5.86-3.93-9.79-10.07-12.37-16.51-21.09 11-45.75 14.6-69.16 10.58-9.62-1.76-19.42-3.7-28.14-8.31-13.82-6.74-26.95-15.22-37.74-26.25-11.68-11.68-20.73-25.89-26.84-41.21-7.6-18.99-10.97-39.37-12.85-59.65-3.06-34.93 2.51-71.17 19.49-102.13 8.11-15.42 19.61-28.95 33.18-39.83m61.39 48.57c-11.76 2.59-23.55 8.08-30.61 18.22-5.77 7.75-7.46 17.46-9.57 26.65-4.91 23.05-4.33 47.19 1.28 70.05 0.91998 3.54 0.78998 7.31 2.14 10.75 2.9 7.45 6.89 14.65 12.74 20.21 8.58 8.32 20.64 12.53 32.5 12.54 7.85 0.050018 16.3 0.23999 23.32-3.84 6.68-3.65 12.14-9.33 15.94-15.9 8.3-14.57 10.75-31.75 10.44-48.3-0.049988-19.05-0.16998-38.35-4.43-57-2.09-10.29-8.86-19-16.97-25.37-10.28-7.88-24.17-10.67-36.78-8.01z"/>
    </g>
</svg>