<?xml version="1.0" encoding="windows-1252"?>
<!-- Generator: Adobe Illustrator 19.0.0, SVG Export Plug-In . SVG Version: 6.00 Build 0)  -->
<svg version="1.1" width="40" height="40" xmlns="http://www.w3.org/2000/svg" xmlns:xlink="http://www.w3.org/1999/xlink" x="0px" y="0px" viewBox="0 0 512 512" style="enable-background:new 0 0 512 512;" xml:space="preserve">
<linearGradient id="SVGID_1_" gradientUnits="userSpaceOnUse" x1="366.8636" y1="224.0096" x2="274.1744" y2="21.3114" gradientTransform="matrix(1.0039 0 0 -1.0039 0.1922 516.5607)">
	<stop offset="0" style="stop-color:#FFCF42"/>
	<stop offset="1" style="stop-color:#FFB500"/>
</linearGradient>
<path style="fill:url(#SVGID_1_);" d="M211.272,391.562l32.527,85.092c1.986,5.195,7.146,8.562,12.697,8.199  c143.55-9.399,180.272-74.29,189.033-115.136c4.423-20.622-5.055-42.197-23.267-52.833c-84.876-49.575-183.151,36.922-208,61.005  C210.608,381.431,209.455,386.808,211.272,391.562z"/>
<linearGradient id="SVGID_2_" gradientUnits="userSpaceOnUse" x1="305.184" y1="89.1702" x2="389.744" y2="274.0902" gradientTransform="matrix(1.0039 0 0 -1.0039 0.1922 516.5607)">
	<stop offset="0" style="stop-color:#FFB500;stop-opacity:0"/>
	<stop offset="1" style="stop-color:#FF7000"/>
</linearGradient>
<path style="fill:url(#SVGID_2_);" d="M220.751,387.913c-0.36-0.968-0.134-2.039,0.579-2.73c11.288-10.94,41.56-38.32,78.829-56.268  c44.574-21.468,83.932-22.564,116.981-3.263c7.68,4.487,13.652,11.64,16.819,20.144c2.62,7.036,3.187,14.571,1.638,21.789  c-3.7,17.255-13.71,42.289-40.373,63.55c-31.234,24.908-78.132,39.571-139.394,43.582c-1.073,0.07-2.144-0.643-2.546-1.692  L220.751,387.913z"/>
<linearGradient id="SVGID_3_" gradientUnits="userSpaceOnUse" x1="165.541" y1="116.9106" x2="112.2571" y2="0.4021" gradientTransform="matrix(1.0039 0 0 -1.0039 0.1922 516.5607)">
	<stop offset="0" style="stop-color:#FFCF42"/>
	<stop offset="1" style="stop-color:#FFB500"/>
</linearGradient>
<path style="fill:url(#SVGID_3_);" d="M172.501,404.685c-1.299-3.49-4.809-5.745-8.518-5.415  c-73.177,6.531-110.103,41.5-95.405,80.971c15.115,40.593,62.346,36.211,105.258,20.232c7.846-2.921,15.256-5.269,22.146-7.164  c4.673-1.286,7.168-6.317,5.477-10.858L172.501,404.685z"/>
<linearGradient id="SVGID_4_" gradientUnits="userSpaceOnUse" x1="112.1269" y1="1.2035" x2="187.8169" y2="166.7335" gradientTransform="matrix(1.0039 0 0 -1.0039 0.1922 516.5607)">
	<stop offset="0" style="stop-color:#FFB500;stop-opacity:0"/>
	<stop offset="1" style="stop-color:#FF7000"/>
</linearGradient>
<path style="fill:url(#SVGID_4_);" d="M78.097,476.697c-4.156-11.163-3.218-21.653,2.789-31.178  c5.707-9.049,25.141-30.553,82.577-36.003l27.768,74.573c-7,1.988-14.034,4.293-20.939,6.864  c-22.787,8.485-43.002,12.121-58.458,10.514C94.675,499.685,83.639,491.581,78.097,476.697z"/>
<linearGradient id="SVGID_5_" gradientUnits="userSpaceOnUse" x1="412.3336" y1="161.2879" x2="447.2837" y2="174.3078" gradientTransform="matrix(1.0039 0 0 -1.0039 0.1922 516.5607)">
	<stop offset="0" style="stop-color:#FFB500;stop-opacity:0"/>
	<stop offset="1" style="stop-color:#FF7000"/>
</linearGradient>
<path style="fill:url(#SVGID_5_);" d="M424.568,396.881l-30.166-81.011c7.876,2.27,15.457,5.53,22.732,9.784  c7.684,4.482,13.657,11.646,16.821,20.141c2.622,7.044,3.193,14.58,1.64,21.796C433.796,375.969,430.523,386.17,424.568,396.881z"/>
<linearGradient id="SVGID_6_" gradientUnits="userSpaceOnUse" x1="387.8058" y1="150.662" x2="423.0359" y2="163.782" gradientTransform="matrix(1.0039 0 0 -1.0039 0.1922 516.5607)">
	<stop offset="0" style="stop-color:#FFB500;stop-opacity:0"/>
	<stop offset="1" style="stop-color:#FF7000"/>
</linearGradient>
<path style="fill:url(#SVGID_6_);" d="M405.335,422.143l-41.024-110.172c10.463-0.171,20.499,1.132,30.092,3.9l30.166,81.011  C419.956,405.197,413.728,413.83,405.335,422.143z"/>
<linearGradient id="SVGID_7_" gradientUnits="userSpaceOnUse" x1="363.1955" y1="140.1429" x2="398.4255" y2="153.2629" gradientTransform="matrix(1.0039 0 0 -1.0039 0.1922 516.5607)">
	<stop offset="0" style="stop-color:#FFB500;stop-opacity:0"/>
	<stop offset="1" style="stop-color:#FF7000"/>
</linearGradient>
<path style="fill:url(#SVGID_7_);" d="M383.231,439.694l-46.231-124.153c9.391-2.251,18.5-3.434,27.31-3.571l41.024,110.172  c-3.075,3.056-6.442,6.057-10.117,8.996C391.447,434.142,387.456,436.996,383.231,439.694z"/>
<linearGradient id="SVGID_8_" gradientUnits="userSpaceOnUse" x1="338.5543" y1="129.7263" x2="373.7843" y2="142.8463" gradientTransform="matrix(1.0039 0 0 -1.0039 0.1922 516.5607)">
	<stop offset="0" style="stop-color:#FFB500;stop-opacity:0"/>
	<stop offset="1" style="stop-color:#FF7000"/>
</linearGradient>
<path style="fill:url(#SVGID_8_);" d="M359.32,452.391l-47.856-128.519c8.725-3.601,17.241-6.379,25.538-8.331l46.231,124.153  C375.938,444.374,367.962,448.603,359.32,452.391z"/>
<linearGradient id="SVGID_9_" gradientUnits="userSpaceOnUse" x1="313.5724" y1="120.1913" x2="348.8024" y2="133.3113" gradientTransform="matrix(1.0039 0 0 -1.0039 0.1922 516.5607)">
	<stop offset="0" style="stop-color:#FFB500;stop-opacity:0"/>
	<stop offset="1" style="stop-color:#FF7000"/>
</linearGradient>
<path style="fill:url(#SVGID_9_);" d="M334.102,461.578l-46.886-125.914c4.204-2.351,8.525-4.61,12.947-6.744  c3.801-1.835,7.575-3.525,11.302-5.048l47.856,128.519C351.469,455.829,343.06,458.893,334.102,461.578z"/>
<linearGradient id="SVGID_10_" gradientUnits="userSpaceOnUse" x1="288.882" y1="109.8924" x2="324.112" y2="123.0124" gradientTransform="matrix(1.0039 0 0 -1.0039 0.1922 516.5607)">
	<stop offset="0" style="stop-color:#FFB500;stop-opacity:0"/>
	<stop offset="1" style="stop-color:#FF7000"/>
</linearGradient>
<path style="fill:url(#SVGID_10_);" d="M334.102,461.578c-8.273,2.485-17.015,4.656-26.219,6.498l-43.891-117.87  c7.183-4.977,14.968-9.936,23.225-14.542L334.102,461.578z"/>
<linearGradient id="SVGID_11_" gradientUnits="userSpaceOnUse" x1="264.2608" y1="99.4155" x2="299.4908" y2="112.5355" gradientTransform="matrix(1.0039 0 0 -1.0039 0.1922 516.5607)">
	<stop offset="0" style="stop-color:#FFB500;stop-opacity:0"/>
	<stop offset="1" style="stop-color:#FF7000"/>
</linearGradient>
<path style="fill:url(#SVGID_11_);" d="M307.882,468.076c-8.609,1.729-17.626,3.163-27.035,4.309l-39.204-105.283  c6.476-5.311,14-11.119,22.347-16.897L307.882,468.076z"/>
<linearGradient id="SVGID_12_" gradientUnits="userSpaceOnUse" x1="239.662" y1="88.8522" x2="274.892" y2="101.9722" gradientTransform="matrix(1.0039 0 0 -1.0039 0.1922 516.5607)">
	<stop offset="0" style="stop-color:#FFB500;stop-opacity:0"/>
	<stop offset="1" style="stop-color:#FF7000"/>
</linearGradient>
<path style="fill:url(#SVGID_12_);" d="M280.848,472.385c-8.056,0.995-16.397,1.771-25.019,2.339  c-1.074,0.061-2.139-0.653-2.541-1.696l-32.534-85.115c-0.358-0.964-0.135-2.036,0.58-2.736c4.271-4.137,11.257-10.626,20.31-18.076  L280.848,472.385z"/>
<linearGradient id="SVGID_13_" gradientUnits="userSpaceOnUse" x1="258.9612" y1="381.4059" x2="36.0712" y2="178.706" gradientTransform="matrix(1.0039 0 0 -1.0039 0.1922 516.5607)">
	<stop offset="0" style="stop-color:#FFCF42"/>
	<stop offset="1" style="stop-color:#FFB500"/>
</linearGradient>
<path style="fill:url(#SVGID_13_);" d="M247.633,206.71l-63.855-64.971c-3.898-3.967-4.815-10.06-2.176-14.956  C249.851,0.147,324.137-6.26,364.926,2.761c20.592,4.555,36.272,22.147,38.37,43.132c9.783,97.805-109.752,151.203-141.987,163.784  C256.569,211.527,251.2,210.34,247.633,206.71z"/>
<linearGradient id="SVGID_14_" gradientUnits="userSpaceOnUse" x1="342.4275" y1="381.3215" x2="37.0575" y2="648.4715" gradientTransform="matrix(1.0039 0 0 -1.0039 0.1922 516.5607)">
	<stop offset="0" style="stop-color:#FFB500;stop-opacity:0"/>
	<stop offset="1" style="stop-color:#FF7000"/>
</linearGradient>
<path style="fill:url(#SVGID_14_);" d="M254.892,199.607c0.73,0.73,1.799,0.97,2.723,0.608  c14.643-5.715,52.133-21.857,83.956-48.286c38.062-31.607,55.428-66.943,51.621-105.026c-0.886-8.851-4.908-17.256-11.324-23.673  c-5.309-5.309-11.926-8.959-19.134-10.552c-17.231-3.811-44.16-5.121-74.584,10.284c-35.642,18.044-68.482,54.596-97.608,108.639  c-0.51,0.947-0.308,2.217,0.48,3.019L254.892,199.607z"/>
<linearGradient id="SVGID_15_" gradientUnits="userSpaceOnUse" x1="155.0958" y1="265.649" x2="26.9859" y2="62.949" gradientTransform="matrix(1.0039 0 0 -1.0039 0.1922 516.5607)">
	<stop offset="0" style="stop-color:#FFCF42"/>
	<stop offset="1" style="stop-color:#FFB500"/>
</linearGradient>
<path style="fill:url(#SVGID_15_);" d="M219.573,236.51c2.633,2.633,3.226,6.763,1.381,9.999  c-36.374,63.831-83.533,82.868-113.316,53.085c-30.629-30.629-7-71.758,25.378-104.137c5.92-5.92,11.135-11.683,15.725-17.16  c3.113-3.715,8.726-3.892,12.153-0.465L219.573,236.51z"/>
<linearGradient id="SVGID_16_" gradientUnits="userSpaceOnUse" x1="293.4514" y1="182.5217" x2="-11.9185" y2="360.4017" gradientTransform="matrix(1.0039 0 0 -1.0039 0.1922 516.5607)">
	<stop offset="0" style="stop-color:#FFB500;stop-opacity:0"/>
	<stop offset="1" style="stop-color:#FF7000"/>
</linearGradient>
<path style="fill:url(#SVGID_16_);" d="M114.821,292.412c8.422,8.422,18.353,11.932,29.513,10.431  c10.603-1.427,38.242-10.157,67.085-60.122l-56.269-56.269c-4.719,5.54-9.741,10.977-14.951,16.187  c-17.193,17.193-28.908,34.065-33.875,48.79C100.81,267.775,103.59,281.181,114.821,292.412z"/>
<linearGradient id="SVGID_17_" gradientUnits="userSpaceOnUse" x1="363.9646" y1="477.1174" x2="390.3346" y2="503.4864" gradientTransform="matrix(1.0039 0 0 -1.0039 0.1922 516.5607)">
	<stop offset="0" style="stop-color:#FFB500;stop-opacity:0"/>
	<stop offset="1" style="stop-color:#FF7000"/>
</linearGradient>
<path style="fill:url(#SVGID_17_);" d="M331.505,10.524l61.127,61.127c1.212-8.107,1.4-16.357,0.556-24.742  c-0.879-8.852-4.91-17.263-11.32-23.673c-5.315-5.315-11.931-8.968-19.14-10.557C354.362,10.829,343.723,9.563,331.505,10.524z"/>
<linearGradient id="SVGID_18_" gradientUnits="userSpaceOnUse" x1="344.1001" y1="459.2309" x2="370.6801" y2="485.8169" gradientTransform="matrix(1.0039 0 0 -1.0039 0.1922 516.5607)">
	<stop offset="0" style="stop-color:#FFB500;stop-opacity:0"/>
	<stop offset="1" style="stop-color:#FF7000"/>
</linearGradient>
<path style="fill:url(#SVGID_18_);" d="M300.533,17.508l83.13,83.13c4.507-9.444,7.496-19.113,8.968-28.987l-61.127-61.127  C322.025,11.26,311.585,13.334,300.533,17.508z"/>
<linearGradient id="SVGID_19_" gradientUnits="userSpaceOnUse" x1="324.302" y1="441.229" x2="350.882" y2="467.81" gradientTransform="matrix(1.0039 0 0 -1.0039 0.1922 516.5607)">
	<stop offset="0" style="stop-color:#FFB500;stop-opacity:0"/>
	<stop offset="1" style="stop-color:#FF7000"/>
</linearGradient>
<path style="fill:url(#SVGID_19_);" d="M275.379,30.31l93.678,93.678c5.952-7.604,10.817-15.396,14.606-23.35l-83.13-83.13  c-4.058,1.526-8.187,3.339-12.388,5.458C283.844,25.148,279.59,27.59,275.379,30.31z"/>
<linearGradient id="SVGID_20_" gradientUnits="userSpaceOnUse" x1="304.5753" y1="423.1458" x2="331.1552" y2="449.7257" gradientTransform="matrix(1.0039 0 0 -1.0039 0.1922 516.5607)">
	<stop offset="0" style="stop-color:#FFB500;stop-opacity:0"/>
	<stop offset="1" style="stop-color:#FF7000"/>
</linearGradient>
<path style="fill:url(#SVGID_20_);" d="M253.887,46.775l96.973,96.973c6.903-6.436,12.972-13.026,18.197-19.759L275.379,30.31  C268.09,34.997,260.926,40.49,253.887,46.775z"/>
<linearGradient id="SVGID_21_" gradientUnits="userSpaceOnUse" x1="285.5149" y1="404.3961" x2="312.1049" y2="430.9761" gradientTransform="matrix(1.0039 0 0 -1.0039 0.1922 516.5607)">
	<stop offset="0" style="stop-color:#FFB500;stop-opacity:0"/>
	<stop offset="1" style="stop-color:#FF7000"/>
</linearGradient>
<path style="fill:url(#SVGID_21_);" d="M235.045,65.887l95.007,95.007c3.887-2.846,7.738-5.836,11.518-8.968  c3.25-2.694,6.356-5.422,9.291-8.178l-96.973-96.973C247.495,52.484,241.212,58.858,235.045,65.887z"/>
<linearGradient id="SVGID_22_" gradientUnits="userSpaceOnUse" x1="265.8846" y1="386.2264" x2="292.4645" y2="412.8065" gradientTransform="matrix(1.0039 0 0 -1.0039 0.1922 516.5607)">
	<stop offset="0" style="stop-color:#FFB500;stop-opacity:0"/>
	<stop offset="1" style="stop-color:#FF7000"/>
</linearGradient>
<path style="fill:url(#SVGID_22_);" d="M235.045,65.887c-5.7,6.49-11.311,13.538-16.815,21.142l88.938,88.938  c7.514-4.461,15.262-9.48,22.883-15.073L235.045,65.887z"/>
<linearGradient id="SVGID_23_" gradientUnits="userSpaceOnUse" x1="246.112" y1="368.1889" x2="272.692" y2="394.769" gradientTransform="matrix(1.0039 0 0 -1.0039 0.1922 516.5607)">
	<stop offset="0" style="stop-color:#FFB500;stop-opacity:0"/>
	<stop offset="1" style="stop-color:#FF7000"/>
</linearGradient>
<path style="fill:url(#SVGID_23_);" d="M218.23,87.029c-5.153,7.11-10.207,14.713-15.162,22.793l79.44,79.44  c7.523-3.68,15.934-8.107,24.66-13.295L218.23,87.029z"/>
<linearGradient id="SVGID_24_" gradientUnits="userSpaceOnUse" x1="226.2766" y1="350.2144" x2="252.8565" y2="376.7944" gradientTransform="matrix(1.0039 0 0 -1.0039 0.1922 516.5607)">
	<stop offset="0" style="stop-color:#FFB500;stop-opacity:0"/>
	<stop offset="1" style="stop-color:#FF7000"/>
</linearGradient>
<path style="fill:url(#SVGID_24_);" d="M203.067,109.822c-4.256,6.912-8.43,14.175-12.532,21.779  c-0.503,0.952-0.296,2.217,0.485,3.016l63.874,64.987c0.727,0.727,1.795,0.97,2.729,0.61c5.539-2.163,14.346-5.818,24.885-10.952  L203.067,109.822z"/>
<g>
</g>
<g>
</g>
<g>
</g>
<g>
</g>
<g>
</g>
<g>
</g>
<g>
</g>
<g>
</g>
<g>
</g>
<g>
</g>
<g>
</g>
<g>
</g>
<g>
</g>
<g>
</g>
<g>
</g>
</svg>
