<?xml version="1.0" encoding="UTF-8" standalone="no"?>
<!DOCTYPE svg PUBLIC "-//W3C//DTD SVG 1.1//EN" "http://www.w3.org/Graphics/SVG/1.1/DTD/svg11.dtd">
<svg version="1.1" xmlns="http://www.w3.org/2000/svg" xmlns:xlink="http://www.w3.org/1999/xlink" preserveAspectRatio="xMidYMid meet" viewBox="0 0 640 640" width="50" height="50"><defs><path d="M521.05 169.4L522.6 169.57L524.14 169.8L525.67 170.09L527.18 170.44L528.67 170.84L530.15 171.31L531.61 171.82L533.04 172.39L534.45 173.02L535.84 173.7L537.2 174.43L538.53 175.21L539.84 176.05L541.11 176.93L542.35 177.87L543.55 178.85L544.71 179.88L545.84 180.96L546.93 182.09L547.98 183.26L548.98 184.47L549.94 185.73L550.85 187.04L551.72 188.38L552.53 189.77L553.29 191.2L554 192.67L554.66 194.18L555.26 195.72L555.79 197.29L556.26 198.87L556.66 200.45L556.99 202.03L557.26 203.62L557.46 205.21L557.6 206.79L557.68 208.37L557.69 209.95L557.64 211.52L557.53 213.08L557.36 214.63L557.13 216.17L556.84 217.7L556.49 219.21L556.09 220.7L555.63 222.18L555.11 223.64L554.54 225.07L553.91 226.48L553.23 227.87L552.5 229.23L551.72 230.56L550.88 231.87L550 233.14L549.06 234.37L548.08 235.58L547.05 236.74L545.97 237.87L544.84 238.96L543.67 240.01L542.46 241.01L541.2 241.97L539.9 242.88L538.55 243.74L537.16 244.56L535.73 245.32L534.27 246.03L532.76 246.69L531.21 247.29L529.64 247.82L528.06 248.29L526.48 248.69L524.9 249.02L523.31 249.29L521.73 249.49L520.14 249.63L518.56 249.71L516.98 249.72L515.41 249.67L513.85 249.56L512.3 249.39L510.76 249.16L509.23 248.87L507.72 248.52L506.23 248.12L504.75 247.66L503.3 247.14L501.86 246.57L500.45 245.94L499.06 245.26L497.7 244.53L496.37 243.75L495.07 242.91L493.8 242.03L492.56 241.09L491.36 240.11L490.19 239.08L489.06 238L487.97 236.87L486.93 235.7L485.92 234.49L484.97 233.23L484.05 231.92L483.19 230.58L482.37 229.19L481.61 227.76L480.9 226.29L480.25 224.79L479.65 223.24L479.11 221.67L478.65 220.09L478.24 218.51L477.91 216.93L477.64 215.34L477.44 213.75L477.3 212.17L477.23 210.59L477.21 209.01L477.26 207.44L477.37 205.88L477.54 204.33L477.77 202.79L478.06 201.26L478.41 199.75L478.82 198.26L479.28 196.78L479.79 195.32L480.36 193.89L480.99 192.48L481.67 191.09L482.4 189.73L483.19 188.4L484.02 187.1L484.91 185.83L485.84 184.59L486.82 183.39L487.85 182.22L488.93 181.09L490.06 180L491.23 178.96L492.45 177.95L493.7 176.99L495.01 176.08L496.35 175.22L497.74 174.4L499.17 173.64L500.64 172.93L502.15 172.28L503.69 171.68L505.26 171.14L506.84 170.67L508.42 170.27L510.01 169.94L511.59 169.67L513.18 169.47L514.76 169.33L516.34 169.25L517.92 169.24L519.49 169.29L521.05 169.4Z" id="a1HUtZfKfk"></path><path d="M534.63 105.99L535.88 106.12L537.13 106.32L538.35 106.58L539.57 106.89L540.76 107.25L541.94 107.67L543.09 108.15L544.22 108.68L545.33 109.26L546.41 109.89L547.45 110.57L548.47 111.3L549.46 112.07L550.41 112.9L551.32 113.77L552.19 114.68L553.02 115.65L553.81 116.65L554.55 117.7L555.25 118.79L555.9 119.92L556.49 121.08L557.04 122.29L557.53 123.54L557.95 124.81L558.31 126.08L558.61 127.36L558.84 128.65L559.01 129.93L559.11 131.21L559.15 132.48L559.13 133.75L559.05 135.02L558.91 136.27L558.72 137.51L558.46 138.74L558.15 139.95L557.78 141.15L557.36 142.33L556.89 143.48L556.36 144.61L555.78 145.72L555.15 146.8L554.47 147.84L553.74 148.86L552.97 149.85L552.14 150.8L551.27 151.71L550.35 152.58L549.39 153.41L548.39 154.2L547.34 154.95L546.25 155.64L545.12 156.29L543.95 156.89L542.75 157.43L541.5 157.92L540.23 158.34L538.95 158.71L537.67 159L536.39 159.23L535.11 159.4L533.83 159.5L532.55 159.54L531.28 159.52L530.02 159.44L528.77 159.3L527.52 159.11L526.29 158.85L525.08 158.54L523.89 158.17L522.71 157.75L521.56 157.28L520.42 156.75L519.32 156.17L518.24 155.54L517.19 154.86L516.17 154.13L515.19 153.35L514.24 152.53L513.33 151.66L512.46 150.74L511.62 149.78L510.84 148.78L510.09 147.73L509.4 146.64L508.75 145.51L508.15 144.34L507.61 143.13L507.12 141.89L506.69 140.62L506.33 139.34L506.04 138.06L505.81 136.78L505.64 135.5L505.54 134.22L505.5 132.94L505.52 131.67L505.59 130.41L505.73 129.16L505.93 127.91L506.19 126.69L506.5 125.47L506.86 124.28L507.28 123.1L507.76 121.95L508.29 120.82L508.87 119.71L509.5 118.63L510.18 117.58L510.91 116.57L511.68 115.58L512.51 114.63L513.38 113.72L514.3 112.85L515.26 112.02L516.26 111.23L517.31 110.48L518.4 109.79L519.53 109.14L520.7 108.54L521.91 108L523.15 107.51L524.42 107.08L525.7 106.72L526.98 106.43L528.26 106.2L529.54 106.03L530.82 105.93L532.1 105.89L533.37 105.91L534.63 105.99Z" id="a8hpYyZ728"></path><path d="M516.28 55.58L517.54 55.72L518.78 55.91L520.01 56.17L521.22 56.48L522.42 56.85L523.59 57.27L524.75 57.74L525.88 58.27L526.98 58.85L528.06 59.48L529.11 60.16L530.13 60.89L531.11 61.67L532.06 62.49L532.97 63.36L533.85 64.28L534.68 65.24L535.47 66.24L536.21 67.29L536.91 68.38L537.55 69.51L538.15 70.68L538.69 71.89L539.18 73.14L539.61 74.41L539.97 75.68L540.26 76.96L540.5 78.24L540.66 79.52L540.76 80.8L540.81 82.08L540.79 83.35L540.71 84.61L540.57 85.87L540.37 87.11L540.12 88.34L539.81 89.55L539.44 90.74L539.02 91.92L538.54 93.07L538.02 94.21L537.44 95.31L536.81 96.39L536.13 97.44L535.4 98.46L534.62 99.44L533.8 100.39L532.93 101.3L532.01 102.17L531.05 103.01L530.04 103.79L529 104.54L527.91 105.23L526.78 105.88L525.61 106.48L524.4 107.02L523.15 107.51L521.88 107.94L520.61 108.3L519.33 108.59L518.05 108.82L516.76 108.99L515.48 109.09L514.21 109.13L512.94 109.12L511.67 109.04L510.42 108.9L509.18 108.7L507.95 108.45L506.74 108.13L505.54 107.77L504.37 107.35L503.21 106.87L502.08 106.35L500.97 105.77L499.9 105.14L498.85 104.46L497.83 103.73L496.85 102.95L495.9 102.13L494.98 101.25L494.11 100.34L493.28 99.38L492.49 98.37L491.75 97.33L491.05 96.24L490.4 95.11L489.81 93.94L489.26 92.73L488.78 91.48L488.35 90.21L487.99 88.94L487.69 87.66L487.46 86.38L487.3 85.09L487.19 83.81L487.15 82.54L487.17 81.27L487.25 80L487.39 78.75L487.59 77.51L487.84 76.28L488.15 75.07L488.52 73.87L488.94 72.69L489.41 71.54L489.94 70.41L490.52 69.3L491.15 68.23L491.83 67.18L492.56 66.16L493.34 65.17L494.16 64.22L495.03 63.31L495.95 62.44L496.91 61.61L497.92 60.82L498.96 60.08L500.05 59.38L501.18 58.73L502.35 58.14L503.56 57.59L504.81 57.1L506.08 56.68L507.35 56.32L508.63 56.02L509.91 55.79L511.19 55.62L512.47 55.52L513.75 55.48L515.02 55.5L516.28 55.58Z" id="bVWBSfy95"></path><path d="M472.74 14.35L473.99 14.49L475.23 14.68L476.46 14.94L477.67 15.25L478.87 15.62L480.05 16.04L481.2 16.51L482.33 17.04L483.44 17.62L484.51 18.25L485.56 18.93L486.58 19.66L487.57 20.43L488.51 21.26L489.43 22.13L490.3 23.05L491.13 24.01L491.92 25.01L492.66 26.06L493.36 27.15L494.01 28.28L494.6 29.45L495.15 30.65L495.64 31.9L496.06 33.17L496.42 34.45L496.72 35.72L496.95 37.01L497.11 38.29L497.22 39.57L497.26 40.84L497.24 42.11L497.16 43.38L497.02 44.63L496.82 45.87L496.57 47.1L496.26 48.31L495.89 49.51L495.47 50.69L495 51.84L494.47 52.97L493.89 54.08L493.26 55.15L492.58 56.2L491.85 57.22L491.07 58.21L490.25 59.15L489.38 60.07L488.46 60.94L487.5 61.77L486.49 62.56L485.45 63.3L484.36 64L483.23 64.65L482.06 65.24L480.85 65.79L479.6 66.28L478.33 66.7L477.06 67.06L475.78 67.36L474.5 67.59L473.21 67.75L471.93 67.86L470.66 67.9L469.39 67.88L468.13 67.8L466.87 67.66L465.63 67.46L464.4 67.21L463.19 66.9L461.99 66.53L460.82 66.11L459.66 65.64L458.53 65.11L457.43 64.53L456.35 63.9L455.3 63.22L454.28 62.49L453.3 61.71L452.35 60.89L451.44 60.02L450.56 59.1L449.73 58.14L448.94 57.14L448.2 56.09L447.5 55L446.86 53.87L446.26 52.7L445.72 51.49L445.23 50.25L444.8 48.98L444.44 47.7L444.15 46.42L443.92 45.14L443.75 43.86L443.65 42.58L443.6 41.3L443.62 40.03L443.7 38.77L443.84 37.52L444.04 36.27L444.29 35.05L444.61 33.83L444.97 32.64L445.39 31.46L445.87 30.31L446.39 29.18L446.97 28.07L447.6 26.99L448.28 25.95L449.01 24.93L449.79 23.94L450.62 22.99L451.49 22.08L452.4 21.21L453.36 20.38L454.37 19.59L455.41 18.85L456.5 18.15L457.63 17.5L458.8 16.91L460.01 16.36L461.26 15.87L462.53 15.45L463.8 15.09L465.08 14.79L466.36 14.56L467.65 14.39L468.93 14.29L470.2 14.25L471.47 14.27L472.74 14.35Z" id="c1pvSuiKwR"></path><path d="M420.84 3.76L422.11 4.01L423.34 4.39L424.53 4.87L425.67 5.47L426.75 6.18L427.76 6.99L428.69 7.9L429.54 8.9L430.29 10L430.94 11.18L431.47 12.44L431.87 13.75L432.14 15.07L432.27 16.4L432.26 17.71L432.13 19L431.88 20.27L431.51 21.51L431.02 22.7L430.42 23.84L429.72 24.91L428.91 25.92L428 26.86L426.99 27.7L425.9 28.45L424.72 29.1L423.45 29.63L422.14 30.04L420.82 30.3L419.5 30.43L418.19 30.43L416.89 30.3L415.63 30.04L414.39 29.67L413.2 29.18L412.06 28.58L410.98 27.88L409.97 27.07L409.04 26.16L408.2 25.16L407.45 24.06L406.8 22.88L406.27 21.61L405.86 20.3L405.6 18.98L405.47 17.66L405.47 16.35L405.6 15.05L405.86 13.79L406.23 12.55L406.71 11.36L407.31 10.22L408.02 9.14L408.83 8.13L409.74 7.2L410.74 6.36L411.83 5.61L413.02 4.96L414.28 4.43L415.59 4.02L416.91 3.76L418.23 3.63L419.55 3.63L420.84 3.76Z" id="azAMkae4r"></path><path d="M431.72 316.08L433.28 316.25L434.82 316.48L436.34 316.77L437.85 317.11L439.35 317.52L440.82 317.98L442.28 318.5L443.72 319.07L445.13 319.69L446.52 320.37L447.88 321.11L449.21 321.89L450.51 322.72L451.78 323.61L453.02 324.54L454.22 325.53L455.39 326.56L456.52 327.64L457.6 328.76L458.65 329.93L459.65 331.15L460.61 332.41L461.53 333.71L462.39 335.06L463.2 336.44L463.97 337.87L464.68 339.34L465.33 340.85L465.93 342.4L466.47 343.97L466.93 345.54L467.33 347.12L467.67 348.71L467.93 350.29L468.14 351.88L468.28 353.46L468.35 355.05L468.36 356.62L468.31 358.19L468.2 359.75L468.03 361.3L467.8 362.84L467.51 364.37L467.17 365.88L466.76 367.38L466.3 368.85L465.78 370.31L465.21 371.75L464.59 373.16L463.91 374.54L463.17 375.9L462.39 377.24L461.56 378.54L460.67 379.81L459.74 381.05L458.75 382.25L457.72 383.42L456.64 384.54L455.52 385.63L454.35 386.68L453.13 387.68L451.87 388.64L450.57 389.55L449.22 390.42L447.84 391.23L446.41 392L444.94 392.71L443.43 393.36L441.88 393.96L440.31 394.49L438.74 394.96L437.16 395.36L435.57 395.7L433.99 395.96L432.4 396.17L430.82 396.3L429.23 396.38L427.66 396.39L426.09 396.34L424.53 396.23L422.98 396.06L421.44 395.83L419.91 395.54L418.4 395.19L416.9 394.79L415.43 394.33L413.97 393.81L412.53 393.24L411.12 392.61L409.74 391.93L408.38 391.2L407.04 390.42L405.74 389.58L404.47 388.7L403.23 387.76L402.03 386.78L400.86 385.75L399.74 384.67L398.65 383.55L397.6 382.38L396.6 381.16L395.64 379.9L394.73 378.6L393.86 377.25L393.05 375.86L392.28 374.44L391.57 372.97L390.92 371.46L390.32 369.91L389.79 368.34L389.32 366.77L388.92 365.19L388.58 363.6L388.32 362.01L388.11 360.43L387.97 358.84L387.9 357.26L387.89 355.69L387.94 354.12L388.05 352.56L388.22 351L388.45 349.46L388.74 347.94L389.09 346.43L389.49 344.93L389.95 343.46L390.47 342L391.04 340.56L391.67 339.15L392.34 337.76L393.08 336.4L393.86 335.07L394.7 333.77L395.58 332.5L396.52 331.26L397.5 330.06L398.53 328.89L399.61 327.76L400.73 326.68L401.9 325.63L403.12 324.63L404.38 323.67L405.68 322.75L407.03 321.89L408.42 321.08L409.84 320.31L411.31 319.6L412.82 318.95L414.37 318.35L415.94 317.81L417.51 317.35L419.09 316.95L420.68 316.61L422.26 316.35L423.85 316.14L425.44 316L427.02 315.93L428.59 315.92L430.16 315.97L431.72 316.08Z" id="bkPVaOY9G"></path><path d="M491.17 378.68L492.42 378.81L493.66 379.01L494.89 379.27L496.1 379.58L497.3 379.94L498.47 380.36L499.63 380.84L500.76 381.37L501.86 381.95L502.94 382.58L503.99 383.26L505.01 383.99L505.99 384.76L506.94 385.59L507.85 386.46L508.73 387.37L509.56 388.34L510.35 389.34L511.09 390.39L511.79 391.48L512.43 392.61L513.03 393.77L513.57 394.98L514.06 396.23L514.49 397.5L514.85 398.77L515.14 400.05L515.37 401.34L515.54 402.62L515.64 403.9L515.69 405.17L515.67 406.44L515.59 407.71L515.45 408.96L515.25 410.2L515 411.43L514.69 412.64L514.32 413.84L513.9 415.02L513.42 416.17L512.9 417.3L512.32 418.41L511.69 419.49L511.01 420.53L510.28 421.55L509.5 422.54L508.68 423.49L507.81 424.4L506.89 425.27L505.93 426.1L504.92 426.89L503.88 427.64L502.79 428.33L501.66 428.98L500.49 429.58L499.28 430.12L498.03 430.61L496.77 431.03L495.49 431.4L494.21 431.69L492.93 431.92L491.65 432.09L490.37 432.19L489.09 432.23L487.82 432.21L486.56 432.13L485.3 431.99L484.06 431.8L482.83 431.54L481.62 431.23L480.43 430.86L479.25 430.44L478.1 429.97L476.96 429.44L475.86 428.86L474.78 428.23L473.73 427.55L472.71 426.82L471.73 426.04L470.78 425.22L469.87 424.35L469 423.43L468.16 422.47L467.38 421.46L466.63 420.42L465.94 419.33L465.29 418.2L464.69 417.03L464.15 415.82L463.66 414.57L463.23 413.3L462.87 412.03L462.58 410.75L462.35 409.47L462.18 408.19L462.08 406.91L462.04 405.63L462.06 404.36L462.13 403.1L462.27 401.84L462.47 400.6L462.73 399.37L463.04 398.16L463.4 396.97L463.82 395.79L464.3 394.64L464.83 393.5L465.4 392.4L466.03 391.32L466.71 390.27L467.44 389.25L468.22 388.27L469.05 387.32L469.92 386.41L470.83 385.54L471.79 384.7L472.8 383.92L473.85 383.17L474.93 382.48L476.06 381.83L477.23 381.23L478.44 380.69L479.69 380.2L480.96 379.77L482.23 379.41L483.51 379.12L484.79 378.89L486.08 378.72L487.36 378.62L488.63 378.58L489.9 378.6L491.17 378.68Z" id="g279e1W93K"></path><path d="M509.51 429.08L510.76 429.22L512.01 429.42L513.23 429.67L514.45 429.98L515.64 430.35L516.82 430.77L517.97 431.25L519.1 431.77L520.21 432.35L521.29 432.98L522.34 433.66L523.35 434.39L524.34 435.17L525.29 435.99L526.2 436.87L527.07 437.78L527.9 438.74L528.69 439.75L529.44 440.79L530.13 441.88L530.78 443.01L531.38 444.18L531.92 445.39L532.41 446.64L532.83 447.91L533.19 449.18L533.49 450.46L533.72 451.74L533.89 453.02L533.99 454.3L534.03 455.58L534.01 456.85L533.93 458.11L533.79 459.37L533.6 460.61L533.34 461.84L533.03 463.05L532.66 464.25L532.24 465.42L531.77 466.58L531.24 467.71L530.66 468.81L530.03 469.89L529.35 470.94L528.62 471.96L527.85 472.94L527.02 473.89L526.15 474.8L525.23 475.67L524.27 476.51L523.27 477.29L522.22 478.04L521.13 478.73L520 479.38L518.83 479.98L517.62 480.52L516.38 481.01L515.11 481.44L513.83 481.8L512.55 482.09L511.27 482.32L509.99 482.49L508.71 482.59L507.43 482.63L506.16 482.61L504.9 482.54L503.65 482.4L502.41 482.2L501.18 481.94L499.97 481.63L498.77 481.27L497.59 480.85L496.44 480.37L495.31 479.84L494.2 479.27L493.13 478.64L492.08 477.96L491.06 477.23L490.07 476.45L489.13 475.62L488.21 474.75L487.34 473.84L486.51 472.88L485.72 471.87L484.98 470.82L484.28 469.74L483.63 468.61L483.04 467.44L482.49 466.23L482 464.98L481.58 463.71L481.22 462.44L480.92 461.16L480.69 459.88L480.53 458.59L480.42 457.31L480.38 456.04L480.4 454.77L480.48 453.5L480.62 452.25L480.82 451.01L481.07 449.78L481.38 448.57L481.75 447.37L482.17 446.2L482.64 445.04L483.17 443.91L483.75 442.81L484.38 441.73L485.06 440.68L485.79 439.66L486.57 438.68L487.39 437.73L488.26 436.82L489.18 435.94L490.14 435.11L491.14 434.32L492.19 433.58L493.28 432.88L494.41 432.24L495.58 431.64L496.79 431.1L498.03 430.61L499.3 430.18L500.58 429.82L501.86 429.53L503.14 429.3L504.42 429.13L505.7 429.03L506.98 428.98L508.25 429L509.51 429.08Z" id="aFmXj9xAU"></path><path d="M502.65 488.66L503.91 488.8L505.15 488.99L506.38 489.25L507.59 489.56L508.78 489.93L509.96 490.35L511.11 490.82L512.25 491.35L513.35 491.93L514.43 492.56L515.48 493.24L516.5 493.97L517.48 494.75L518.43 495.57L519.34 496.44L520.21 497.36L521.05 498.32L521.83 499.32L522.58 500.37L523.27 501.46L523.92 502.59L524.52 503.76L525.06 504.97L525.55 506.22L525.98 507.49L526.34 508.76L526.63 510.04L526.86 511.32L527.03 512.6L527.13 513.88L527.17 515.16L527.16 516.43L527.08 517.69L526.94 518.95L526.74 520.19L526.49 521.42L526.17 522.63L525.81 523.82L525.39 525L524.91 526.15L524.39 527.29L523.81 528.39L523.18 529.47L522.5 530.52L521.77 531.54L520.99 532.52L520.16 533.47L519.29 534.38L518.38 535.25L517.42 536.09L516.41 536.87L515.36 537.62L514.28 538.31L513.15 538.96L511.98 539.56L510.77 540.1L509.52 540.59L508.25 541.02L506.98 541.38L505.7 541.67L504.42 541.9L503.13 542.07L501.85 542.17L500.58 542.21L499.31 542.2L498.04 542.12L496.79 541.98L495.55 541.78L494.32 541.53L493.11 541.21L491.91 540.85L490.73 540.43L489.58 539.95L488.45 539.43L487.34 538.85L486.27 538.22L485.22 537.54L484.2 536.81L483.21 536.03L482.26 535.2L481.35 534.33L480.48 533.42L479.65 532.46L478.86 531.45L478.12 530.41L477.42 529.32L476.77 528.19L476.18 527.02L475.63 525.81L475.14 524.56L474.72 523.29L474.36 522.02L474.06 520.74L473.83 519.46L473.66 518.17L473.56 516.89L473.52 515.62L473.54 514.35L473.62 513.08L473.76 511.83L473.95 510.59L474.21 509.36L474.52 508.15L474.89 506.95L475.31 505.77L475.78 504.62L476.31 503.49L476.89 502.38L477.52 501.31L478.2 500.26L478.93 499.24L479.71 498.25L480.53 497.3L481.4 496.39L482.32 495.52L483.28 494.69L484.28 493.9L485.33 493.16L486.42 492.46L487.55 491.81L488.72 491.22L489.93 490.67L491.18 490.18L492.45 489.76L493.72 489.4L495 489.1L496.28 488.87L497.56 488.7L498.84 488.6L500.12 488.56L501.39 488.58L502.65 488.66Z" id="a3JqLGcFWq"></path><path d="M478.28 553.68L479.54 553.94L480.78 554.31L481.97 554.8L483.11 555.4L484.19 556.1L485.2 556.91L486.13 557.82L486.97 558.82L487.72 559.92L488.37 561.1L488.9 562.37L489.31 563.68L489.57 565L489.7 566.32L489.7 567.63L489.57 568.93L489.32 570.19L488.94 571.43L488.46 572.62L487.86 573.76L487.15 574.84L486.34 575.84L485.43 576.78L484.43 577.62L483.34 578.37L482.15 579.02L480.89 579.55L479.58 579.95L478.26 580.22L476.94 580.35L475.62 580.35L474.33 580.22L473.06 579.96L471.83 579.59L470.64 579.1L469.5 578.51L468.42 577.8L467.41 576.99L466.48 576.08L465.63 575.08L464.88 573.98L464.24 572.8L463.7 571.54L463.3 570.23L463.03 568.9L462.9 567.58L462.91 566.27L463.04 564.98L463.29 563.71L463.66 562.47L464.15 561.28L464.75 560.14L465.45 559.06L466.26 558.06L467.17 557.12L468.18 556.28L469.27 555.53L470.45 554.88L471.72 554.35L473.03 553.95L474.35 553.68L475.67 553.55L476.98 553.55L478.28 553.68Z" id="g1GVv0gJG"></path><path d="M372.93 36.22L383.02 38.12L392.96 40.96L402.7 44.76L412.22 49.59L421.5 55.46L430.5 62.43L439.2 70.53L447.57 79.8L455.59 90.29L463.23 102.02L464.83 105.3L466.32 108.64L467.7 112.05L468.97 115.52L470.13 119.04L471.17 122.61L472.1 126.21L472.91 129.85L473.6 133.52L474.18 137.21L474.63 140.91L474.97 144.62L475.18 148.34L475.27 152.04L475.24 155.74L475.08 159.42L474.8 163.08L474.39 166.71L473.85 170.3L473.17 173.86L472.37 177.36L471.44 180.81L470.37 184.19L469.17 187.52L467.83 190.76L466.36 193.93L464.75 197.01L463 200L461.11 202.89L459.08 205.68L456.9 208.35L454.58 210.91L452.12 213.34L449.51 215.64L446.76 217.81L443.85 219.83L440.8 221.71L437.59 223.43L434.24 224.99L430.73 226.38L428.15 227.27L425.54 228.07L422.9 228.79L420.24 229.42L417.56 229.97L414.85 230.43L412.13 230.81L409.39 231.11L406.63 231.32L403.86 231.45L401.07 231.51L398.28 231.48L395.48 231.37L392.66 231.19L389.84 230.93L387.02 230.59L384.2 230.18L381.37 229.69L378.54 229.12L375.72 228.49L372.9 227.78L370.08 227L367.28 226.15L364.48 225.22L361.69 224.23L358.91 223.17L356.15 222.04L353.4 220.84L350.67 219.58L347.96 218.25L345.26 216.86L342.59 215.4L339.95 213.88L337.33 212.29L334.73 210.65L332.17 208.94L329.63 207.17L327.12 205.34L324.65 203.46L322.22 201.51L321.39 200.85L320.54 200.2L319.68 199.59L318.81 198.99L317.92 198.42L317.02 197.88L316.11 197.36L315.19 196.87L314.26 196.4L313.32 195.95L312.36 195.53L311.4 195.14L310.43 194.77L309.45 194.43L308.47 194.11L307.48 193.82L306.48 193.55L305.47 193.31L304.46 193.1L303.45 192.91L302.43 192.74L301.4 192.61L300.37 192.5L299.34 192.41L298.31 192.35L297.28 192.32L296.24 192.32L295.2 192.34L294.16 192.39L293.13 192.46L292.09 192.57L291.05 192.7L290.02 192.85L288.99 193.04L287.96 193.25L286.93 193.48L285.91 193.75L284.89 194.04L283.88 194.36L282.87 194.71L280.85 195.45L279.51 195.96L278.21 196.52L276.94 197.12L275.7 197.76L274.49 198.43L273.32 199.15L272.18 199.91L271.07 200.7L270 201.52L268.96 202.38L267.96 203.28L266.99 204.2L266.05 205.16L265.16 206.15L264.29 207.17L263.46 208.21L262.67 209.29L261.91 210.39L261.19 211.51L260.5 212.66L259.85 213.84L259.24 215.03L258.66 216.25L258.12 217.49L257.62 218.75L257.15 220.02L256.72 221.31L256.33 222.62L255.98 223.95L255.66 225.29L255.38 226.64L255.14 228.01L254.94 229.39L254.78 230.78L254.66 232.17L254.57 233.58L254.53 234.99L254.52 236.41L254.55 237.84L254.63 239.27L254.69 240.58L254.74 241.89L254.75 243.2L254.74 244.51L254.71 245.81L254.65 247.11L254.57 248.41L254.46 249.7L254.33 250.99L254.17 252.28L253.99 253.56L253.78 254.84L253.55 256.11L253.29 257.38L253.01 258.64L252.71 259.9L252.38 261.15L252.03 262.39L251.66 263.62L251.26 264.85L250.84 266.07L250.39 267.28L249.93 268.48L249.44 269.68L248.92 270.86L248.39 272.04L247.83 273.2L247.25 274.36L246.64 275.5L246.02 276.64L245.37 277.76L244.7 278.87L244.01 279.97L243.29 281.06L242.55 282.13L241.8 283.19L241.02 284.24L240.22 285.28L239.4 286.3L238.55 287.31L237.39 288.64L236.2 289.93L234.98 291.19L233.73 292.41L232.45 293.6L231.14 294.75L229.81 295.86L228.45 296.93L227.07 297.97L225.66 298.97L224.23 299.93L222.78 300.85L221.31 301.74L219.81 302.58L218.3 303.39L216.77 304.15L215.22 304.88L213.65 305.56L212.06 306.21L210.46 306.81L208.85 307.37L207.22 307.89L205.57 308.37L203.92 308.81L202.25 309.2L200.57 309.56L198.88 309.87L197.18 310.13L195.48 310.35L193.76 310.53L192.04 310.66L190.32 310.75L188.59 310.8L186.85 310.8L185.11 310.75L183.37 310.66L181.63 310.52L179.88 310.34L178.14 310.11L176.4 309.83L173.03 309.14L169.78 308.31L166.63 307.36L163.6 306.28L160.67 305.07L157.86 303.75L155.15 302.32L152.56 300.77L150.07 299.11L147.69 297.36L145.42 295.5L143.26 293.55L141.21 291.5L139.27 289.37L137.44 287.15L135.71 284.85L134.1 282.48L132.59 280.03L131.19 277.51L129.9 274.93L128.72 272.28L127.64 269.58L126.68 266.83L125.82 264.02L125.07 261.17L124.43 258.28L123.89 255.34L123.47 252.37L123.15 249.38L122.94 246.35L122.83 243.3L122.84 240.23L122.95 237.14L123.16 234.05L123.49 230.94L123.92 227.83L124.46 224.72L125.1 221.61L125.86 218.51L126.71 215.42L129.24 207.86L132.41 200.04L136.19 192L140.57 183.77L145.51 175.4L150.98 166.93L156.96 158.39L163.42 149.83L170.34 141.28L177.69 132.79L185.44 124.4L193.56 116.15L202.03 108.06L210.81 100.2L219.9 92.59L229.24 85.27L238.83 78.3L248.63 71.69L258.61 65.5L268.75 59.77L279.02 54.53L289.4 49.82L299.85 45.69L310.36 42.18L320.89 39.32L331.41 37.15L341.9 35.72L352.34 35.06L362.69 35.21L372.93 36.22Z" id="bBfkNzkeK"></path><path d="M300.44 138.83L302.84 138.96L305.24 139.15L307.63 139.41L310.01 139.72L312.39 140.09L314.75 140.53L317.11 141.02L319.45 141.58L321.77 142.19L324.08 142.87L326.38 143.6L328.65 144.39L330.91 145.24L333.15 146.15L335.37 147.12L337.57 148.14L339.74 149.23L341.89 150.37L344.01 151.57L346.1 152.82L348.17 154.14L350.21 155.51L352.22 156.94L354.19 158.42L356.14 159.96L357.51 161.06L358.9 162.12L360.31 163.16L361.73 164.16L363.17 165.13L364.62 166.07L366.08 166.98L367.55 167.85L369.03 168.69L370.51 169.49L372 170.26L373.5 170.99L375 171.69L376.5 172.36L378.01 172.98L379.51 173.58L381.01 174.13L382.51 174.65L384.01 175.13L385.5 175.57L386.98 175.98L388.46 176.34L389.93 176.67L391.39 176.96L392.84 177.21L394.27 177.42L395.69 177.59L397.1 177.72L398.49 177.8L399.87 177.85L401.22 177.86L402.56 177.82L403.87 177.74L405.17 177.62L406.43 177.46L407.68 177.25L408.9 177L410.09 176.7L411.25 176.36L412.39 175.98L430.73 226.38L428.22 227.25L425.68 228.03L423.1 228.74L420.51 229.37L417.89 229.92L415.24 230.38L412.57 230.77L409.89 231.08L407.18 231.31L404.46 231.47L401.72 231.54L398.96 231.54L396.2 231.46L393.42 231.31L390.63 231.07L387.84 230.77L385.03 230.38L382.23 229.93L379.41 229.39L376.6 228.78L373.79 228.1L370.97 227.35L368.16 226.52L365.36 225.61L362.55 224.64L359.76 223.59L356.97 222.47L354.2 221.28L351.43 220.02L348.68 218.68L345.95 217.28L343.22 215.8L340.52 214.26L337.84 212.65L335.17 210.96L332.53 209.21L329.91 207.39L327.32 205.5L324.76 203.54L322.22 201.52L321.39 200.85L320.54 200.21L319.68 199.6L318.8 199.01L317.92 198.44L317.02 197.9L316.1 197.38L315.18 196.89L314.25 196.42L313.31 195.98L312.36 195.56L311.39 195.17L310.42 194.8L309.45 194.46L308.46 194.14L307.47 193.85L306.47 193.59L305.47 193.35L304.45 193.13L303.44 192.94L302.42 192.78L301.4 192.64L300.37 192.53L299.34 192.45L298.31 192.39L297.27 192.36L296.24 192.35L295.2 192.37L294.16 192.42L293.12 192.5L292.09 192.6L291.05 192.72L290.02 192.88L288.99 193.06L287.96 193.27L286.93 193.51L285.91 193.77L284.89 194.06L283.88 194.38L282.87 194.72L281.48 195.25L280.12 195.82L278.79 196.43L277.48 197.07L276.21 197.75L274.98 198.47L273.77 199.21L272.6 200L271.46 200.81L270.35 201.66L269.28 202.54L268.24 203.46L267.23 204.4L266.26 205.37L265.33 206.38L264.43 207.41L263.57 208.47L262.74 209.56L261.96 210.67L261.2 211.82L260.49 212.98L259.81 214.18L259.18 215.4L258.58 216.64L258.02 217.9L257.5 219.19L257.02 220.5L256.58 221.83L256.19 223.19L255.83 224.56L255.52 225.95L255.24 227.36L255.01 228.8L254.83 230.24L254.68 231.71L254.58 233.19L254.53 234.69L254.51 236.2L254.55 237.73L254.63 239.27L254.71 240.81L254.75 242.34L254.76 243.87L254.74 245.39L254.68 246.91L254.58 248.43L254.45 249.94L254.29 251.45L254.1 252.95L253.87 254.44L253.61 255.93L253.31 257.41L252.98 258.88L252.62 260.34L252.23 261.79L251.81 263.23L251.35 264.66L250.86 266.08L250.34 267.49L249.79 268.88L249.21 270.27L248.6 271.64L247.95 272.99L247.28 274.34L246.58 275.66L245.84 276.97L245.08 278.27L244.29 279.55L243.47 280.81L242.61 282.06L241.73 283.29L240.83 284.5L239.89 285.69L238.92 286.86L237.93 288.01L236.91 289.14L235.86 290.25L234.79 291.34L233.68 292.4L232.56 293.44L231.4 294.46L230.23 295.45L229.04 296.41L227.83 297.33L226.6 298.23L225.35 299.1L224.09 299.94L222.81 300.75L221.51 301.53L220.2 302.28L218.87 303L217.53 303.68L216.18 304.34L214.81 304.97L213.43 305.56L212.03 306.12L210.63 306.66L209.21 307.16L207.79 307.62L206.35 308.06L204.91 308.47L203.45 308.84L201.99 309.18L200.52 309.48L199.04 309.76L197.56 310L196.07 310.21L194.57 310.38L193.07 310.52L191.57 310.63L190.06 310.7L188.55 310.75L187.03 310.75L185.52 310.72L184 310.66L182.48 310.56L180.96 310.43L179.44 310.26L177.92 310.06L176.4 309.83L186.01 257.05L186.33 257.09L186.64 257.12L186.96 257.14L187.28 257.15L187.59 257.16L187.91 257.15L188.22 257.15L188.53 257.13L188.84 257.1L189.16 257.07L189.47 257.03L189.77 256.99L190.08 256.94L190.39 256.88L190.69 256.81L190.99 256.73L191.29 256.65L191.59 256.56L191.88 256.47L192.18 256.37L192.47 256.26L192.75 256.14L193.04 256.02L193.32 255.89L193.6 255.76L193.88 255.61L194.15 255.46L194.42 255.31L194.69 255.15L194.95 254.98L195.21 254.8L195.46 254.62L195.71 254.43L195.96 254.24L196.2 254.04L196.44 253.84L196.68 253.62L196.91 253.4L197.13 253.18L197.35 252.95L197.54 252.74L197.73 252.53L197.91 252.31L198.09 252.09L198.26 251.87L198.42 251.64L198.59 251.42L198.74 251.18L198.9 250.95L199.04 250.71L199.19 250.47L199.33 250.23L199.46 249.99L199.59 249.74L199.71 249.49L199.83 249.24L199.94 248.99L200.05 248.73L200.15 248.47L200.25 248.21L200.35 247.95L200.43 247.69L200.52 247.42L200.59 247.15L200.67 246.89L200.73 246.62L200.79 246.34L200.85 246.07L200.9 245.8L200.95 245.52L200.99 245.25L201.02 244.97L201.05 244.69L201.08 244.41L201.1 244.13L201.11 243.85L201.12 243.57L201.12 243.29L201.11 243L201.1 242.72L200.94 239.43L200.88 236.16L200.93 232.91L201.08 229.68L201.33 226.48L201.68 223.3L202.13 220.15L202.68 217.03L203.32 213.94L204.06 210.88L204.89 207.86L205.82 204.88L206.84 201.94L207.95 199.03L209.14 196.18L210.43 193.36L211.8 190.6L213.26 187.88L214.8 185.21L216.43 182.6L218.14 180.04L219.93 177.53L221.79 175.09L223.74 172.71L225.76 170.38L227.86 168.13L230.04 165.93L232.28 163.81L234.6 161.76L236.99 159.77L239.45 157.87L241.98 156.03L244.58 154.28L247.24 152.6L249.96 151.01L252.75 149.49L255.61 148.07L258.52 146.73L261.49 145.48L264.53 144.32L266.87 143.51L269.23 142.76L271.59 142.08L273.97 141.47L276.36 140.91L278.75 140.42L281.15 140L283.56 139.63L285.97 139.33L288.38 139.09L290.79 138.92L293.21 138.8L295.62 138.75L298.03 138.76L300.44 138.83Z" id="d2fyrxA2rU"></path><path d="M378.01 395.59L381.43 396.06L384.81 396.71L388.16 397.54L391.47 398.54L394.73 399.7L397.95 401.03L401.11 402.51L404.22 404.14L407.28 405.91L410.27 407.82L413.2 409.86L416.07 412.03L418.87 414.32L421.59 416.72L424.24 419.24L426.81 421.86L429.29 424.58L431.7 427.39L434.01 430.29L436.23 433.27L438.36 436.33L440.39 439.46L442.32 442.66L444.15 445.91L445.87 449.22L447.47 452.58L448.97 455.98L450.35 459.42L451.6 462.9L452.74 466.4L453.75 469.92L454.62 473.45L456.32 487.35L456.91 500.54L456.46 513.02L455 524.82L452.58 535.95L449.25 546.41L445.05 556.22L440.04 565.4L434.25 573.96L427.74 581.91L420.54 589.26L412.71 596.03L404.29 602.23L395.33 607.88L385.88 612.98L375.97 617.55L365.67 621.61L355.01 625.17L344.03 628.23L332.79 630.82L321.34 632.95L309.71 634.62L297.96 635.86L286.13 636.67L274.27 637.08L262.42 637.09L250.64 636.71L238.95 635.96L227.43 634.86L216.1 633.41L205.01 631.63L194.22 629.53L183.76 627.12L173.69 624.43L164.05 621.45L154.89 618.21L146.25 614.72L138.18 610.99L130.73 607.04L123.93 602.87L121.29 601.06L118.72 599.16L116.23 597.2L113.82 595.16L111.49 593.06L109.24 590.89L107.08 588.65L105.02 586.36L103.04 584.01L101.16 581.61L99.38 579.15L97.7 576.65L96.11 574.1L94.64 571.51L93.27 568.88L92.01 566.22L90.87 563.52L89.83 560.79L88.92 558.03L88.13 555.24L87.46 552.43L86.91 549.61L86.49 546.76L86.2 543.9L86.05 541.04L86.03 538.16L86.14 535.28L86.4 532.39L86.8 529.51L87.34 526.63L88.03 523.75L88.88 520.88L89.87 518.03L91.02 515.19L92.33 512.37L93.79 509.57L95.42 506.79L97.22 504.04L99.18 501.31L101.32 498.62L102.47 497.29L103.66 495.99L104.88 494.73L106.13 493.5L107.4 492.31L108.7 491.16L110.03 490.04L111.39 488.96L112.77 487.92L114.17 486.92L115.6 485.95L117.05 485.03L118.52 484.14L120.01 483.29L121.52 482.48L123.05 481.71L124.6 480.98L126.17 480.29L127.75 479.64L129.35 479.03L130.97 478.47L132.6 477.94L134.24 477.46L135.89 477.02L137.56 476.62L139.24 476.26L140.92 475.95L142.62 475.68L144.33 475.45L146.04 475.27L147.76 475.13L149.49 475.04L151.22 474.99L152.95 474.98L154.69 475.02L156.43 475.11L158.18 475.24L159.92 475.42L161.67 475.65L163.41 475.92L164.71 476.15L165.99 476.41L167.27 476.68L168.54 476.99L169.8 477.31L171.06 477.66L172.3 478.03L173.54 478.43L174.77 478.85L175.98 479.3L177.19 479.76L178.39 480.25L179.58 480.76L180.76 481.3L181.92 481.85L183.08 482.43L184.22 483.03L185.35 483.65L186.47 484.29L187.58 484.96L188.67 485.64L189.75 486.35L190.82 487.07L191.87 487.82L192.91 488.58L193.93 489.37L194.94 490.18L195.94 491L196.92 491.85L197.88 492.72L198.83 493.6L199.76 494.5L200.68 495.42L201.58 496.36L202.46 497.32L203.32 498.3L204.17 499.3L205 500.31L205.8 501.34L206.6 502.39L207.46 503.53L208.35 504.64L209.27 505.73L210.21 506.78L211.18 507.81L212.17 508.8L213.19 509.76L214.23 510.68L215.29 511.58L216.37 512.43L217.48 513.26L218.6 514.05L219.74 514.8L220.9 515.51L222.08 516.19L223.27 516.83L224.48 517.43L225.71 517.99L226.95 518.51L228.2 519L229.47 519.44L230.74 519.83L232.03 520.19L233.33 520.5L234.64 520.77L235.95 520.99L237.28 521.17L238.61 521.31L239.95 521.39L241.29 521.43L242.64 521.42L243.99 521.37L245.35 521.26L246.7 521.11L248.06 520.9L249.42 520.65L250.78 520.34L252.14 519.98L253.5 519.57L254.86 519.1L256.88 518.36L257.87 517.98L258.86 517.58L259.82 517.15L260.78 516.7L261.72 516.22L262.64 515.72L263.55 515.2L264.44 514.65L265.32 514.09L266.18 513.5L267.02 512.89L267.85 512.26L268.66 511.61L269.45 510.94L270.22 510.25L270.97 509.55L271.71 508.82L272.42 508.07L273.12 507.31L273.8 506.53L274.45 505.73L275.09 504.92L275.71 504.09L276.3 503.24L276.87 502.38L277.42 501.5L277.95 500.61L278.46 499.71L278.94 498.79L279.4 497.85L279.84 496.91L280.25 495.95L280.64 494.98L281 494L281.34 493L281.65 492L281.94 490.98L282.2 489.95L282.44 488.92L282.65 487.87L283.26 484.82L283.94 481.78L284.69 478.77L285.49 475.79L286.36 472.83L287.29 469.9L288.28 467L289.33 464.14L290.44 461.3L291.6 458.5L292.83 455.74L294.11 453.02L295.44 450.34L296.84 447.7L298.28 445.1L299.78 442.55L301.33 440.04L302.93 437.58L304.59 435.17L306.29 432.82L308.05 430.51L309.85 428.27L311.7 426.08L313.6 423.94L315.55 421.87L317.54 419.86L319.57 417.91L321.65 416.02L323.78 414.21L325.94 412.46L328.15 410.78L330.4 409.17L332.69 407.63L335.02 406.17L337.39 404.79L339.8 403.48L342.24 402.26L344.72 401.11L347.24 400.05L349.79 399.07L353.37 397.88L356.95 396.92L360.51 396.18L364.05 395.65L367.58 395.34L371.08 395.22L374.56 395.31L378.01 395.59Z" id="a49pYltYVn"></path><path d="M367.02 449.92L365.91 450.4L364.8 450.94L363.71 451.53L362.62 452.17L361.54 452.86L360.47 453.6L359.42 454.39L358.37 455.22L357.33 456.09L356.31 457.01L355.3 457.97L354.31 458.97L353.33 460.02L352.36 461.1L351.41 462.22L350.48 463.38L349.57 464.58L348.67 465.81L347.79 467.07L346.94 468.37L346.1 469.7L345.28 471.06L344.49 472.45L343.72 473.87L342.97 475.32L342.25 476.79L341.55 478.29L340.87 479.81L340.23 481.36L339.61 482.93L339.01 484.52L338.45 486.13L337.91 487.76L337.41 489.41L336.93 491.08L336.49 492.76L336.07 494.46L335.69 496.17L335.35 497.9L334.84 500.36L334.28 502.79L333.65 505.2L332.96 507.59L332.21 509.95L331.4 512.28L330.54 514.59L329.61 516.86L328.62 519.11L327.58 521.32L326.48 523.5L325.33 525.66L324.12 527.77L322.85 529.86L321.53 531.91L320.16 533.92L318.74 535.9L317.27 537.84L315.74 539.74L314.16 541.61L312.54 543.43L310.86 545.22L309.14 546.96L307.37 548.66L305.56 550.32L303.7 551.94L301.79 553.51L299.84 555.03L297.84 556.51L295.8 557.94L293.72 559.33L291.6 560.67L289.44 561.95L287.24 563.19L284.99 564.37L282.71 565.51L280.39 566.59L278.03 567.62L275.64 568.59L273.21 569.51L270.23 570.54L267.24 571.46L264.23 572.27L261.22 572.98L258.19 573.59L255.16 574.09L252.13 574.48L249.09 574.78L246.05 574.97L243.02 575.06L239.98 575.05L236.96 574.94L233.94 574.73L230.93 574.43L227.94 574.02L224.96 573.52L222 572.92L219.05 572.23L216.13 571.44L213.23 570.56L210.36 569.58L207.51 568.51L204.69 567.35L201.9 566.09L199.15 564.75L196.43 563.31L193.76 561.79L191.12 560.18L188.52 558.47L185.97 556.69L183.46 554.81L181.01 552.85L178.6 550.8L176.24 548.67L173.95 546.45L171.7 544.15L169.52 541.77L167.4 539.3L165.34 536.76L163.35 534.13L163.17 533.91L163 533.69L162.82 533.47L162.63 533.26L162.44 533.06L162.25 532.86L162.05 532.66L161.85 532.46L161.65 532.27L161.44 532.09L161.23 531.91L161.01 531.73L160.8 531.56L160.58 531.39L160.35 531.23L160.12 531.07L159.89 530.91L159.66 530.76L159.43 530.62L159.19 530.48L158.95 530.34L158.7 530.21L158.45 530.09L158.21 529.97L157.95 529.85L157.7 529.74L157.44 529.63L157.19 529.53L156.92 529.43L156.66 529.34L156.4 529.26L156.13 529.17L155.86 529.1L155.59 529.03L155.32 528.96L155.05 528.9L154.77 528.85L154.49 528.8L154.22 528.75L153.94 528.72L153.62 528.68L153.3 528.65L152.99 528.63L152.67 528.62L152.35 528.62L152.04 528.62L151.73 528.63L151.41 528.65L151.1 528.67L150.79 528.71L150.48 528.75L150.17 528.79L149.86 528.85L149.56 528.91L149.26 528.98L148.95 529.05L148.65 529.13L148.36 529.22L148.06 529.32L147.77 529.42L147.48 529.53L147.19 529.65L146.91 529.78L146.62 529.91L146.34 530.04L146.07 530.19L145.8 530.34L145.53 530.5L145.26 530.66L145 530.83L144.74 531L144.49 531.19L144.24 531.38L143.99 531.57L143.75 531.77L143.51 531.98L143.27 532.19L143.05 532.41L142.82 532.64L142.6 532.87L142.35 533.18L142.11 533.49L141.88 533.78L141.66 534.07L141.46 534.36L141.26 534.64L141.08 534.91L140.91 535.18L140.76 535.45L140.61 535.71L140.47 535.96L140.35 536.22L140.24 536.47L140.13 536.71L140.04 536.96L139.96 537.2L139.89 537.44L139.82 537.67L139.77 537.91L139.72 538.14L139.69 538.38L139.66 538.61L139.64 538.84L139.63 539.07L139.63 539.31L139.64 539.54L139.65 539.77L139.67 540.01L139.7 540.24L139.74 540.48L139.78 540.72L139.83 540.96L139.89 541.2L139.95 541.45L140.02 541.7L140.09 541.95L140.17 542.21L140.26 542.47L140.35 542.74L140.45 543.01L90.05 561.35L89.47 559.7L88.93 558.04L88.44 556.39L88 554.74L87.6 553.09L87.25 551.43L86.94 549.78L86.67 548.14L86.45 546.49L86.27 544.85L86.14 543.21L86.06 541.57L86.01 539.94L86.01 538.31L86.06 536.68L86.15 535.06L86.28 533.44L86.46 531.84L86.68 530.23L86.94 528.63L87.25 527.04L87.6 525.46L88 523.88L88.44 522.32L88.92 520.76L89.44 519.21L90.01 517.66L90.62 516.13L91.28 514.61L91.98 513.1L92.72 511.59L93.5 510.1L94.33 508.62L95.2 507.16L96.11 505.7L97.07 504.26L98.07 502.83L99.11 501.41L100.19 500.01L101.31 498.62L102.47 497.28L103.66 495.98L104.88 494.72L106.12 493.49L107.4 492.3L108.7 491.15L110.03 490.03L111.39 488.95L112.77 487.91L114.17 486.9L115.6 485.94L117.05 485.01L118.52 484.12L120.01 483.27L121.53 482.46L123.06 481.69L124.61 480.96L126.17 480.27L127.76 479.62L129.36 479.02L130.97 478.45L132.6 477.93L134.25 477.44L135.9 477L137.57 476.6L139.25 476.25L140.94 475.93L142.63 475.66L144.34 475.44L146.05 475.26L147.78 475.12L149.5 475.03L151.23 474.98L152.97 474.98L154.71 475.02L156.45 475.11L158.2 475.24L159.94 475.42L161.69 475.65L163.44 475.93L164.73 476.16L166.01 476.41L167.29 476.69L168.56 477L169.82 477.33L171.07 477.68L172.31 478.06L173.55 478.45L174.77 478.88L175.99 479.32L177.2 479.79L178.39 480.28L179.58 480.79L180.76 481.33L181.92 481.88L183.08 482.46L184.22 483.06L185.35 483.68L186.47 484.33L187.57 484.99L188.66 485.67L189.74 486.38L190.81 487.1L191.86 487.85L192.9 488.62L193.93 489.4L194.94 490.21L195.93 491.03L196.91 491.88L197.87 492.74L198.82 493.62L199.75 494.52L200.67 495.44L201.57 496.38L202.45 497.34L203.32 498.31L204.16 499.31L204.99 500.32L205.8 501.35L206.6 502.39L207.5 503.59L208.43 504.75L209.39 505.87L210.38 506.96L211.38 508.01L212.42 509.02L213.47 510L214.55 510.93L215.64 511.83L216.76 512.7L217.9 513.52L219.05 514.3L220.22 515.05L221.41 515.75L222.61 516.42L223.83 517.04L225.06 517.63L226.3 518.17L227.55 518.67L228.82 519.13L230.09 519.55L231.37 519.93L232.66 520.26L233.96 520.55L235.26 520.8L236.57 521L237.88 521.16L239.2 521.28L240.51 521.35L241.83 521.38L243.15 521.36L244.46 521.29L245.78 521.18L247.09 521.03L248.4 520.83L249.71 520.58L251.01 520.28L252.3 519.94L253.59 519.55L254.87 519.11L255.98 518.69L257.07 518.25L258.14 517.79L259.19 517.3L260.23 516.8L261.25 516.27L262.24 515.73L263.22 515.16L264.18 514.57L265.11 513.97L266.03 513.34L266.93 512.69L267.8 512.03L268.66 511.34L269.49 510.64L270.3 509.92L271.09 509.18L271.85 508.43L272.6 507.65L273.32 506.86L274.02 506.06L274.7 505.23L275.35 504.39L275.98 503.54L276.58 502.66L277.17 501.78L277.72 500.87L278.25 499.96L278.76 499.02L279.25 498.08L279.7 497.11L280.13 496.14L280.54 495.15L280.92 494.15L281.27 493.13L281.6 492.1L281.9 491.06L282.18 490.01L282.42 488.95L282.64 487.87L283.28 484.69L283.99 481.54L284.76 478.42L285.6 475.35L286.49 472.31L287.45 469.3L288.47 466.34L289.55 463.42L290.69 460.54L291.88 457.71L293.13 454.92L294.44 452.17L295.8 449.47L297.21 446.83L298.68 444.23L300.2 441.68L301.77 439.18L303.39 436.74L305.06 434.35L306.77 432.02L308.54 429.75L310.35 427.53L312.21 425.38L314.11 423.28L316.05 421.25L318.04 419.28L320.07 417.38L322.13 415.54L324.24 413.77L326.39 412.06L328.57 410.43L330.8 408.87L333.05 407.38L335.35 405.96L337.67 404.62L340.03 403.35L342.43 402.16L344.85 401.05L347.3 400.02L349.79 399.07L368.13 449.48L367.02 449.92Z" id="a41ZlgfQC"></path></defs><g><g><g><use xlink:href="#a1HUtZfKfk" opacity="1" fill="#ef1e1e" fill-opacity="1"></use><g><use xlink:href="#a1HUtZfKfk" opacity="1" fill-opacity="0" stroke="#000000" stroke-width="1" stroke-opacity="0"></use></g></g><g><use xlink:href="#a8hpYyZ728" opacity="1" fill="#ef1e1e" fill-opacity="1"></use><g><use xlink:href="#a8hpYyZ728" opacity="1" fill-opacity="0" stroke="#000000" stroke-width="1" stroke-opacity="0"></use></g></g><g><use xlink:href="#bVWBSfy95" opacity="1" fill="#ef1e1e" fill-opacity="1"></use><g><use xlink:href="#bVWBSfy95" opacity="1" fill-opacity="0" stroke="#000000" stroke-width="1" stroke-opacity="0"></use></g></g><g><use xlink:href="#c1pvSuiKwR" opacity="1" fill="#ef1e1e" fill-opacity="1"></use><g><use xlink:href="#c1pvSuiKwR" opacity="1" fill-opacity="0" stroke="#000000" stroke-width="1" stroke-opacity="0"></use></g></g><g><use xlink:href="#azAMkae4r" opacity="1" fill="#ef1e1e" fill-opacity="1"></use><g><use xlink:href="#azAMkae4r" opacity="1" fill-opacity="0" stroke="#000000" stroke-width="1" stroke-opacity="0"></use></g></g><g><use xlink:href="#bkPVaOY9G" opacity="1" fill="#ef1e1e" fill-opacity="1"></use><g><use xlink:href="#bkPVaOY9G" opacity="1" fill-opacity="0" stroke="#000000" stroke-width="1" stroke-opacity="0"></use></g></g><g><use xlink:href="#g279e1W93K" opacity="1" fill="#ef1e1e" fill-opacity="1"></use><g><use xlink:href="#g279e1W93K" opacity="1" fill-opacity="0" stroke="#000000" stroke-width="1" stroke-opacity="0"></use></g></g><g><use xlink:href="#aFmXj9xAU" opacity="1" fill="#ef1e1e" fill-opacity="1"></use><g><use xlink:href="#aFmXj9xAU" opacity="1" fill-opacity="0" stroke="#000000" stroke-width="1" stroke-opacity="0"></use></g></g><g><use xlink:href="#a3JqLGcFWq" opacity="1" fill="#ef1e1e" fill-opacity="1"></use><g><use xlink:href="#a3JqLGcFWq" opacity="1" fill-opacity="0" stroke="#000000" stroke-width="1" stroke-opacity="0"></use></g></g><g><use xlink:href="#g1GVv0gJG" opacity="1" fill="#ef1e1e" fill-opacity="1"></use><g><use xlink:href="#g1GVv0gJG" opacity="1" fill-opacity="0" stroke="#000000" stroke-width="1" stroke-opacity="0"></use></g></g><g><use xlink:href="#bBfkNzkeK" opacity="1" fill="#ff5050" fill-opacity="1"></use><g><use xlink:href="#bBfkNzkeK" opacity="1" fill-opacity="0" stroke="#000000" stroke-width="1" stroke-opacity="0"></use></g></g><g><use xlink:href="#d2fyrxA2rU" opacity="1" fill="#ef1e1e" fill-opacity="1"></use><g><use xlink:href="#d2fyrxA2rU" opacity="1" fill-opacity="0" stroke="#000000" stroke-width="1" stroke-opacity="0"></use></g></g><g><use xlink:href="#a49pYltYVn" opacity="1" fill="#ff5050" fill-opacity="1"></use><g><use xlink:href="#a49pYltYVn" opacity="1" fill-opacity="0" stroke="#000000" stroke-width="1" stroke-opacity="0"></use></g></g><g><use xlink:href="#a41ZlgfQC" opacity="1" fill="#ef1e1e" fill-opacity="1"></use><g><use xlink:href="#a41ZlgfQC" opacity="1" fill-opacity="0" stroke="#000000" stroke-width="1" stroke-opacity="0"></use></g></g></g></g></svg>
