<?xml version="1.0" encoding="UTF-8" standalone="no"?>
<!DOCTYPE svg PUBLIC "-//W3C//DTD SVG 1.1//EN" "http://www.w3.org/Graphics/SVG/1.1/DTD/svg11.dtd">
<svg version="1.1" xmlns="http://www.w3.org/2000/svg" xmlns:xlink="http://www.w3.org/1999/xlink" preserveAspectRatio="xMidYMid meet" viewBox="0 0 640 640" width="50" height="50"><defs><path d="M521.05 175.4L522.6 175.57L524.14 175.8L525.67 176.09L527.18 176.44L528.67 176.84L530.15 177.31L531.61 177.82L533.04 178.39L534.45 179.02L535.84 179.7L537.2 180.43L538.53 181.21L539.84 182.05L541.11 182.93L542.35 183.87L543.55 184.85L544.71 185.88L545.84 186.96L546.93 188.09L547.98 189.26L548.98 190.47L549.94 191.73L550.85 193.04L551.72 194.38L552.53 195.77L553.29 197.2L554 198.67L554.66 200.18L555.26 201.72L555.79 203.29L556.26 204.87L556.66 206.45L556.99 208.03L557.26 209.62L557.46 211.21L557.6 212.79L557.68 214.37L557.69 215.95L557.64 217.52L557.53 219.08L557.36 220.63L557.13 222.17L556.84 223.7L556.49 225.21L556.09 226.7L555.63 228.18L555.11 229.64L554.54 231.07L553.91 232.48L553.23 233.87L552.5 235.23L551.72 236.56L550.88 237.87L550 239.14L549.06 240.37L548.08 241.58L547.05 242.74L545.97 243.87L544.84 244.96L543.67 246.01L542.46 247.01L541.2 247.97L539.9 248.88L538.55 249.74L537.16 250.56L535.73 251.32L534.27 252.03L532.76 252.69L531.21 253.29L529.64 253.82L528.06 254.29L526.48 254.69L524.9 255.02L523.31 255.29L521.73 255.49L520.14 255.63L518.56 255.71L516.98 255.72L515.41 255.67L513.85 255.56L512.3 255.39L510.76 255.16L509.23 254.87L507.72 254.52L506.23 254.12L504.75 253.66L503.3 253.14L501.86 252.57L500.45 251.94L499.06 251.26L497.7 250.53L496.37 249.75L495.07 248.91L493.8 248.03L492.56 247.09L491.36 246.11L490.19 245.08L489.06 244L487.97 242.87L486.93 241.7L485.92 240.49L484.97 239.23L484.05 237.92L483.19 236.58L482.37 235.19L481.61 233.76L480.9 232.29L480.25 230.79L479.65 229.24L479.11 227.67L478.65 226.09L478.24 224.51L477.91 222.93L477.64 221.34L477.44 219.75L477.3 218.17L477.23 216.59L477.21 215.01L477.26 213.44L477.37 211.88L477.54 210.33L477.77 208.79L478.06 207.26L478.41 205.75L478.82 204.26L479.28 202.78L479.79 201.32L480.36 199.89L480.99 198.48L481.67 197.09L482.4 195.73L483.19 194.4L484.02 193.1L484.91 191.83L485.84 190.59L486.82 189.39L487.85 188.22L488.93 187.09L490.06 186L491.23 184.96L492.45 183.95L493.7 182.99L495.01 182.08L496.35 181.22L497.74 180.4L499.17 179.64L500.64 178.93L502.15 178.28L503.69 177.68L505.26 177.14L506.84 176.67L508.42 176.27L510.01 175.94L511.59 175.67L513.18 175.47L514.76 175.33L516.34 175.25L517.92 175.24L519.49 175.29L521.05 175.4Z" id="diu1DzqqP"></path><path d="M534.63 111.99L535.88 112.12L537.13 112.32L538.35 112.58L539.57 112.89L540.76 113.25L541.94 113.67L543.09 114.15L544.22 114.68L545.33 115.26L546.41 115.89L547.45 116.57L548.47 117.3L549.46 118.07L550.41 118.9L551.32 119.77L552.19 120.68L553.02 121.65L553.81 122.65L554.55 123.7L555.25 124.79L555.9 125.92L556.49 127.08L557.04 128.29L557.53 129.54L557.95 130.81L558.31 132.08L558.61 133.36L558.84 134.65L559.01 135.93L559.11 137.21L559.15 138.48L559.13 139.75L559.05 141.02L558.91 142.27L558.72 143.51L558.46 144.74L558.15 145.95L557.78 147.15L557.36 148.33L556.89 149.48L556.36 150.61L555.78 151.72L555.15 152.8L554.47 153.84L553.74 154.86L552.97 155.85L552.14 156.8L551.27 157.71L550.35 158.58L549.39 159.41L548.39 160.2L547.34 160.95L546.25 161.64L545.12 162.29L543.95 162.89L542.75 163.43L541.5 163.92L540.23 164.34L538.95 164.71L537.67 165L536.39 165.23L535.11 165.4L533.83 165.5L532.55 165.54L531.28 165.52L530.02 165.44L528.77 165.3L527.52 165.11L526.29 164.85L525.08 164.54L523.89 164.17L522.71 163.75L521.56 163.28L520.42 162.75L519.32 162.17L518.24 161.54L517.19 160.86L516.17 160.13L515.19 159.35L514.24 158.53L513.33 157.66L512.46 156.74L511.62 155.78L510.84 154.78L510.09 153.73L509.4 152.64L508.75 151.51L508.15 150.34L507.61 149.13L507.12 147.89L506.69 146.62L506.33 145.34L506.04 144.06L505.81 142.78L505.64 141.5L505.54 140.22L505.5 138.94L505.52 137.67L505.59 136.41L505.73 135.16L505.93 133.91L506.19 132.69L506.5 131.47L506.86 130.28L507.28 129.1L507.76 127.95L508.29 126.82L508.87 125.71L509.5 124.63L510.18 123.58L510.91 122.57L511.68 121.58L512.51 120.63L513.38 119.72L514.3 118.85L515.26 118.02L516.26 117.23L517.31 116.48L518.4 115.79L519.53 115.14L520.7 114.54L521.91 114L523.15 113.51L524.42 113.08L525.7 112.72L526.98 112.43L528.26 112.2L529.54 112.03L530.82 111.93L532.1 111.89L533.37 111.91L534.63 111.99Z" id="c1HprSLdXk"></path><path d="M516.28 61.58L517.54 61.72L518.78 61.91L520.01 62.17L521.22 62.48L522.42 62.85L523.59 63.27L524.75 63.74L525.88 64.27L526.98 64.85L528.06 65.48L529.11 66.16L530.13 66.89L531.11 67.67L532.06 68.49L532.97 69.36L533.85 70.28L534.68 71.24L535.47 72.24L536.21 73.29L536.91 74.38L537.55 75.51L538.15 76.68L538.69 77.89L539.18 79.14L539.61 80.41L539.97 81.68L540.26 82.96L540.5 84.24L540.66 85.52L540.76 86.8L540.81 88.08L540.79 89.35L540.71 90.61L540.57 91.87L540.37 93.11L540.12 94.34L539.81 95.55L539.44 96.74L539.02 97.92L538.54 99.07L538.02 100.21L537.44 101.31L536.81 102.39L536.13 103.44L535.4 104.46L534.62 105.44L533.8 106.39L532.93 107.3L532.01 108.17L531.05 109.01L530.04 109.79L529 110.54L527.91 111.23L526.78 111.88L525.61 112.48L524.4 113.02L523.15 113.51L521.88 113.94L520.61 114.3L519.33 114.59L518.05 114.82L516.76 114.99L515.48 115.09L514.21 115.13L512.94 115.12L511.67 115.04L510.42 114.9L509.18 114.7L507.95 114.45L506.74 114.13L505.54 113.77L504.37 113.35L503.21 112.87L502.08 112.35L500.97 111.77L499.9 111.14L498.85 110.46L497.83 109.73L496.85 108.95L495.9 108.13L494.98 107.25L494.11 106.34L493.28 105.38L492.49 104.37L491.75 103.33L491.05 102.24L490.4 101.11L489.81 99.94L489.26 98.73L488.78 97.48L488.35 96.21L487.99 94.94L487.69 93.66L487.46 92.38L487.3 91.09L487.19 89.81L487.15 88.54L487.17 87.27L487.25 86L487.39 84.75L487.59 83.51L487.84 82.28L488.15 81.07L488.52 79.87L488.94 78.69L489.41 77.54L489.94 76.41L490.52 75.3L491.15 74.23L491.83 73.18L492.56 72.16L493.34 71.17L494.16 70.22L495.03 69.31L495.95 68.44L496.91 67.61L497.92 66.82L498.96 66.08L500.05 65.38L501.18 64.73L502.35 64.14L503.56 63.59L504.81 63.1L506.08 62.68L507.35 62.32L508.63 62.02L509.91 61.79L511.19 61.62L512.47 61.52L513.75 61.48L515.02 61.5L516.28 61.58Z" id="e19MwljV6s"></path><path d="M472.74 20.35L473.99 20.49L475.23 20.68L476.46 20.94L477.67 21.25L478.87 21.62L480.05 22.04L481.2 22.51L482.33 23.04L483.44 23.62L484.51 24.25L485.56 24.93L486.58 25.66L487.57 26.43L488.51 27.26L489.43 28.13L490.3 29.05L491.13 30.01L491.92 31.01L492.66 32.06L493.36 33.15L494.01 34.28L494.6 35.45L495.15 36.65L495.64 37.9L496.06 39.17L496.42 40.45L496.72 41.72L496.95 43.01L497.11 44.29L497.22 45.57L497.26 46.84L497.24 48.11L497.16 49.38L497.02 50.63L496.82 51.87L496.57 53.1L496.26 54.31L495.89 55.51L495.47 56.69L495 57.84L494.47 58.97L493.89 60.08L493.26 61.15L492.58 62.2L491.85 63.22L491.07 64.21L490.25 65.15L489.38 66.07L488.46 66.94L487.5 67.77L486.49 68.56L485.45 69.3L484.36 70L483.23 70.65L482.06 71.24L480.85 71.79L479.6 72.28L478.33 72.7L477.06 73.06L475.78 73.36L474.5 73.59L473.21 73.75L471.93 73.86L470.66 73.9L469.39 73.88L468.13 73.8L466.87 73.66L465.63 73.46L464.4 73.21L463.19 72.9L461.99 72.53L460.82 72.11L459.66 71.64L458.53 71.11L457.43 70.53L456.35 69.9L455.3 69.22L454.28 68.49L453.3 67.71L452.35 66.89L451.44 66.02L450.56 65.1L449.73 64.14L448.94 63.14L448.2 62.09L447.5 61L446.86 59.87L446.26 58.7L445.72 57.49L445.23 56.25L444.8 54.98L444.44 53.7L444.15 52.42L443.92 51.14L443.75 49.86L443.65 48.58L443.6 47.3L443.62 46.03L443.7 44.77L443.84 43.52L444.04 42.27L444.29 41.05L444.61 39.83L444.97 38.64L445.39 37.46L445.87 36.31L446.39 35.18L446.97 34.07L447.6 32.99L448.28 31.95L449.01 30.93L449.79 29.94L450.62 28.99L451.49 28.08L452.4 27.21L453.36 26.38L454.37 25.59L455.41 24.85L456.5 24.15L457.63 23.5L458.8 22.91L460.01 22.36L461.26 21.87L462.53 21.45L463.8 21.09L465.08 20.79L466.36 20.56L467.65 20.39L468.93 20.29L470.2 20.25L471.47 20.27L472.74 20.35Z" id="cyLXk4Oho"></path><path d="M431.72 310.08L433.28 310.25L434.82 310.48L436.34 310.77L437.85 311.11L439.35 311.52L440.82 311.98L442.28 312.5L443.72 313.07L445.13 313.69L446.52 314.37L447.88 315.11L449.21 315.89L450.51 316.72L451.78 317.61L453.02 318.54L454.22 319.53L455.39 320.56L456.52 321.64L457.6 322.76L458.65 323.93L459.65 325.15L460.61 326.41L461.53 327.71L462.39 329.06L463.2 330.44L463.97 331.87L464.68 333.34L465.33 334.85L465.93 336.4L466.47 337.97L466.93 339.54L467.33 341.12L467.67 342.71L467.93 344.29L468.14 345.88L468.28 347.46L468.35 349.05L468.36 350.62L468.31 352.19L468.2 353.75L468.03 355.3L467.8 356.84L467.51 358.37L467.17 359.88L466.76 361.38L466.3 362.85L465.78 364.31L465.21 365.75L464.59 367.16L463.91 368.54L463.17 369.9L462.39 371.24L461.56 372.54L460.67 373.81L459.74 375.05L458.75 376.25L457.72 377.42L456.64 378.54L455.52 379.63L454.35 380.68L453.13 381.68L451.87 382.64L450.57 383.55L449.22 384.42L447.84 385.23L446.41 386L444.94 386.71L443.43 387.36L441.88 387.96L440.31 388.49L438.74 388.96L437.16 389.36L435.57 389.7L433.99 389.96L432.4 390.17L430.82 390.3L429.23 390.38L427.66 390.39L426.09 390.34L424.53 390.23L422.98 390.06L421.44 389.83L419.91 389.54L418.4 389.19L416.9 388.79L415.43 388.33L413.97 387.81L412.53 387.24L411.12 386.61L409.74 385.93L408.38 385.2L407.04 384.42L405.74 383.58L404.47 382.7L403.23 381.76L402.03 380.78L400.86 379.75L399.74 378.67L398.65 377.55L397.6 376.38L396.6 375.16L395.64 373.9L394.73 372.6L393.86 371.25L393.05 369.86L392.28 368.44L391.57 366.97L390.92 365.46L390.32 363.91L389.79 362.34L389.32 360.77L388.92 359.19L388.58 357.6L388.32 356.01L388.11 354.43L387.97 352.84L387.9 351.26L387.89 349.69L387.94 348.12L388.05 346.56L388.22 345L388.45 343.46L388.74 341.94L389.09 340.43L389.49 338.93L389.95 337.46L390.47 336L391.04 334.56L391.67 333.15L392.34 331.76L393.08 330.4L393.86 329.07L394.7 327.77L395.58 326.5L396.52 325.26L397.5 324.06L398.53 322.89L399.61 321.76L400.73 320.68L401.9 319.63L403.12 318.63L404.38 317.67L405.68 316.75L407.03 315.89L408.42 315.08L409.84 314.31L411.31 313.6L412.82 312.95L414.37 312.35L415.94 311.81L417.51 311.35L419.09 310.95L420.68 310.61L422.26 310.35L423.85 310.14L425.44 310L427.02 309.93L428.59 309.92L430.16 309.97L431.72 310.08Z" id="dgLgW6nHk"></path><path d="M491.17 372.68L492.42 372.81L493.66 373.01L494.89 373.27L496.1 373.58L497.3 373.94L498.47 374.36L499.63 374.84L500.76 375.37L501.86 375.95L502.94 376.58L503.99 377.26L505.01 377.99L505.99 378.76L506.94 379.59L507.85 380.46L508.73 381.37L509.56 382.34L510.35 383.34L511.09 384.39L511.79 385.48L512.43 386.61L513.03 387.77L513.57 388.98L514.06 390.23L514.49 391.5L514.85 392.77L515.14 394.05L515.37 395.34L515.54 396.62L515.64 397.9L515.69 399.17L515.67 400.44L515.59 401.71L515.45 402.96L515.25 404.2L515 405.43L514.69 406.64L514.32 407.84L513.9 409.02L513.42 410.17L512.9 411.3L512.32 412.41L511.69 413.49L511.01 414.53L510.28 415.55L509.5 416.54L508.68 417.49L507.81 418.4L506.89 419.27L505.93 420.1L504.92 420.89L503.88 421.64L502.79 422.33L501.66 422.98L500.49 423.58L499.28 424.12L498.03 424.61L496.77 425.03L495.49 425.4L494.21 425.69L492.93 425.92L491.65 426.09L490.37 426.19L489.09 426.23L487.82 426.21L486.56 426.13L485.3 425.99L484.06 425.8L482.83 425.54L481.62 425.23L480.43 424.86L479.25 424.44L478.1 423.97L476.96 423.44L475.86 422.86L474.78 422.23L473.73 421.55L472.71 420.82L471.73 420.04L470.78 419.22L469.87 418.35L469 417.43L468.16 416.47L467.38 415.46L466.63 414.42L465.94 413.33L465.29 412.2L464.69 411.03L464.15 409.82L463.66 408.57L463.23 407.3L462.87 406.03L462.58 404.75L462.35 403.47L462.18 402.19L462.08 400.91L462.04 399.63L462.06 398.36L462.13 397.1L462.27 395.84L462.47 394.6L462.73 393.37L463.04 392.16L463.4 390.97L463.82 389.79L464.3 388.64L464.83 387.5L465.4 386.4L466.03 385.32L466.71 384.27L467.44 383.25L468.22 382.27L469.05 381.32L469.92 380.41L470.83 379.54L471.79 378.7L472.8 377.92L473.85 377.17L474.93 376.48L476.06 375.83L477.23 375.23L478.44 374.69L479.69 374.2L480.96 373.77L482.23 373.41L483.51 373.12L484.79 372.89L486.08 372.72L487.36 372.62L488.63 372.58L489.9 372.6L491.17 372.68Z" id="f3cQ9wKcg"></path><path d="M509.51 423.08L510.76 423.22L512.01 423.42L513.23 423.67L514.45 423.98L515.64 424.35L516.82 424.77L517.97 425.25L519.1 425.77L520.21 426.35L521.29 426.98L522.34 427.66L523.35 428.39L524.34 429.17L525.29 429.99L526.2 430.87L527.07 431.78L527.9 432.74L528.69 433.75L529.44 434.79L530.13 435.88L530.78 437.01L531.38 438.18L531.92 439.39L532.41 440.64L532.83 441.91L533.19 443.18L533.49 444.46L533.72 445.74L533.89 447.02L533.99 448.3L534.03 449.58L534.01 450.85L533.93 452.11L533.79 453.37L533.6 454.61L533.34 455.84L533.03 457.05L532.66 458.25L532.24 459.42L531.77 460.58L531.24 461.71L530.66 462.81L530.03 463.89L529.35 464.94L528.62 465.96L527.85 466.94L527.02 467.89L526.15 468.8L525.23 469.67L524.27 470.51L523.27 471.29L522.22 472.04L521.13 472.73L520 473.38L518.83 473.98L517.62 474.52L516.38 475.01L515.11 475.44L513.83 475.8L512.55 476.09L511.27 476.32L509.99 476.49L508.71 476.59L507.43 476.63L506.16 476.61L504.9 476.54L503.65 476.4L502.41 476.2L501.18 475.94L499.97 475.63L498.77 475.27L497.59 474.85L496.44 474.37L495.31 473.84L494.2 473.27L493.13 472.64L492.08 471.96L491.06 471.23L490.07 470.45L489.13 469.62L488.21 468.75L487.34 467.84L486.51 466.88L485.72 465.87L484.98 464.82L484.28 463.74L483.63 462.61L483.04 461.44L482.49 460.23L482 458.98L481.58 457.71L481.22 456.44L480.92 455.16L480.69 453.88L480.53 452.59L480.42 451.31L480.38 450.04L480.4 448.77L480.48 447.5L480.62 446.25L480.82 445.01L481.07 443.78L481.38 442.57L481.75 441.37L482.17 440.2L482.64 439.04L483.17 437.91L483.75 436.81L484.38 435.73L485.06 434.68L485.79 433.66L486.57 432.68L487.39 431.73L488.26 430.82L489.18 429.94L490.14 429.11L491.14 428.32L492.19 427.58L493.28 426.88L494.41 426.24L495.58 425.64L496.79 425.1L498.03 424.61L499.3 424.18L500.58 423.82L501.86 423.53L503.14 423.3L504.42 423.13L505.7 423.03L506.98 422.98L508.25 423L509.51 423.08Z" id="gpxinkAae"></path><path d="M502.65 482.66L503.91 482.8L505.15 482.99L506.38 483.25L507.59 483.56L508.78 483.93L509.96 484.35L511.11 484.82L512.25 485.35L513.35 485.93L514.43 486.56L515.48 487.24L516.5 487.97L517.48 488.75L518.43 489.57L519.34 490.44L520.21 491.36L521.05 492.32L521.83 493.32L522.58 494.37L523.27 495.46L523.92 496.59L524.52 497.76L525.06 498.97L525.55 500.22L525.98 501.49L526.34 502.76L526.63 504.04L526.86 505.32L527.03 506.6L527.13 507.88L527.17 509.16L527.16 510.43L527.08 511.69L526.94 512.95L526.74 514.19L526.49 515.42L526.17 516.63L525.81 517.82L525.39 519L524.91 520.15L524.39 521.29L523.81 522.39L523.18 523.47L522.5 524.52L521.77 525.54L520.99 526.52L520.16 527.47L519.29 528.38L518.38 529.25L517.42 530.09L516.41 530.87L515.36 531.62L514.28 532.31L513.15 532.96L511.98 533.56L510.77 534.1L509.52 534.59L508.25 535.02L506.98 535.38L505.7 535.67L504.42 535.9L503.13 536.07L501.85 536.17L500.58 536.21L499.31 536.2L498.04 536.12L496.79 535.98L495.55 535.78L494.32 535.53L493.11 535.21L491.91 534.85L490.73 534.43L489.58 533.95L488.45 533.43L487.34 532.85L486.27 532.22L485.22 531.54L484.2 530.81L483.21 530.03L482.26 529.2L481.35 528.33L480.48 527.42L479.65 526.46L478.86 525.45L478.12 524.41L477.42 523.32L476.77 522.19L476.18 521.02L475.63 519.81L475.14 518.56L474.72 517.29L474.36 516.02L474.06 514.74L473.83 513.46L473.66 512.17L473.56 510.89L473.52 509.62L473.54 508.35L473.62 507.08L473.76 505.83L473.95 504.59L474.21 503.36L474.52 502.15L474.89 500.95L475.31 499.77L475.78 498.62L476.31 497.49L476.89 496.38L477.52 495.31L478.2 494.26L478.93 493.24L479.71 492.25L480.53 491.3L481.4 490.39L482.32 489.52L483.28 488.69L484.28 487.9L485.33 487.16L486.42 486.46L487.55 485.81L488.72 485.22L489.93 484.67L491.18 484.18L492.45 483.76L493.72 483.4L495 483.1L496.28 482.87L497.56 482.7L498.84 482.6L500.12 482.56L501.39 482.58L502.65 482.66Z" id="k17uSKXdn4"></path><path d="M478.28 547.68L479.54 547.94L480.78 548.31L481.97 548.8L483.11 549.4L484.19 550.1L485.2 550.91L486.13 551.82L486.97 552.82L487.72 553.92L488.37 555.1L488.9 556.37L489.31 557.68L489.57 559L489.7 560.32L489.7 561.63L489.57 562.93L489.32 564.19L488.94 565.43L488.46 566.62L487.86 567.76L487.15 568.84L486.34 569.84L485.43 570.78L484.43 571.62L483.34 572.37L482.15 573.02L480.89 573.55L479.58 573.95L478.26 574.22L476.94 574.35L475.62 574.35L474.33 574.22L473.06 573.96L471.83 573.59L470.64 573.1L469.5 572.51L468.42 571.8L467.41 570.99L466.48 570.08L465.63 569.08L464.88 567.98L464.24 566.8L463.7 565.54L463.3 564.23L463.03 562.9L462.9 561.58L462.91 560.27L463.04 558.98L463.29 557.71L463.66 556.47L464.15 555.28L464.75 554.14L465.45 553.06L466.26 552.06L467.17 551.12L468.18 550.28L469.27 549.53L470.45 548.88L471.72 548.35L473.03 547.95L474.35 547.68L475.67 547.55L476.98 547.55L478.28 547.68Z" id="aQFvhjCDK"></path><path d="M373.95 42.17L384.05 44.08L393.99 46.91L403.73 50.72L413.25 55.54L422.52 61.41L431.53 68.38L440.23 76.48L448.6 85.75L456.62 96.24L464.26 107.98L465.86 111.25L467.35 114.6L468.73 118.01L470 121.47L471.15 124.99L472.2 128.56L473.12 132.17L473.93 135.81L474.63 139.47L475.2 143.16L475.66 146.87L476 150.58L476.21 154.29L476.3 158L476.27 161.7L476.11 165.38L475.83 169.04L475.41 172.67L474.87 176.26L474.2 179.81L473.4 183.31L472.47 186.76L471.4 190.15L470.2 193.47L468.86 196.72L467.39 199.88L465.78 202.97L464.03 205.95L462.13 208.84L460.1 211.63L457.93 214.3L455.61 216.86L453.15 219.29L450.54 221.6L447.78 223.76L444.88 225.79L441.83 227.66L438.62 229.38L435.27 230.94L431.76 232.33L429.17 233.22L426.56 234.03L423.93 234.74L421.27 235.38L418.58 235.92L415.88 236.38L413.16 236.76L410.41 237.06L407.66 237.27L404.89 237.41L402.1 237.46L399.31 237.43L396.5 237.33L393.69 237.14L390.87 236.88L388.05 236.54L385.22 236.13L382.4 235.64L379.57 235.08L376.75 234.44L373.93 233.73L371.11 232.95L368.3 232.1L365.5 231.18L362.71 230.18L359.94 229.12L357.17 227.99L354.43 226.8L351.7 225.53L348.98 224.21L346.29 222.81L343.62 221.35L340.97 219.83L338.35 218.25L335.76 216.6L333.19 214.89L330.66 213.13L328.15 211.3L325.68 209.41L323.25 207.47L322.41 206.8L321.57 206.16L320.71 205.54L319.83 204.95L318.95 204.38L318.05 203.83L317.14 203.32L316.22 202.82L315.28 202.35L314.34 201.91L313.39 201.49L312.43 201.09L311.46 200.73L310.48 200.38L309.5 200.06L308.5 199.77L307.5 199.51L306.5 199.27L305.49 199.05L304.47 198.86L303.45 198.7L302.43 198.56L301.4 198.45L300.37 198.37L299.34 198.31L298.3 198.28L297.27 198.27L296.23 198.29L295.19 198.34L294.15 198.42L293.12 198.52L292.08 198.65L291.05 198.81L290.02 198.99L288.99 199.2L287.96 199.44L286.94 199.7L285.92 200L284.91 200.32L283.9 200.67L281.88 201.4L280.54 201.92L279.24 202.47L277.96 203.07L276.72 203.71L275.52 204.39L274.34 205.11L273.2 205.86L272.1 206.65L271.03 207.48L269.99 208.34L268.99 209.23L268.02 210.16L267.08 211.11L266.18 212.1L265.32 213.12L264.49 214.17L263.7 215.24L262.94 216.34L262.21 217.47L261.53 218.62L260.88 219.79L260.26 220.99L259.69 222.2L259.15 223.44L258.64 224.7L258.18 225.98L257.75 227.27L257.36 228.58L257 229.9L256.69 231.24L256.41 232.6L256.17 233.96L255.97 235.34L255.81 236.73L255.68 238.13L255.6 239.53L255.55 240.95L255.55 242.37L255.58 243.79L255.65 245.22L255.72 246.54L255.76 247.85L255.78 249.15L255.77 250.46L255.74 251.76L255.68 253.06L255.59 254.36L255.49 255.66L255.35 256.95L255.19 258.23L255.01 259.52L254.81 260.79L254.57 262.07L254.32 263.33L254.04 264.6L253.74 265.85L253.41 267.1L253.06 268.34L252.68 269.58L252.29 270.8L251.87 272.02L251.42 273.23L250.95 274.44L250.46 275.63L249.95 276.82L249.41 277.99L248.86 279.16L248.27 280.31L247.67 281.46L247.04 282.59L246.4 283.72L245.72 284.83L245.03 285.93L244.32 287.01L243.58 288.09L242.82 289.15L242.05 290.2L241.24 291.23L240.42 292.25L239.58 293.26L238.42 294.59L237.23 295.88L236 297.14L234.75 298.37L233.48 299.55L232.17 300.7L230.84 301.81L229.48 302.89L228.1 303.93L226.69 304.93L225.26 305.89L223.81 306.81L222.34 307.69L220.84 308.54L219.33 309.34L217.79 310.11L216.24 310.83L214.67 311.52L213.09 312.16L211.49 312.77L209.87 313.33L208.24 313.85L206.6 314.33L204.94 314.76L203.28 315.16L201.6 315.51L199.91 315.82L198.21 316.08L196.51 316.31L194.79 316.48L193.07 316.62L191.35 316.71L189.61 316.75L187.88 316.75L186.14 316.7L184.4 316.61L182.66 316.47L180.91 316.29L179.17 316.06L177.42 315.78L174.06 315.09L170.8 314.27L167.66 313.31L164.63 312.23L161.7 311.03L158.89 309.71L156.18 308.27L153.58 306.72L151.1 305.07L148.72 303.31L146.45 301.45L144.29 299.5L142.24 297.45L140.3 295.32L138.46 293.1L136.74 290.8L135.12 288.43L133.62 285.98L132.22 283.46L130.93 280.88L129.74 278.24L128.67 275.54L127.7 272.78L126.85 269.98L126.1 267.12L125.45 264.23L124.92 261.3L124.49 258.33L124.17 255.33L123.96 252.3L123.86 249.25L123.86 246.18L123.97 243.1L124.19 240L124.52 236.9L124.95 233.79L125.49 230.67L126.13 227.57L126.88 224.47L127.74 221.38L130.27 213.82L133.44 206L137.22 197.95L141.59 189.73L146.53 181.35L152.01 172.88L157.99 164.34L164.45 155.78L171.37 147.24L178.72 138.75L186.46 130.36L194.59 122.1L203.05 114.02L211.84 106.15L220.92 98.54L230.27 91.23L239.86 84.25L249.65 77.65L259.64 71.46L269.78 65.72L280.05 60.48L290.43 55.78L300.88 51.65L311.39 48.13L321.91 45.27L332.44 43.1L342.93 41.67L353.36 41.01L363.71 41.17L373.95 42.17Z" id="b9Yit7e9n"></path><path d="M298.44 137.83L300.84 137.96L303.24 138.15L305.63 138.41L308.01 138.72L310.39 139.09L312.75 139.53L315.11 140.02L317.45 140.58L319.77 141.19L322.08 141.87L324.38 142.6L326.65 143.39L328.91 144.24L331.15 145.15L333.37 146.12L335.57 147.14L337.74 148.23L339.89 149.37L342.01 150.57L344.1 151.82L346.17 153.14L348.21 154.51L350.22 155.94L352.19 157.42L354.14 158.96L355.51 160.06L356.9 161.12L358.31 162.16L359.73 163.16L361.17 164.13L362.62 165.07L364.08 165.98L365.55 166.85L367.03 167.69L368.51 168.49L370 169.26L371.5 169.99L373 170.69L374.5 171.36L376.01 171.98L377.51 172.58L379.01 173.13L380.51 173.65L382.01 174.13L383.5 174.57L384.98 174.98L386.46 175.34L387.93 175.67L389.39 175.96L390.84 176.21L392.27 176.42L393.69 176.59L395.1 176.72L396.49 176.8L397.87 176.85L399.22 176.86L400.56 176.82L401.87 176.74L403.17 176.62L404.43 176.46L405.68 176.25L406.9 176L408.09 175.7L409.25 175.36L410.39 174.98L410.54 175.42L410.73 175.99L410.95 176.68L411.21 177.48L411.49 178.38L411.8 179.39L412.13 180.49L412.49 181.67L412.87 182.93L413.27 184.27L413.69 185.67L414.13 187.13L414.57 188.65L415.04 190.21L415.51 191.81L415.99 193.44L416.48 195.1L416.97 196.78L417.47 198.48L418.47 201.88L418.97 203.57L419.46 205.25L419.95 206.91L420.43 208.54L420.91 210.15L421.37 211.71L421.82 213.22L422.25 214.68L422.67 216.09L423.07 217.42L423.45 218.69L423.81 219.87L424.14 220.97L424.45 221.97L424.73 222.88L424.99 223.68L425.21 224.37L425.4 224.94L425.56 225.38L423.06 226.24L420.57 227.02L418.08 227.72L415.6 228.32L413.12 228.85L410.65 229.29L408.17 229.64L405.7 229.92L403.24 230.11L400.77 230.22L398.31 230.25L395.85 230.2L393.39 230.07L390.93 229.86L388.47 229.57L386.01 229.21L383.56 228.77L381.1 228.25L378.64 227.66L376.19 226.99L373.73 226.25L371.27 225.43L368.81 224.55L366.35 223.59L363.89 222.55L361.43 221.45L358.96 220.28L356.49 219.04L354.02 217.72L351.54 216.34L349.06 214.9L346.58 213.38L344.1 211.8L341.61 210.15L339.11 208.44L336.61 206.67L334.11 204.83L331.6 202.92L329.09 200.96L326.57 198.93L325.72 198.27L324.82 197.64L323.87 197.04L322.88 196.47L321.86 195.92L320.79 195.41L319.68 194.92L318.54 194.47L317.37 194.04L316.17 193.64L314.94 193.27L313.69 192.93L312.41 192.61L311.11 192.32L309.8 192.06L308.47 191.82L307.12 191.62L305.76 191.44L304.4 191.28L303.03 191.15L301.65 191.05L300.27 190.97L298.89 190.92L297.52 190.89L296.14 190.89L294.78 190.91L293.42 190.96L292.08 191.03L290.75 191.13L289.44 191.25L288.14 191.39L286.87 191.56L285.62 191.75L284.39 191.96L283.19 192.2L282.02 192.46L280.89 192.74L279.79 193.05L278.72 193.37L277.7 193.72L276.3 194.26L274.94 194.85L273.6 195.49L272.29 196.17L271.01 196.9L269.75 197.68L268.53 198.49L267.34 199.36L266.18 200.26L265.05 201.2L263.96 202.18L262.89 203.2L261.86 204.26L260.87 205.35L259.9 206.47L258.98 207.62L258.09 208.81L257.23 210.03L256.41 211.27L255.63 212.54L254.89 213.84L254.18 215.16L253.52 216.51L252.89 217.87L252.3 219.26L251.76 220.67L251.25 222.1L250.79 223.54L250.37 225L249.99 226.47L249.65 227.96L249.36 229.46L249.11 230.97L248.91 232.48L248.75 234.01L248.64 235.54L248.57 237.08L248.55 238.63L248.58 240.17L248.66 241.72L248.74 243.25L248.77 244.78L248.77 246.3L248.72 247.81L248.64 249.32L248.52 250.82L248.36 252.31L248.16 253.79L247.92 255.26L247.65 256.73L247.34 258.18L247 259.63L246.62 261.06L246.21 262.49L245.76 263.9L245.28 265.3L244.77 266.69L244.22 268.07L243.64 269.44L243.03 270.8L242.39 272.14L241.72 273.47L241.02 274.79L240.28 276.09L239.52 277.38L238.74 278.66L237.92 279.92L237.08 281.16L236.2 282.39L235.31 283.61L234.38 284.81L233.44 285.99L232.46 287.16L231.47 288.31L230.44 289.44L229.4 290.55L228.33 291.65L227.24 292.73L226.13 293.78L225 294.83L223.86 295.83L222.71 296.8L221.57 297.72L220.43 298.6L219.28 299.44L218.13 300.24L216.98 301L215.83 301.72L214.67 302.4L213.51 303.04L212.34 303.64L211.17 304.21L210 304.74L208.82 305.23L207.63 305.69L206.43 306.11L205.23 306.5L204.02 306.85L202.8 307.17L201.57 307.46L200.34 307.71L199.09 307.94L197.83 308.13L196.56 308.29L195.29 308.43L193.99 308.53L192.69 308.6L191.37 308.65L190.04 308.67L188.7 308.66L187.34 308.63L185.97 308.57L184.58 308.49L183.18 308.38L181.76 308.24L180.32 308.09L178.87 307.91L177.4 307.71L175.91 307.48L174.4 307.24L174.55 306.4L174.72 305.48L174.91 304.47L175.11 303.38L175.33 302.23L175.55 301L175.79 299.71L176.05 298.37L176.31 296.97L176.58 295.53L176.86 294.05L177.14 292.53L177.43 290.97L177.73 289.4L178.03 287.8L178.34 286.18L178.64 284.56L178.95 282.92L179.26 281.29L179.57 279.67L179.87 278.05L180.17 276.45L180.47 274.87L180.77 273.31L181.05 271.78L181.34 270.29L181.61 268.84L181.87 267.44L182.13 266.09L182.37 264.79L182.61 263.56L182.83 262.39L183.03 261.29L183.22 260.27L183.4 259.33L183.56 258.48L183.7 257.72L183.82 257.06L183.93 256.5L184.01 256.05L184.33 256.09L184.64 256.12L184.96 256.14L185.28 256.15L185.59 256.16L185.91 256.15L186.22 256.15L186.53 256.13L186.84 256.1L187.16 256.07L187.47 256.03L187.77 255.99L188.08 255.94L188.39 255.88L188.69 255.81L188.99 255.73L189.29 255.65L189.59 255.56L189.88 255.47L190.18 255.37L190.47 255.26L190.75 255.14L191.04 255.02L191.32 254.89L191.6 254.76L191.88 254.61L192.15 254.46L192.42 254.31L192.69 254.15L192.95 253.98L193.21 253.8L193.46 253.62L193.71 253.43L193.96 253.24L194.2 253.04L194.44 252.84L194.68 252.62L194.91 252.4L195.13 252.18L195.35 251.95L195.54 251.74L195.73 251.53L195.91 251.31L196.09 251.09L196.26 250.87L196.42 250.64L196.59 250.42L196.74 250.18L196.9 249.95L197.04 249.71L197.19 249.47L197.33 249.23L197.46 248.99L197.59 248.74L197.71 248.49L197.83 248.24L197.94 247.99L198.05 247.73L198.15 247.47L198.25 247.21L198.35 246.95L198.43 246.69L198.52 246.42L198.59 246.15L198.67 245.89L198.73 245.62L198.79 245.34L198.85 245.07L198.9 244.8L198.95 244.52L198.99 244.25L199.02 243.97L199.05 243.69L199.08 243.41L199.1 243.13L199.11 242.85L199.12 242.57L199.12 242.29L199.11 242L199.1 241.72L198.94 238.43L198.88 235.16L198.93 231.91L199.08 228.68L199.33 225.48L199.68 222.3L200.13 219.15L200.68 216.03L201.32 212.94L202.06 209.88L202.89 206.86L203.82 203.88L204.84 200.94L205.95 198.03L207.14 195.18L208.43 192.36L209.8 189.6L211.26 186.88L212.8 184.21L214.43 181.6L216.14 179.04L217.93 176.53L219.79 174.09L221.74 171.71L223.76 169.38L225.86 167.13L228.04 164.93L230.28 162.81L232.6 160.76L234.99 158.77L237.45 156.87L239.98 155.03L242.58 153.28L245.24 151.6L247.96 150.01L250.75 148.49L253.61 147.07L256.52 145.73L259.49 144.48L262.53 143.32L264.87 142.51L267.23 141.76L269.59 141.08L271.97 140.47L274.36 139.91L276.75 139.42L279.15 139L281.56 138.63L283.97 138.33L286.38 138.09L288.79 137.92L291.21 137.8L293.62 137.75L296.03 137.76L298.44 137.83Z" id="c9LnrG5FY"></path><path d="M378.01 389.59L381.43 390.06L384.81 390.71L388.16 391.54L391.47 392.54L394.73 393.7L397.95 395.03L401.11 396.51L404.22 398.14L407.28 399.91L410.27 401.82L413.2 403.86L416.07 406.03L418.87 408.32L421.59 410.72L424.24 413.24L426.81 415.86L429.29 418.58L431.7 421.39L434.01 424.29L436.23 427.27L438.36 430.33L440.39 433.46L442.32 436.66L444.15 439.91L445.87 443.22L447.47 446.58L448.97 449.98L450.35 453.42L451.6 456.9L452.74 460.4L453.75 463.92L454.62 467.45L456.32 481.35L456.91 494.54L456.46 507.02L455 518.82L452.58 529.95L449.25 540.41L445.05 550.22L440.04 559.4L434.25 567.96L427.74 575.91L420.54 583.26L412.71 590.03L404.29 596.23L395.33 601.88L385.88 606.98L375.97 611.55L365.67 615.61L355.01 619.17L344.03 622.23L332.79 624.82L321.34 626.95L309.71 628.62L297.96 629.86L286.13 630.67L274.27 631.08L262.42 631.09L250.64 630.71L238.95 629.96L227.43 628.86L216.1 627.41L205.01 625.63L194.22 623.53L183.76 621.12L173.69 618.43L164.05 615.45L154.89 612.21L146.25 608.72L138.18 604.99L130.73 601.04L123.93 596.87L121.29 595.06L118.72 593.16L116.23 591.2L113.82 589.16L111.49 587.06L109.24 584.89L107.08 582.65L105.02 580.36L103.04 578.01L101.16 575.61L99.38 573.15L97.7 570.65L96.11 568.1L94.64 565.51L93.27 562.88L92.01 560.22L90.87 557.52L89.83 554.79L88.92 552.03L88.13 549.24L87.46 546.43L86.91 543.61L86.49 540.76L86.2 537.9L86.05 535.04L86.03 532.16L86.14 529.28L86.4 526.39L86.8 523.51L87.34 520.63L88.03 517.75L88.88 514.88L89.87 512.03L91.02 509.19L92.33 506.37L93.79 503.57L95.42 500.79L97.22 498.04L99.18 495.31L101.32 492.62L102.47 491.29L103.66 489.99L104.88 488.73L106.13 487.5L107.4 486.31L108.7 485.16L110.03 484.04L111.39 482.96L112.77 481.92L114.17 480.92L115.6 479.95L117.05 479.03L118.52 478.14L120.01 477.29L121.52 476.48L123.05 475.71L124.6 474.98L126.17 474.29L127.75 473.64L129.35 473.03L130.97 472.47L132.6 471.94L134.24 471.46L135.89 471.02L137.56 470.62L139.24 470.26L140.92 469.95L142.62 469.68L144.33 469.45L146.04 469.27L147.76 469.13L149.49 469.04L151.22 468.99L152.95 468.98L154.69 469.02L156.43 469.11L158.18 469.24L159.92 469.42L161.67 469.65L163.41 469.92L164.71 470.15L165.99 470.41L167.27 470.68L168.54 470.99L169.8 471.31L171.06 471.66L172.3 472.03L173.54 472.43L174.77 472.85L175.98 473.3L177.19 473.76L178.39 474.25L179.58 474.76L180.76 475.3L181.92 475.85L183.08 476.43L184.22 477.03L185.35 477.65L186.47 478.29L187.58 478.96L188.67 479.64L189.75 480.35L190.82 481.07L191.87 481.82L192.91 482.58L193.93 483.37L194.94 484.18L195.94 485L196.92 485.85L197.88 486.72L198.83 487.6L199.76 488.5L200.68 489.42L201.58 490.36L202.46 491.32L203.32 492.3L204.17 493.3L205 494.31L205.8 495.34L206.6 496.39L207.46 497.53L208.35 498.64L209.27 499.73L210.21 500.78L211.18 501.81L212.17 502.8L213.19 503.76L214.23 504.68L215.29 505.58L216.37 506.43L217.48 507.26L218.6 508.05L219.74 508.8L220.9 509.51L222.08 510.19L223.27 510.83L224.48 511.43L225.71 511.99L226.95 512.51L228.2 513L229.47 513.44L230.74 513.83L232.03 514.19L233.33 514.5L234.64 514.77L235.95 514.99L237.28 515.17L238.61 515.31L239.95 515.39L241.29 515.43L242.64 515.42L243.99 515.37L245.35 515.26L246.7 515.11L248.06 514.9L249.42 514.65L250.78 514.34L252.14 513.98L253.5 513.57L254.86 513.1L256.88 512.36L257.87 511.98L258.86 511.58L259.82 511.15L260.78 510.7L261.72 510.22L262.64 509.72L263.55 509.2L264.44 508.65L265.32 508.09L266.18 507.5L267.02 506.89L267.85 506.26L268.66 505.61L269.45 504.94L270.22 504.25L270.97 503.55L271.71 502.82L272.42 502.07L273.12 501.31L273.8 500.53L274.45 499.73L275.09 498.92L275.71 498.09L276.3 497.24L276.87 496.38L277.42 495.5L277.95 494.61L278.46 493.71L278.94 492.79L279.4 491.85L279.84 490.91L280.25 489.95L280.64 488.98L281 488L281.34 487L281.65 486L281.94 484.98L282.2 483.95L282.44 482.92L282.65 481.87L283.26 478.82L283.94 475.78L284.69 472.77L285.49 469.79L286.36 466.83L287.29 463.9L288.28 461L289.33 458.14L290.44 455.3L291.6 452.5L292.83 449.74L294.11 447.02L295.44 444.34L296.84 441.7L298.28 439.1L299.78 436.55L301.33 434.04L302.93 431.58L304.59 429.17L306.29 426.82L308.05 424.51L309.85 422.27L311.7 420.08L313.6 417.94L315.55 415.87L317.54 413.86L319.57 411.91L321.65 410.02L323.78 408.21L325.94 406.46L328.15 404.78L330.4 403.17L332.69 401.63L335.02 400.17L337.39 398.79L339.8 397.48L342.24 396.26L344.72 395.11L347.24 394.05L349.79 393.07L353.37 391.88L356.95 390.92L360.51 390.18L364.05 389.65L367.58 389.34L371.08 389.22L374.56 389.31L378.01 389.59Z" id="b3IFcTxiGt"></path><path d="M357.15 400.39L357.4 401.05L357.7 401.81L358.03 402.67L358.39 403.61L358.79 404.64L359.22 405.75L359.68 406.93L360.17 408.18L360.68 409.48L361.21 410.84L361.76 412.25L362.33 413.7L362.91 415.19L363.51 416.7L364.11 418.24L364.72 419.8L365.34 421.37L366.58 424.52L367.19 426.09L367.81 427.64L368.41 429.18L369 430.7L369.59 432.18L370.16 433.63L370.71 435.04L371.24 436.4L371.75 437.71L372.24 438.95L372.7 440.13L373.13 441.24L373.53 442.27L373.89 443.22L374.22 444.07L374.51 444.83L374.76 445.49L374.97 446.04L375.13 446.48L374.02 446.92L372.91 447.4L371.8 447.94L370.71 448.53L369.62 449.17L368.54 449.86L367.47 450.6L366.42 451.39L365.37 452.22L364.33 453.09L363.31 454.01L362.3 454.97L361.31 455.97L360.33 457.02L359.36 458.1L358.41 459.22L357.48 460.38L356.57 461.58L355.67 462.81L354.79 464.07L353.94 465.37L353.1 466.7L352.28 468.06L351.49 469.45L350.72 470.87L349.97 472.32L349.25 473.79L348.55 475.29L347.87 476.81L347.23 478.36L346.61 479.93L346.01 481.52L345.45 483.13L344.91 484.76L344.41 486.41L343.93 488.08L343.49 489.76L343.07 491.46L342.69 493.17L342.35 494.9L341.84 497.36L341.28 499.79L340.65 502.2L339.96 504.59L339.21 506.95L338.4 509.28L337.54 511.59L336.61 513.86L335.62 516.11L334.58 518.32L333.48 520.5L332.33 522.66L331.12 524.77L329.85 526.86L328.53 528.91L327.16 530.92L325.74 532.9L324.27 534.84L322.74 536.74L321.16 538.61L319.54 540.43L317.86 542.22L316.14 543.96L314.37 545.66L312.56 547.32L310.7 548.94L308.79 550.51L306.84 552.03L304.84 553.51L302.8 554.94L300.72 556.33L298.6 557.67L296.44 558.95L294.24 560.19L291.99 561.37L289.71 562.51L287.39 563.59L285.03 564.62L282.64 565.59L280.21 566.51L277.23 567.54L274.24 568.46L271.23 569.27L268.22 569.98L265.19 570.59L262.16 571.09L259.13 571.48L256.09 571.78L253.05 571.97L250.02 572.06L246.98 572.05L243.96 571.94L240.94 571.73L237.93 571.43L234.94 571.02L231.96 570.52L229 569.92L226.05 569.23L223.13 568.44L220.23 567.56L217.36 566.58L214.51 565.51L211.69 564.35L208.9 563.09L206.15 561.75L203.43 560.31L200.76 558.79L198.12 557.18L195.52 555.47L192.97 553.69L190.46 551.81L188.01 549.85L185.6 547.8L183.24 545.67L180.95 543.45L178.7 541.15L176.52 538.77L174.4 536.3L172.34 533.76L170.35 531.13L170.17 530.91L170 530.69L169.82 530.47L169.63 530.26L169.44 530.06L169.25 529.86L169.05 529.66L168.85 529.46L168.65 529.27L168.44 529.09L168.23 528.91L168.01 528.73L167.8 528.56L167.58 528.39L167.35 528.23L167.12 528.07L166.89 527.91L166.66 527.76L166.43 527.62L166.19 527.48L165.95 527.34L165.7 527.21L165.45 527.09L165.21 526.97L164.95 526.85L164.7 526.74L164.44 526.63L164.19 526.53L163.92 526.43L163.66 526.34L163.4 526.26L163.13 526.17L162.86 526.1L162.59 526.03L162.32 525.96L162.05 525.9L161.77 525.85L161.49 525.8L161.22 525.75L160.94 525.72L160.62 525.68L160.3 525.65L159.99 525.63L159.67 525.62L159.35 525.62L159.04 525.62L158.73 525.63L158.41 525.65L158.1 525.67L157.79 525.71L157.48 525.75L157.17 525.79L156.86 525.85L156.56 525.91L156.26 525.98L155.95 526.05L155.65 526.13L155.36 526.22L155.06 526.32L154.77 526.42L154.48 526.53L154.19 526.65L153.91 526.78L153.62 526.91L153.34 527.04L153.07 527.19L152.8 527.34L152.53 527.5L152.26 527.66L152 527.83L151.74 528L151.49 528.19L151.24 528.38L150.99 528.57L150.75 528.77L150.51 528.98L150.27 529.19L150.05 529.41L149.82 529.64L149.6 529.87L149.35 530.18L149.11 530.49L148.88 530.78L148.66 531.07L148.46 531.36L148.26 531.64L148.08 531.91L147.91 532.18L147.76 532.45L147.61 532.71L147.47 532.96L147.35 533.22L147.24 533.47L147.13 533.71L147.04 533.96L146.96 534.2L146.89 534.44L146.82 534.67L146.77 534.91L146.72 535.14L146.69 535.38L146.66 535.61L146.64 535.84L146.63 536.07L146.63 536.31L146.64 536.54L146.65 536.77L146.67 537.01L146.7 537.24L146.74 537.48L146.78 537.72L146.83 537.96L146.89 538.2L146.95 538.45L147.02 538.7L147.09 538.95L147.17 539.21L147.26 539.47L147.35 539.74L147.45 540.01L146.66 540.29L145.79 540.58L144.86 540.89L143.86 541.2L142.8 541.53L141.69 541.86L140.52 542.21L139.3 542.56L138.04 542.92L136.74 543.28L135.4 543.66L134.02 544.04L132.62 544.42L131.18 544.81L129.73 545.2L128.25 545.59L126.77 545.99L125.27 546.39L123.76 546.79L120.74 547.6L119.23 548L117.73 548.4L116.24 548.79L114.77 549.19L113.31 549.58L111.88 549.97L110.47 550.35L109.1 550.73L107.76 551.1L106.45 551.47L105.19 551.83L103.97 552.18L102.81 552.53L101.69 552.86L100.63 553.19L99.64 553.5L98.7 553.81L97.84 554.1L97.05 554.38L96.47 552.74L95.93 551.1L95.44 549.48L95 547.86L94.6 546.26L94.25 544.66L93.94 543.08L93.67 541.51L93.45 539.94L93.27 538.39L93.14 536.84L93.06 535.3L93.01 533.77L93.01 532.25L93.06 530.74L93.15 529.23L93.28 527.74L93.46 526.25L93.68 524.77L93.94 523.29L94.25 521.82L94.6 520.36L95 518.9L95.44 517.45L95.92 516.01L96.44 514.57L97.01 513.14L97.62 511.71L98.28 510.29L98.98 508.87L99.72 507.45L100.5 506.04L101.33 504.64L102.2 503.24L103.11 501.84L104.07 500.45L105.07 499.05L106.11 497.67L107.19 496.28L108.31 494.9L109.46 493.57L110.62 492.31L111.79 491.11L112.97 489.97L114.16 488.88L115.37 487.86L116.58 486.88L117.81 485.96L119.05 485.1L120.3 484.29L121.57 483.53L122.85 482.82L124.14 482.16L125.45 481.54L126.77 480.98L128.1 480.46L129.45 479.99L130.81 479.56L132.19 479.17L133.58 478.83L134.99 478.53L136.41 478.27L137.85 478.05L139.3 477.86L140.77 477.71L142.26 477.6L143.76 477.53L145.28 477.49L146.81 477.48L148.37 477.5L149.94 477.56L151.52 477.64L153.13 477.75L154.75 477.9L156.39 478.06L158.05 478.26L159.73 478.48L161.43 478.72L163.14 478.99L164.88 479.27L166.17 479.51L167.43 479.78L168.69 480.07L169.92 480.4L171.14 480.75L172.34 481.13L173.53 481.54L174.7 481.98L175.86 482.44L177 482.93L178.12 483.45L179.23 483.99L180.33 484.56L181.41 485.15L182.48 485.76L183.53 486.4L184.57 487.06L185.6 487.74L186.61 488.45L187.61 489.17L188.6 489.92L189.57 490.69L190.54 491.47L191.49 492.28L192.43 493.11L193.35 493.95L194.27 494.81L195.17 495.69L196.07 496.59L196.95 497.5L197.82 498.43L198.68 499.37L199.53 500.33L200.38 501.3L201.21 502.29L202.03 503.29L202.85 504.3L203.65 505.32L204.45 506.36L205.23 507.41L206.15 508.59L207.11 509.72L208.12 510.8L209.18 511.82L210.28 512.78L211.42 513.7L212.59 514.56L213.81 515.37L215.05 516.12L216.33 516.83L217.64 517.49L218.98 518.1L220.34 518.67L221.73 519.18L223.14 519.65L224.57 520.08L226.02 520.46L227.48 520.79L228.96 521.08L230.44 521.33L231.94 521.54L233.45 521.7L234.96 521.83L236.47 521.92L237.99 521.96L239.5 521.97L241.01 521.94L242.52 521.88L244.02 521.78L245.51 521.64L246.99 521.47L248.46 521.26L249.91 521.02L251.35 520.75L252.77 520.45L254.16 520.12L255.53 519.75L256.88 519.36L258.2 518.94L259.48 518.49L260.6 518.06L261.7 517.6L262.8 517.09L263.88 516.55L264.95 515.98L266.01 515.37L267.05 514.73L268.09 514.05L269.1 513.35L270.1 512.61L271.09 511.85L272.06 511.06L273.01 510.25L273.95 509.4L274.86 508.54L275.76 507.65L276.63 506.74L277.49 505.81L278.32 504.87L279.13 503.9L279.92 502.92L280.68 501.92L281.42 500.9L282.14 499.88L282.83 498.84L283.49 497.79L284.13 496.73L284.74 495.66L285.32 494.58L285.87 493.5L286.4 492.41L286.89 491.32L287.35 490.22L287.78 489.12L288.17 488.02L288.53 486.93L288.86 485.83L289.16 484.73L289.42 483.64L289.64 482.56L290.28 479.39L290.99 476.27L291.76 473.2L292.6 470.19L293.49 467.24L294.45 464.34L295.47 461.49L296.55 458.7L297.69 455.96L298.88 453.28L300.13 450.65L301.44 448.08L302.8 445.56L304.21 443.1L305.68 440.7L307.2 438.35L308.77 436.06L310.39 433.83L312.06 431.65L313.77 429.53L315.54 427.47L317.35 425.46L319.21 423.52L321.11 421.63L323.05 419.79L325.04 418.02L327.07 416.31L329.13 414.65L331.24 413.05L333.39 411.51L335.57 410.03L337.8 408.61L340.05 407.25L342.35 405.95L344.67 404.71L347.03 403.53L349.43 402.4L351.85 401.34L354.3 400.34L356.79 399.4L356.95 399.84L357.15 400.39Z" id="adZF6yWM5"></path><path d="M420.84 9.76L422.11 10.01L423.34 10.39L424.53 10.87L425.67 11.47L426.75 12.18L427.76 12.99L428.69 13.9L429.54 14.9L430.29 16L430.94 17.18L431.47 18.44L431.87 19.75L432.14 21.07L432.27 22.4L432.26 23.71L432.13 25L431.88 26.27L431.51 27.51L431.02 28.7L430.42 29.84L429.72 30.91L428.91 31.92L428 32.86L426.99 33.7L425.9 34.45L424.72 35.1L423.45 35.63L422.14 36.04L420.82 36.3L419.5 36.43L418.19 36.43L416.89 36.3L415.63 36.04L414.39 35.67L413.2 35.18L412.06 34.58L410.98 33.88L409.97 33.07L409.04 32.16L408.2 31.16L407.45 30.06L406.8 28.88L406.27 27.61L405.86 26.3L405.6 24.98L405.47 23.66L405.47 22.35L405.6 21.05L405.86 19.79L406.23 18.55L406.71 17.36L407.31 16.22L408.02 15.14L408.83 14.13L409.74 13.2L410.74 12.36L411.83 11.61L413.02 10.96L414.28 10.43L415.59 10.02L416.91 9.76L418.23 9.63L419.55 9.63L420.84 9.76Z" id="g2NPaOcSpy"></path></defs><g><g><g><use xlink:href="#diu1DzqqP" opacity="1" fill="#2b2c53" fill-opacity="1"></use><g><use xlink:href="#diu1DzqqP" opacity="1" fill-opacity="0" stroke="#ff5050" stroke-width="14" stroke-opacity="1"></use></g></g><g><use xlink:href="#c1HprSLdXk" opacity="1" fill="#2b2c53" fill-opacity="1"></use><g><use xlink:href="#c1HprSLdXk" opacity="1" fill-opacity="0" stroke="#ff5050" stroke-width="14" stroke-opacity="1"></use></g></g><g><use xlink:href="#e19MwljV6s" opacity="1" fill="#2b2c53" fill-opacity="1"></use><g><use xlink:href="#e19MwljV6s" opacity="1" fill-opacity="0" stroke="#ff5050" stroke-width="14" stroke-opacity="1"></use></g></g><g><use xlink:href="#cyLXk4Oho" opacity="1" fill="#2b2c53" fill-opacity="1"></use><g><use xlink:href="#cyLXk4Oho" opacity="1" fill-opacity="0" stroke="#ff5050" stroke-width="14" stroke-opacity="1"></use></g></g><g><use xlink:href="#dgLgW6nHk" opacity="1" fill="#2b2c53" fill-opacity="1"></use><g><use xlink:href="#dgLgW6nHk" opacity="1" fill-opacity="0" stroke="#ff5050" stroke-width="14" stroke-opacity="1"></use></g></g><g><use xlink:href="#f3cQ9wKcg" opacity="1" fill="#2b2c53" fill-opacity="1"></use><g><use xlink:href="#f3cQ9wKcg" opacity="1" fill-opacity="0" stroke="#ff5050" stroke-width="14" stroke-opacity="1"></use></g></g><g><use xlink:href="#gpxinkAae" opacity="1" fill="#2b2c53" fill-opacity="1"></use><g><use xlink:href="#gpxinkAae" opacity="1" fill-opacity="0" stroke="#ff5050" stroke-width="14" stroke-opacity="1"></use></g></g><g><use xlink:href="#k17uSKXdn4" opacity="1" fill="#2b2c53" fill-opacity="1"></use><g><use xlink:href="#k17uSKXdn4" opacity="1" fill-opacity="0" stroke="#ff5050" stroke-width="14" stroke-opacity="1"></use></g></g><g><use xlink:href="#aQFvhjCDK" opacity="1" fill="#2b2c53" fill-opacity="1"></use><g><use xlink:href="#aQFvhjCDK" opacity="1" fill-opacity="0" stroke="#ff5050" stroke-width="14" stroke-opacity="1"></use></g></g><g><use xlink:href="#b9Yit7e9n" opacity="1" fill="#38395e" fill-opacity="1"></use><g><use xlink:href="#b9Yit7e9n" opacity="1" fill-opacity="0" stroke="#ff5050" stroke-width="14" stroke-opacity="1"></use></g></g><g><use xlink:href="#c9LnrG5FY" opacity="1" fill="#2b2c53" fill-opacity="1"></use><g><use xlink:href="#c9LnrG5FY" opacity="1" fill-opacity="0" stroke="#ff5050" stroke-width="0" stroke-opacity="1"></use></g></g><g><use xlink:href="#b3IFcTxiGt" opacity="1" fill="#38395e" fill-opacity="1"></use><g><use xlink:href="#b3IFcTxiGt" opacity="1" fill-opacity="0" stroke="#ff5050" stroke-width="14" stroke-opacity="1"></use></g></g><g><use xlink:href="#adZF6yWM5" opacity="1" fill="#2b2c53" fill-opacity="1"></use><g><use xlink:href="#adZF6yWM5" opacity="1" fill-opacity="0" stroke="#ff5050" stroke-width="0" stroke-opacity="1"></use></g></g><g><use xlink:href="#g2NPaOcSpy" opacity="1" fill="#2b2c53" fill-opacity="1"></use><g><use xlink:href="#g2NPaOcSpy" opacity="1" fill-opacity="0" stroke="#ff5050" stroke-width="14" stroke-opacity="1"></use></g></g></g></g></svg>
