<?xml version="1.0" encoding="UTF-8" standalone="no"?>
<!DOCTYPE svg PUBLIC "-//W3C//DTD SVG 1.1//EN" "http://www.w3.org/Graphics/SVG/1.1/DTD/svg11.dtd">
<svg version="1.1" xmlns="http://www.w3.org/2000/svg" xmlns:xlink="http://www.w3.org/1999/xlink" preserveAspectRatio="xMidYMid meet" viewBox="0 0 640 640" width="50" height="50"><defs><path d="M335.25 595.82C332.77 602.31 326.32 606.52 319.38 606.07C139.94 594.32 94.04 513.2 83.09 462.15C77.56 436.37 89.41 409.4 112.17 396.11C218.27 334.14 341.11 442.26 372.17 472.36C376.74 476.79 378.18 483.51 375.91 489.45C367.78 510.73 339.32 585.18 335.25 595.82Z" id="e1rNCieLNn"></path><linearGradient id="gradientf46IMOzzw" gradientUnits="userSpaceOnUse" x1="179.39" y1="364.6" x2="295.71" y2="618.96"><stop style="stop-color: #ffcf42;stop-opacity: 1" offset="0%"></stop><stop style="stop-color: #ffb500;stop-opacity: 1" offset="100%"></stop></linearGradient><path d="M363.34 481.48C349.23 467.8 311.39 433.58 264.8 411.14C209.08 384.31 159.89 382.94 118.57 407.07C108.97 412.67 101.51 421.62 97.55 432.25C94.28 441.04 93.57 450.46 95.5 459.48C100.13 481.05 112.64 512.34 145.97 538.92C185.01 570.05 243.63 588.38 320.21 593.4C321.55 593.48 322.89 592.59 323.39 591.28C326.11 584.19 339.66 548.73 364.06 484.89C364.17 483.19 363.93 482.05 363.34 481.48Z" id="bTyEyZXaG"></path><linearGradient id="gradientf2ornNGx9M" gradientUnits="userSpaceOnUse" x1="256.79" y1="533.8" x2="150.68" y2="301.75"><stop style="stop-color: #ffb500;stop-opacity: 0" offset="0%"></stop><stop style="stop-color: #ff7000;stop-opacity: 1" offset="100%"></stop></linearGradient><path d="M435.02 499.09C526.49 507.25 572.65 550.96 554.28 600.3C535.38 651.04 476.34 645.57 422.7 625.59C412.9 621.94 403.63 619.01 395.02 616.64C389.18 615.03 386.06 608.74 388.18 603.06C390.59 596.58 402.66 564.18 424.37 505.86C428.38 501.07 431.93 498.81 435.02 499.09Z" id="fv3I6OSHv"></path><linearGradient id="gradientc1ddXOeae" gradientUnits="userSpaceOnUse" x1="432.03" y1="498.99" x2="498.89" y2="645.2"><stop style="stop-color: #ffcf42;stop-opacity: 1" offset="0%"></stop><stop style="stop-color: #ffb500;stop-opacity: 1" offset="100%"></stop></linearGradient><path d="M538.89 556.9C531.76 545.59 507.47 518.71 435.67 511.9C432.2 521.22 404.43 595.79 400.96 605.11C409.71 607.6 418.5 610.48 427.13 613.69C455.62 624.3 480.89 628.84 500.21 626.83C521.66 624.61 535.45 614.48 542.38 595.87C547.57 581.92 546.4 568.81 538.89 556.9Z" id="cwSs2DFUn"></path><linearGradient id="gradientd2IyJPesA" gradientUnits="userSpaceOnUse" x1="499.05" y1="644.19" x2="404.07" y2="436.47"><stop style="stop-color: #ffb500;stop-opacity: 0" offset="0%"></stop><stop style="stop-color: #ff7000;stop-opacity: 1" offset="100%"></stop></linearGradient><path d="M147 394.84C137.15 397.68 127.68 401.75 118.58 407.07C108.98 412.67 101.51 421.63 97.56 432.24C94.28 441.05 93.56 450.47 95.51 459.49C97.75 469.96 101.85 482.71 109.29 496.1C116.83 475.85 143.23 404.96 147 394.84Z" id="iLS2vGRDD"></path><linearGradient id="gradientb1lhYM9rw" gradientUnits="userSpaceOnUse" x1="122.33" y1="443.3" x2="78.47" y2="426.97"><stop style="stop-color: #ffb500;stop-opacity: 0" offset="0%"></stop><stop style="stop-color: #ff7000;stop-opacity: 1" offset="100%"></stop></linearGradient><path d="M184.61 389.96C171.53 389.75 158.99 391.38 147 394.84C143.23 404.97 113.06 485.98 109.29 496.1C115.05 506.5 122.84 517.29 133.33 527.68C143.59 500.14 179.48 403.74 184.61 389.96Z" id="e1OqyGZ69i"></path><linearGradient id="gradientl8WfN7ZQ1" gradientUnits="userSpaceOnUse" x1="153.11" y1="456.64" x2="108.9" y2="440.17"><stop style="stop-color: #ffb500;stop-opacity: 0" offset="0%"></stop><stop style="stop-color: #ff7000;stop-opacity: 1" offset="100%"></stop></linearGradient><path d="M218.75 394.43C207.01 391.61 195.62 390.13 184.61 389.96C179.48 403.73 138.46 513.91 133.33 527.68C137.18 531.5 141.38 535.25 145.98 538.92C150.69 542.68 155.68 546.25 160.96 549.62C172.52 518.58 212.97 409.95 218.75 394.43Z" id="dq0SopGHv"></path><linearGradient id="gradientc1dHduI8nI" gradientUnits="userSpaceOnUse" x1="183.99" y1="469.84" x2="139.79" y2="453.38"><stop style="stop-color: #ffb500;stop-opacity: 0" offset="0%"></stop><stop style="stop-color: #ff7000;stop-opacity: 1" offset="100%"></stop></linearGradient><path d="M250.67 404.84C239.76 400.34 229.12 396.87 218.75 394.43C212.97 409.95 166.74 534.1 160.96 549.62C170.08 555.47 180.05 560.75 190.85 565.49C202.81 533.36 244.69 420.9 250.67 404.84Z" id="iapKqOP7E"></path><linearGradient id="gradientbbMcyflA9" gradientUnits="userSpaceOnUse" x1="214.92" y1="482.91" x2="170.71" y2="466.45"><stop style="stop-color: #ffb500;stop-opacity: 0" offset="0%"></stop><stop style="stop-color: #ff7000;stop-opacity: 1" offset="100%"></stop></linearGradient><path d="M280.98 419.58C275.72 416.64 270.32 413.82 264.8 411.15C260.04 408.86 255.33 406.74 250.67 404.84C244.69 420.9 196.83 549.42 190.85 565.49C200.66 569.79 211.17 573.62 222.37 576.97C234.09 545.49 275.12 435.32 280.98 419.58Z" id="aOPknuJBS"></path><linearGradient id="gradientb9nVMLJrN2" gradientUnits="userSpaceOnUse" x1="246.27" y1="494.88" x2="202.06" y2="478.41"><stop style="stop-color: #ffb500;stop-opacity: 0" offset="0%"></stop><stop style="stop-color: #ff7000;stop-opacity: 1" offset="100%"></stop></linearGradient><path d="M255.15 585.1C260.63 570.36 304.52 452.49 310.01 437.76C301.03 431.54 291.3 425.34 280.98 419.58C277.07 430.07 257.54 482.54 222.37 576.97C236.55 580.85 247.48 583.56 255.15 585.1Z" id="bBfxlSg6d"></path><linearGradient id="gradientb2DyJcFGz" gradientUnits="userSpaceOnUse" x1="277.25" y1="507.8" x2="233.04" y2="491.34"><stop style="stop-color: #ffb500;stop-opacity: 0" offset="0%"></stop><stop style="stop-color: #ff7000;stop-opacity: 1" offset="100%"></stop></linearGradient><path d="M288.94 590.48C293.84 577.32 333.05 472.04 337.95 458.88C329.85 452.24 320.45 444.98 310.01 437.76C306.35 447.58 288.07 496.69 255.15 585.1C269.84 587.73 281.1 589.53 288.94 590.48Z" id="e6O4Fu4slw"></path><linearGradient id="gradientf1b3LECXlc" gradientUnits="userSpaceOnUse" x1="308.15" y1="520.95" x2="263.94" y2="504.48"><stop style="stop-color: #ffb500;stop-opacity: 0" offset="0%"></stop><stop style="stop-color: #ff7000;stop-opacity: 1" offset="100%"></stop></linearGradient><path d="M320.21 593.41C321.56 593.48 322.89 592.59 323.39 591.29C327.46 580.65 359.99 495.53 364.06 484.89C364.5 483.69 364.23 482.35 363.33 481.47C357.99 476.3 349.26 468.19 337.94 458.88C334.68 467.65 318.34 511.52 288.94 590.48C302.6 591.96 313.03 592.93 320.21 593.41Z" id="a2bp5Dhjy"></path><linearGradient id="gradientbYfFmIoEm" gradientUnits="userSpaceOnUse" x1="339.01" y1="534.2" x2="294.8" y2="517.74"><stop style="stop-color: #ffb500;stop-opacity: 0" offset="0%"></stop><stop style="stop-color: #ff7000;stop-opacity: 1" offset="100%"></stop></linearGradient><path d="M410.28 177.17C415.15 172.22 416.3 164.6 413 158.48C327.69 0.18 234.83 -7.82 183.84 3.45C158.1 9.15 138.5 31.14 135.88 57.37C123.65 179.62 273.07 246.37 313.36 262.1C319.29 264.41 326 262.93 330.46 258.39C346.42 242.14 402.3 185.3 410.28 177.17Z" id="blKqJgT1s"></path><linearGradient id="gradienta3pIAgV9zc" gradientUnits="userSpaceOnUse" x1="314.8" y1="167.08" x2="594.49" y2="421.45"><stop style="stop-color: #ffcf42;stop-opacity: 1" offset="0%"></stop><stop style="stop-color: #ffb500;stop-opacity: 1" offset="100%"></stop></linearGradient><path d="M317.98 250.27C299.68 243.13 252.81 222.95 213.04 189.91C165.46 150.4 143.75 106.23 148.51 58.63C149.62 47.57 154.64 37.06 162.66 29.04C169.3 22.4 177.57 17.84 186.58 15.85C208.12 11.08 241.78 9.45 279.81 28.7C324.36 51.26 365.41 96.95 401.82 164.5C402.46 165.69 402.21 167.27 401.22 168.28C395.9 173.69 369.29 200.77 321.38 249.51C319.89 250.32 318.75 250.57 317.98 250.27Z" id="b247vrWPq5"></path><linearGradient id="gradientcf92G2QlK" gradientUnits="userSpaceOnUse" x1="210.06" y1="167.19" x2="593.26" y2="-168.05"><stop style="stop-color: #ffb500;stop-opacity: 0" offset="0%"></stop><stop style="stop-color: #ff7000;stop-opacity: 1" offset="100%"></stop></linearGradient><path d="M363.81 308.14C409.27 387.93 468.22 411.72 505.45 374.49C543.74 336.21 514.2 284.8 473.73 244.32C466.33 236.92 459.81 229.72 454.07 222.87C450.18 218.23 443.17 218.01 438.88 222.29C433.99 227.18 409.54 251.63 365.53 295.64C362.85 301.27 362.27 305.44 363.81 308.14Z" id="ajSK1JB1a"></path><linearGradient id="gradientaxQQSRW6M" gradientUnits="userSpaceOnUse" x1="445.13" y1="312.34" x2="605.9" y2="566.71"><stop style="stop-color: #ffcf42;stop-opacity: 1" offset="0%"></stop><stop style="stop-color: #ffb500;stop-opacity: 1" offset="100%"></stop></linearGradient><path d="M459.58 378.55C446.33 376.77 411.78 365.86 375.73 303.4C382.76 296.37 439.03 240.1 446.06 233.07C451.96 239.99 458.24 246.79 464.75 253.3C486.24 274.79 500.89 295.88 507.09 314.29C513.99 334.72 510.51 351.48 496.47 365.52C485.95 376.04 473.53 380.43 459.58 378.55Z" id="btEkkzUTd"></path><linearGradient id="gradientg1pvEAmfhN" gradientUnits="userSpaceOnUse" x1="271.51" y1="416.66" x2="654.72" y2="193.44"><stop style="stop-color: #ffb500;stop-opacity: 0" offset="0%"></stop><stop style="stop-color: #ff7000;stop-opacity: 1" offset="100%"></stop></linearGradient><path d="M149.21 89.56C147.69 79.43 147.46 69.12 148.51 58.64C149.61 47.57 154.65 37.06 162.66 29.05C169.31 22.4 177.58 17.84 186.59 15.85C197.05 13.54 210.35 11.95 225.62 13.16C210.34 28.44 156.85 81.92 149.21 89.56Z" id="b6hVTzhQvY"></path><linearGradient id="gradientgjO3lR8vJ" gradientUnits="userSpaceOnUse" x1="183.03" y1="46.98" x2="149.94" y2="13.89"><stop style="stop-color: #ffb500;stop-opacity: 0" offset="0%"></stop><stop style="stop-color: #ff7000;stop-opacity: 1" offset="100%"></stop></linearGradient><path d="M160.42 125.8C154.79 113.99 151.05 101.91 149.21 89.56C156.85 81.92 217.98 20.8 225.62 13.16C237.47 14.08 250.52 16.67 264.33 21.89C243.55 42.67 170.81 115.41 160.42 125.8Z" id="ahVHoAOZk"></path><linearGradient id="gradienta4fBpYqDSR" gradientUnits="userSpaceOnUse" x1="207.96" y1="69.42" x2="174.6" y2="36.06"><stop style="stop-color: #ffb500;stop-opacity: 0" offset="0%"></stop><stop style="stop-color: #ff7000;stop-opacity: 1" offset="100%"></stop></linearGradient><path d="M178.68 154.99C171.24 145.48 165.16 135.74 160.42 125.8C170.81 115.41 253.94 32.28 264.33 21.89C269.41 23.79 274.57 26.06 279.82 28.71C285.19 31.44 290.51 34.49 295.78 37.89C272.36 61.31 190.39 143.28 178.68 154.99Z" id="a30b2HuXCq"></path><linearGradient id="gradientakZVd8aBi" gradientUnits="userSpaceOnUse" x1="232.8" y1="92.01" x2="199.45" y2="58.66"><stop style="stop-color: #ffb500;stop-opacity: 0" offset="0%"></stop><stop style="stop-color: #ff7000;stop-opacity: 1" offset="100%"></stop></linearGradient><path d="M201.42 179.69C192.8 171.64 185.21 163.4 178.68 154.99C190.39 143.28 284.07 49.6 295.78 37.89C304.89 43.75 313.84 50.61 322.64 58.47C298.4 82.71 213.55 167.56 201.42 179.69Z" id="agb42yscJ"></path><linearGradient id="gradientajiB2plXs" gradientUnits="userSpaceOnUse" x1="257.56" y1="114.71" x2="224.2" y2="81.35"><stop style="stop-color: #ffb500;stop-opacity: 0" offset="0%"></stop><stop style="stop-color: #ff7000;stop-opacity: 1" offset="100%"></stop></linearGradient><path d="M227.43 201.12C222.58 197.56 217.76 193.82 213.04 189.91C208.97 186.54 205.09 183.13 201.42 179.69C213.55 167.56 310.52 70.59 322.64 58.47C330.63 65.61 338.48 73.57 346.19 82.36C322.44 106.11 239.31 189.24 227.43 201.12Z" id="aio6QcB4Y"></path><linearGradient id="gradientbypYiam7h" gradientUnits="userSpaceOnUse" x1="281.47" y1="138.23" x2="248.11" y2="104.88"><stop style="stop-color: #ffb500;stop-opacity: 0" offset="0%"></stop><stop style="stop-color: #ff7000;stop-opacity: 1" offset="100%"></stop></linearGradient><path d="M367.21 108.79C356.1 119.9 267.16 208.84 256.04 219.96C246.65 214.38 236.96 208.11 227.44 201.12C235.35 193.2 274.94 153.61 346.19 82.36C355.62 93.64 362.63 102.45 367.21 108.79Z" id="a26As2bXKT"></path><linearGradient id="gradientd2dOISUoxO" gradientUnits="userSpaceOnUse" x1="306.11" y1="161.04" x2="272.75" y2="127.68"><stop style="stop-color: #ffb500;stop-opacity: 0" offset="0%"></stop><stop style="stop-color: #ff7000;stop-opacity: 1" offset="100%"></stop></linearGradient><path d="M386.16 137.28C376.23 147.21 296.79 226.65 286.86 236.58C277.46 231.98 266.95 226.44 256.04 219.96C263.45 212.55 300.51 175.49 367.21 108.79C375.72 121.05 382.04 130.54 386.16 137.28Z" id="ajIOXIq7X"></path><linearGradient id="gradienta1DBQRNUv1" gradientUnits="userSpaceOnUse" x1="330.92" y1="183.67" x2="297.57" y2="150.32"><stop style="stop-color: #ffb500;stop-opacity: 0" offset="0%"></stop><stop style="stop-color: #ff7000;stop-opacity: 1" offset="100%"></stop></linearGradient><path d="M401.83 164.5C402.46 165.69 402.2 167.27 401.22 168.27C393.24 176.39 329.37 241.38 321.38 249.51C320.47 250.41 319.14 250.72 317.97 250.27C311.05 247.56 300.04 243 286.86 236.58C293.48 229.96 326.59 196.86 386.17 137.28C393.19 149.09 398.41 158.16 401.83 164.5Z" id="a1npq2E9zp"></path><linearGradient id="gradienta1wITTNZ2x" gradientUnits="userSpaceOnUse" x1="355.81" y1="206.23" x2="322.46" y2="172.87"><stop style="stop-color: #ffb500;stop-opacity: 0" offset="0%"></stop><stop style="stop-color: #ff7000;stop-opacity: 1" offset="100%"></stop></linearGradient></defs><g><g><g><use xlink:href="#e1rNCieLNn" opacity="1" fill="url(#gradientf46IMOzzw)"></use><g><use xlink:href="#e1rNCieLNn" opacity="1" fill-opacity="0" stroke="#000000" stroke-width="1" stroke-opacity="0"></use></g></g><g><use xlink:href="#bTyEyZXaG" opacity="1" fill="url(#gradientf2ornNGx9M)"></use><g><use xlink:href="#bTyEyZXaG" opacity="1" fill-opacity="0" stroke="#000000" stroke-width="1" stroke-opacity="0"></use></g></g><g><use xlink:href="#fv3I6OSHv" opacity="1" fill="url(#gradientc1ddXOeae)"></use><g><use xlink:href="#fv3I6OSHv" opacity="1" fill-opacity="0" stroke="#000000" stroke-width="1" stroke-opacity="0"></use></g></g><g><use xlink:href="#cwSs2DFUn" opacity="1" fill="url(#gradientd2IyJPesA)"></use><g><use xlink:href="#cwSs2DFUn" opacity="1" fill-opacity="0" stroke="#000000" stroke-width="1" stroke-opacity="0"></use></g></g><g><use xlink:href="#iLS2vGRDD" opacity="1" fill="url(#gradientb1lhYM9rw)"></use><g><use xlink:href="#iLS2vGRDD" opacity="1" fill-opacity="0" stroke="#000000" stroke-width="1" stroke-opacity="0"></use></g></g><g><use xlink:href="#e1OqyGZ69i" opacity="1" fill="url(#gradientl8WfN7ZQ1)"></use><g><use xlink:href="#e1OqyGZ69i" opacity="1" fill-opacity="0" stroke="#000000" stroke-width="1" stroke-opacity="0"></use></g></g><g><use xlink:href="#dq0SopGHv" opacity="1" fill="url(#gradientc1dHduI8nI)"></use><g><use xlink:href="#dq0SopGHv" opacity="1" fill-opacity="0" stroke="#000000" stroke-width="1" stroke-opacity="0"></use></g></g><g><use xlink:href="#iapKqOP7E" opacity="1" fill="url(#gradientbbMcyflA9)"></use><g><use xlink:href="#iapKqOP7E" opacity="1" fill-opacity="0" stroke="#000000" stroke-width="1" stroke-opacity="0"></use></g></g><g><use xlink:href="#aOPknuJBS" opacity="1" fill="url(#gradientb9nVMLJrN2)"></use><g><use xlink:href="#aOPknuJBS" opacity="1" fill-opacity="0" stroke="#000000" stroke-width="1" stroke-opacity="0"></use></g></g><g><use xlink:href="#bBfxlSg6d" opacity="1" fill="url(#gradientb2DyJcFGz)"></use><g><use xlink:href="#bBfxlSg6d" opacity="1" fill-opacity="0" stroke="#000000" stroke-width="1" stroke-opacity="0"></use></g></g><g><use xlink:href="#e6O4Fu4slw" opacity="1" fill="url(#gradientf1b3LECXlc)"></use><g><use xlink:href="#e6O4Fu4slw" opacity="1" fill-opacity="0" stroke="#000000" stroke-width="1" stroke-opacity="0"></use></g></g><g><use xlink:href="#a2bp5Dhjy" opacity="1" fill="url(#gradientbYfFmIoEm)"></use><g><use xlink:href="#a2bp5Dhjy" opacity="1" fill-opacity="0" stroke="#000000" stroke-width="1" stroke-opacity="0"></use></g></g><g><use xlink:href="#blKqJgT1s" opacity="1" fill="url(#gradienta3pIAgV9zc)"></use><g><use xlink:href="#blKqJgT1s" opacity="1" fill-opacity="0" stroke="#000000" stroke-width="1" stroke-opacity="0"></use></g></g><g><use xlink:href="#b247vrWPq5" opacity="1" fill="url(#gradientcf92G2QlK)"></use><g><use xlink:href="#b247vrWPq5" opacity="1" fill-opacity="0" stroke="#000000" stroke-width="1" stroke-opacity="0"></use></g></g><g><use xlink:href="#ajSK1JB1a" opacity="1" fill="url(#gradientaxQQSRW6M)"></use><g><use xlink:href="#ajSK1JB1a" opacity="1" fill-opacity="0" stroke="#000000" stroke-width="1" stroke-opacity="0"></use></g></g><g><use xlink:href="#btEkkzUTd" opacity="1" fill="url(#gradientg1pvEAmfhN)"></use><g><use xlink:href="#btEkkzUTd" opacity="1" fill-opacity="0" stroke="#000000" stroke-width="1" stroke-opacity="0"></use></g></g><g><use xlink:href="#b6hVTzhQvY" opacity="1" fill="url(#gradientgjO3lR8vJ)"></use><g><use xlink:href="#b6hVTzhQvY" opacity="1" fill-opacity="0" stroke="#000000" stroke-width="1" stroke-opacity="0"></use></g></g><g><use xlink:href="#ahVHoAOZk" opacity="1" fill="url(#gradienta4fBpYqDSR)"></use><g><use xlink:href="#ahVHoAOZk" opacity="1" fill-opacity="0" stroke="#000000" stroke-width="1" stroke-opacity="0"></use></g></g><g><use xlink:href="#a30b2HuXCq" opacity="1" fill="url(#gradientakZVd8aBi)"></use><g><use xlink:href="#a30b2HuXCq" opacity="1" fill-opacity="0" stroke="#000000" stroke-width="1" stroke-opacity="0"></use></g></g><g><use xlink:href="#agb42yscJ" opacity="1" fill="url(#gradientajiB2plXs)"></use><g><use xlink:href="#agb42yscJ" opacity="1" fill-opacity="0" stroke="#000000" stroke-width="1" stroke-opacity="0"></use></g></g><g><use xlink:href="#aio6QcB4Y" opacity="1" fill="url(#gradientbypYiam7h)"></use><g><use xlink:href="#aio6QcB4Y" opacity="1" fill-opacity="0" stroke="#000000" stroke-width="1" stroke-opacity="0"></use></g></g><g><use xlink:href="#a26As2bXKT" opacity="1" fill="url(#gradientd2dOISUoxO)"></use><g><use xlink:href="#a26As2bXKT" opacity="1" fill-opacity="0" stroke="#000000" stroke-width="1" stroke-opacity="0"></use></g></g><g><use xlink:href="#ajIOXIq7X" opacity="1" fill="url(#gradienta1DBQRNUv1)"></use><g><use xlink:href="#ajIOXIq7X" opacity="1" fill-opacity="0" stroke="#000000" stroke-width="1" stroke-opacity="0"></use></g></g><g><use xlink:href="#a1npq2E9zp" opacity="1" fill="url(#gradienta1wITTNZ2x)"></use><g><use xlink:href="#a1npq2E9zp" opacity="1" fill-opacity="0" stroke="#000000" stroke-width="1" stroke-opacity="0"></use></g></g></g></g></svg>