<?xml version="1.0" encoding="utf-8"?>
<!-- Generator: Adobe Illustrator 23.1.0, SVG Export Plug-In . SVG Version: 6.00 Build 0)  -->
<svg version="1.1" xmlns="http://www.w3.org/2000/svg" xmlns:xlink="http://www.w3.org/1999/xlink" x="0px" y="0px"
	 viewBox="0 0 750 480.43" style="enable-background:new 0 0 750 480.43;" xml:space="preserve">
<style type="text/css">
	.st0{fill:#4596CE;}
	.st1{fill:#FFEF2E;}
	.st2{fill:#E5CF00;}
	.st3{fill:#44321F;}
	.st4{fill:#665242;}
	.st5{fill:#352300;}
	.st6{fill:#66574D;}
	.st7{fill:#1E1100;}
	.st8{fill:#7F7F7F;}
	.st9{fill:#4F4C4C;}
	.st10{fill:#DCEEF9;}
	.st11{fill:#CB562D;}
	.st12{fill:#AC4A26;}
	.st13{fill:#D37C30;}
	.st14{fill:#4E343C;}
	.st15{fill:#3C272D;}
	.st16{fill:#DFA534;}
	.st17{fill:#D58431;}
	.st18{fill:#5A5262;}
	.st19{fill:#47414F;}
	.st20{fill:#855358;}
	.st21{fill:#C2787D;}
	.st22{fill:#A5676C;}
	.st23{fill:#A7B3A7;}
	.st24{fill:#B8CCBF;}
	.st25{fill:#91A296;}
	.st26{fill:#8A948B;}
	.st27{fill:#6A726C;}
	.st28{fill:#EBCA46;}
	.st29{fill:#D68631;}
	.st30{fill:#274F00;}
	.st31{fill:#367C00;}
	.st32{fill:#133F00;}
	.st33{fill:#FFFFFF;}
</style>
<g id="OBJECTS">
	<g>
		<rect y="0.55" class="st0" width="750" height="479.88"/>
		
			<ellipse transform="matrix(0.7071 -0.7071 0.7071 0.7071 -101.2104 420.7004)" class="st1" cx="457.23" cy="332.52" rx="63.46" ry="63.46"/>
		
			<ellipse transform="matrix(0.7071 -0.7071 0.7071 0.7071 -102.6121 422.3165)" class="st2" cx="458.48" cy="335.02" rx="45.96" ry="45.96"/>
		<g>
			<path class="st3" d="M575.14,373.36c-11.25-2.5-133.75-46.25-133.75-46.25s-81.25-36.25-98.75-48.75s-50-22.5-65-25
				s-66.25,6.25-86.25,12.5s-66.25,31.25-98.75,45C68.46,321.09,22.13,334.78,0,341.12v39.69l341.39,30.05
				C341.39,410.86,586.39,375.86,575.14,373.36z"/>
			<path class="st4" d="M397.82,320.32c20.61,5.74,37.85,22.72,59.23,23.49c6.37,0.23,12.79-1.07,18.57-3.74
				c0.32-0.15,0.63-0.3,0.94-0.46c-20.07-7.1-35.17-12.5-35.17-12.5s-81.25-36.25-98.75-48.75s-50-22.5-65-25
				c-2.63-0.44-6.4-0.52-10.9-0.34c-0.72,2.22-0.7,4.67,0.2,6.82c2.05,4.87,7.5,7.2,12.44,9.07c7.31,2.76,14.65,5.53,22.28,7.22
				c16.23,3.59,35.32,3.12,46.22,15.66c0.54,0.62,1.06,1.29,1.24,2.08c1.11,4.74-8.59,4.54-9.98,9.21
				c-0.81,2.73,1.81,5.21,4.29,6.62C359.59,318.89,379.91,315.33,397.82,320.32z"/>
			<path class="st5" d="M426.04,386.34c10.69-8.93,18.22-22.68,16.52-36.5c-33.55,4.65-67.31,7.75-101.14,9.29
				c-15.09,0.69-31.33,0.75-43.8-7.77c-5.46-3.73-9.83-8.91-15.36-12.54c-18.3-12.05-42.63-4.22-64.4-6.7
				c-15.48-1.76-30.26-9.17-40.92-20.53c-1.74-1.85-3.44-3.95-3.81-6.46c-0.4-2.69,0.79-5.34,2.07-7.74
				c8.69-16.34,23.02-29.43,39.78-37.24c-9.38,1.89-17.79,3.91-23.57,5.72c-20,6.25-66.25,31.25-98.75,45
				C68.46,321.09,22.13,334.78,0,341.12v39.69l341.39,30.05c0,0,18.67-2.67,45.46-6.58c0.53-0.15,1.07-0.27,1.6-0.42
				C401.87,400.11,415.35,395.27,426.04,386.34z"/>
			<path class="st3" d="M750,355.08c-37-15.77-124.86-57.98-124.86-57.98s-28.75-11.25-45-10s-16.31,6.12-33.75,13.75
				c-16.52,7.23-212.79,84.95-226.67,88.75l139.17,5L750,416.17V355.08z"/>
			<path class="st4" d="M580.14,287.11c-1.3,0.1-2.48,0.23-3.59,0.37c-0.94,0.91-1.75,1.94-2.36,3.1c-0.51,0.97-0.91,2.07-0.67,3.14
				c0.49,2.22,3.22,2.99,5.47,3.29c17.79,2.4,36.52,2.37,52.45,10.64c4.8,2.49,9.84,7.53,7.74,12.51c-2.97-2.1-6.94,2.49-5.69,5.9
				c1.25,3.41,5.06,5.05,8.55,6.08c16.28,4.82,33.63,4.54,50.26,7.99c4.12,0.86,8.31,1.99,11.71,4.48c2.07,1.51,3.78,3.48,5.82,5.04
				c7.34,5.62,17.5,5.18,26.33,7.91c4.82,1.49,9.27,3.95,13.85,6.08v-8.55c-37-15.77-124.86-57.98-124.86-57.98
				S596.39,285.86,580.14,287.11z"/>
			<path class="st5" d="M637.23,366.79c-9.72-1.37-19.9,0.98-29.3-1.85c-12.22-3.67-20.55-15.27-32.37-20.08
				c-25.71-10.47-56.23,14.42-81.62,3.2c-2.25-0.99-4.51-2.39-5.5-4.64c-1-2.26-0.52-4.88,0.2-7.24c1.79-5.88,5.03-11.28,9.26-15.73
				c-63.95,25.48-168.19,66.42-178.17,69.15l139.17,5l223.99,16.59c14.06-5.81,27.67-12.57,39.69-21.81
				c-20.91-0.96-41.65-5.71-60.9-13.93C653.7,372.05,645.82,368,637.23,366.79z"/>
			<path class="st6" d="M741.82,391.57c0.01-0.48,0.02-0.97,0.03-1.45c0.09-2.74,0.01-5.49-0.17-8.22c-0.09-1.44-2.21-1.46-2.25,0
				c-0.06,2.41-0.23,4.81-0.47,7.21c-0.08,0.74-0.2,1.48-0.32,2.23c-1.39-0.1-2.8-0.2-4.22-0.29c-0.07-0.82-0.18-1.61-0.26-2.28
				c-0.11-0.85-1.34-0.91-1.37,0c-0.02,0.73-0.09,1.44-0.17,2.16c-0.41-0.03-0.82-0.05-1.23-0.08c-5.79-0.34-10.83-1.24-15.61-2.45
				c0.56-3.89,0.56-7.91,0.09-11.51c-0.07-0.52-0.91-0.76-1.01-0.14c-0.49,3.19-0.79,6.39-1.44,9.55c-0.1,0.47-0.23,0.92-0.35,1.38
				c-1.03-0.29-2.05-0.58-3.06-0.89c0,0,0-0.02,0-0.03c0.01-0.94,0.14-1.87,0.21-2.8c0.08-1.18-1.68-1.13-1.81,0
				c-0.07,0.66-0.23,1.44-0.32,2.23c-9.86-3.1-19.72-6.94-34.19-9.11c-3.62-0.54-6.87-0.98-9.88-1.34
				c-0.06-0.75-0.12-1.49-0.17-2.22c-0.19-3.34-0.41-6.66-0.83-9.98c-0.09-0.73-1.13-0.77-1.17,0c-0.17,3.33-0.27,6.65-0.42,9.98
				c-0.03,0.64-0.08,1.28-0.13,1.92c-1.86-0.2-3.65-0.37-5.38-0.51c-0.07-1.12-0.25-2.24-0.44-3.26c-0.16-0.86-1.63-0.67-1.53,0.21
				c0.1,0.95,0.05,1.93,0.02,2.9c-12.28-0.9-22.55-0.59-43.82-1.44c-6.63-0.26-11.73-0.98-15.87-1.95c0.08-1.29-0.11-2.63-0.27-3.88
				c-0.12-0.92-1.38-0.96-1.46,0c-0.09,1.04-0.19,2.07-0.41,3.1c-0.02,0.07-0.04,0.14-0.05,0.22c-1.56-0.44-2.97-0.91-4.27-1.41
				c0.23-4.04-0.13-8.09-0.46-12.12c-0.1-1.21-1.91-1.24-1.9,0c0.02,3.33,0.03,6.65-0.23,9.98c-0.03,0.33-0.08,0.67-0.14,1
				c-8.01-3.62-12.23-7.94-24.92-8.68c-12.13-0.71-23.04,1.83-34.13,4.38c-0.58-0.76-1.9-0.43-1.99,0.45
				c-7.69,1.76-15.49,3.42-23.88,3.91c-5.77,0.34-10.89,1.14-15.92,2.28c-0.15-0.94-0.35-1.88-0.49-2.8
				c-0.34-2.11-0.68-4.22-1.07-6.32c-0.14-0.73-1.36-0.56-1.29,0.18c0.2,2.13,0.34,4.27,0.48,6.4c0.07,1.01,0.09,2.04,0.2,3.06
				c-1.13,0.28-2.25,0.56-3.38,0.87c-0.14-0.53-0.22-1.08-0.31-1.63c-0.08-0.51-0.71-0.79-1.17-0.67c-0.55,0.15-0.73,0.66-0.66,1.17
				c0.07,0.53,0.14,1.1,0.27,1.64c-11.1,3.15-23.06,7.6-41.64,12.06c-0.82,0.2-1.61,0.37-2.4,0.54c-0.27-1.26-0.41-2.54-0.38-3.88
				c0.02-0.98-1.47-0.97-1.51,0c-0.07,1.44-0.04,2.88,0.29,4.23c-1.02,0.21-2.03,0.42-3.02,0.61c-0.46-3.45-0.36-6.88,0.82-10.7
				c0.26-0.85-1.02-1.18-1.32-0.36c-1.22,3.36-2.04,7.53-1.82,11.5c-22.14,3.89-37.8,1.2-59.62-1.77c0.14-0.76,0.23-1.54,0.32-2.26
				c0.14-1.19-1.71-1.17-1.86,0c-0.09,0.67-0.25,1.33-0.41,1.99c-2.91-0.39-5.92-0.78-9.07-1.16c-18.26-2.19-33.96-2.69-49.84-4.46
				c0.02-4.04-1.58-9.04-1.73-11.79c-0.04-0.66-1.01-0.66-1.03,0c-0.06,2.62,0.32,5.23,0.52,7.84c0.09,1.24,0.11,2.47,0,3.7
				c-1.19-0.14-2.37-0.29-3.57-0.45c-0.03-1.15-0.19-2.3-0.39-3.34c-0.16-0.85-1.38-0.47-1.27,0.35c0.13,0.95,0.1,1.86,0.03,2.77
				c-8.9-1.25-17.98-3.02-27.73-5.87c-30-8.75-40-5-65-6.25c-0.47-0.02-0.96-0.05-1.44-0.07c0-0.18-0.01-0.37-0.01-0.55
				c-0.04-1.35-2.06-1.35-2.1,0l-0.01,0.45c-1.16-0.06-2.33-0.11-3.53-0.17c-0.02-0.41-0.04-0.81-0.06-1.21
				c-0.08-2.48-0.26-4.94-0.51-7.41c-0.08-0.86-1.35-0.9-1.37,0c-0.04,2.47-0.15,4.94-0.33,7.41c-0.03,0.36-0.07,0.73-0.11,1.09
				c-0.91-0.04-1.84-0.09-2.77-0.13c0.06-0.77,0.1-1.55,0.06-2.33c-0.04-0.69-1.02-0.69-1.07,0c-0.05,0.6-0.25,1.4-0.47,2.26
				c-23.58-1.13-52.4-2.69-70.03-6.84c-6.79-1.6-13.97-2.54-21.2-2.98c-0.18-1.61-0.58-3.18-0.94-4.79
				c-0.29-1.3-2.22-0.74-1.98,0.55c0.27,1.4,0.49,2.79,0.84,4.15c-1.82-0.09-3.63-0.15-5.45-0.17c-0.25-1.37-0.48-2.75-0.6-4.13
				c-0.29-3.57-0.26-7.16-0.41-10.74c-0.05-1.19-1.67-1.13-1.81,0c-0.5,4.25-1.3,9.82-0.91,14.85c-1.22,0.01-2.44,0.02-3.65,0.06
				c0.21-1.94-0.18-3.86-0.68-5.74c-0.25-0.96-1.63-0.54-1.46,0.4c0.33,1.78,0.36,3.58,0.57,5.38c-9.75,0.37-19.14,1.53-27.34,3.17
				c-8.02,1.6-21.76,0.69-34.86-0.88c-0.18-1.37-0.45-2.73-0.56-4.12c-0.09-1.06-1.6-1.08-1.66,0c-0.07,1.28-0.04,2.57,0.04,3.85
				c-0.82-0.1-1.64-0.21-2.45-0.31c0-0.01,0-0.02,0-0.02c-0.1-3.25,0.04-6.52,0.07-9.77c0.01-0.78-1.08-0.73-1.17,0
				c-0.37,2.95-0.99,6.22-1.24,9.47c-5.33-0.73-10.34-1.53-14.56-2.24v126.09h750v-88.19C747.39,392.01,744.64,391.79,741.82,391.57
				z"/>
			<path class="st3" d="M750,411.42c-18.41,1.31-51,4.43-83.61,4.43c-41.25,0-51.25-3.75-85-1.25s-65,6.25-93.75,0
				s-32.5,3.75-55,6.25s-42.5,3.75-75-6.25s-96.25-5-96.25-5l63.2,70.83H750V411.42z"/>
		</g>
		<g>
			<path class="st5" d="M533.89,453.06c-13.33-2.6-29.17-7.81-47.5-5.21s-23.33-0.87-35.83-6.07c-12.5-5.21-22.5-9.54-38.33-11.28
				c-15.83-1.74-54.17-1.74-65-4.34c-10.83-2.6-21.67-9.54-37.5-15.62c-15.83-6.07-54.17-5.21-64.17-6.07
				c-10-0.87-33.33,0-44.17-1.73c-10.83-1.74-52.5,3.47-52.5,3.47s-35-2.6-55.83-6.07c-20.83-3.47-25.83-8.68-45.83-13.88
				C33.35,382.65,11.86,374.03,0,369.09v111.34h610.3C581.79,469.53,542.22,454.69,533.89,453.06z"/>
			<path class="st5" d="M533.89,453.06c-13.33-2.6-29.17-7.81-47.5-5.21s-23.33-0.87-35.83-6.07c-12.5-5.21-22.5-9.54-38.33-11.28
				c-15.83-1.74-54.17-1.74-65-4.34c-10.83-2.6-21.67-9.54-37.5-15.62c-15.83-6.07-54.17-5.21-64.17-6.07
				c-10-0.87-33.33,0-44.17-1.73c-10.83-1.74-52.5,3.47-52.5,3.47s-35-2.6-55.83-6.07c-20.83-3.47-25.83-8.68-45.83-13.88
				C33.35,382.65,11.86,374.03,0,369.09v111.34h610.3C581.79,469.53,542.22,454.69,533.89,453.06z"/>
			<path class="st4" d="M31.19,389.8c31.02,16.1,67.47,21.38,101.83,15.07c-11.94-1.09-28.21-2.78-39.96-4.73
				c-20.83-3.47-25.83-8.68-45.83-13.88C33.35,382.65,11.86,374.03,0,369.09v10.12C10.37,378.5,21.4,384.72,31.19,389.8z"/>
			<path class="st4" d="M533.89,453.06c-13.33-2.6-29.17-7.81-47.5-5.21s-23.33-0.87-35.83-6.07c-12.5-5.21-22.5-9.54-38.33-11.28
				c-15.83-1.74-54.17-1.74-65-4.34c-10.83-2.6-21.67-9.54-37.5-15.62c-12.54-4.81-39.16-5.27-54.68-5.68
				c23.39,7.32,46.77,14.65,70.16,21.97c14.06,4.4,28.3,8.84,43.01,9.59c15.58,0.79,31.48-2.56,46.65,1.06
				c12.64,3.01,23.7,10.63,36.01,14.8c15.27,5.18,31.76,4.85,47.87,5.6c28.33,1.33,56.29,6.18,84.06,12.13
				C560.87,461.82,539.72,454.2,533.89,453.06z"/>
			<path class="st7" d="M235.52,467.08c3.04-9.04,3.75-18.68,4.43-28.2c0.39-5.49,0.76-11.15-1-16.36
				c-1.77-5.21-6.24-9.91-11.73-10.19c-7.24-0.37-12.46,6.4-17.83,11.28c-5.46,4.95-14.56,10.31-21.92,11.26
				c-14.95,1.94-10.61-10.22-9.55-20.83c-4-4.17-10.38-5.32-16.07-4.3c-5.69,1.02-10.84,3.9-15.81,6.86
				c-21.61,12.88-41.84,28.07-60.24,45.22c-5.39,5.03-11.02,11.55-10.64,18.61h153.31C231.57,476.47,233.92,471.85,235.52,467.08z"
				/>
			<path class="st7" d="M316.41,462.37c-75.54-5.04-151.67-1.86-226.75-11.58c-13.8-1.79-27.75-4.07-40.34-10.01
				C32.71,432.94,17.21,418.62,0,416.06v64.37h452.14C407.36,471.46,361.99,465.41,316.41,462.37z"/>
			<path class="st7" d="M361.82,448.12c-2.14-0.08-4.33-0.15-6.39,0.46c-2.06,0.61-3.99,2.05-4.63,4.1
				c-0.57,1.85,0.01,3.91,1.15,5.48c1.14,1.56,2.78,2.69,4.47,3.62c9.32,5.12,21.09,4.92,30.75,0.46c1.74-0.8,3.46-1.77,4.67-3.25
				c1.21-1.49,1.81-3.59,1.08-5.36c-0.69-1.68-2.37-2.71-4-3.51C382.5,446.95,368.97,448.38,361.82,448.12z"/>
			<g>
				<path class="st8" d="M378.93,458.52c5.35-1.07,16.66-3.47,12.74-11.33c-0.79-1.58-1.57-3.16-2.36-4.74
					c-4.54-9.1-17.69-12.55-26.37-6.62c-4.4,3.01-6.82,11.37-5.06,16.21c4.47,3,9.53,5.12,14.8,6.2
					C374.74,458.66,376.87,458.93,378.93,458.52z"/>
				<path class="st9" d="M370.14,447.93c-4.45-2.63-8.18-8.1-6-12.8c0-0.01,0.01-0.02,0.02-0.03c-0.41,0.23-0.82,0.46-1.22,0.73
					c-4.4,3.01-6.82,11.37-5.06,16.21c4.47,3,9.53,5.12,14.8,6.2c2.05,0.42,4.18,0.68,6.25,0.27c4.96-1,15.05-3.14,13.35-9.72
					c-2.25,0.89-4.55,1.64-6.94,2.02C380.15,451.65,374.67,450.61,370.14,447.93z"/>
			</g>
			<path class="st7" d="M80.35,435.55c0.49-0.6,0.86-1.28,1.2-1.97c0.87-1.75,1.6-3.81,0.86-5.61c-0.46-1.12-1.42-1.94-2.35-2.72
				c-1.73-1.45-3.49-2.93-5.59-3.74c-1.97-0.76-4.12-0.91-6.22-1.04c-2.98-0.19-6.12-0.35-8.81,0.96c-3.61,1.75-5.6,5.83-5.99,9.82
				c-0.05,0.46-0.07,0.93,0.06,1.38c0.2,0.7,0.76,1.25,1.31,1.72c5.81,4.98,14.38,6.49,21.54,3.79
				C77.85,437.57,79.33,436.8,80.35,435.55z"/>
			<g>
				<path class="st8" d="M68.28,412.18c-1.18,0.01-2.38,0.02-3.48,0.43c-2.15,0.82-3.45,2.98-4.47,5.05
					c-5.72,11.66,4.99,13.08,14.49,14.58c9.69,1.53,9.96-2.82,8.1-10.5c-0.5-2.05-1.03-4.18-2.34-5.83
					C77.82,412.44,72.73,412.16,68.28,412.18z"/>
				<path class="st9" d="M78.08,428.21c-1.28-0.47-2.49-1.17-3.82-1.45c-0.96-0.2-1.95-0.18-2.91-0.37c-3.32-0.66-5.78-3.9-6-7.28
					c-0.16-2.5,0.79-4.96,2.36-6.92c-0.99,0.01-1.99,0.08-2.92,0.43c-2.15,0.82-3.45,2.98-4.47,5.05
					c-5.72,11.66,4.99,13.08,14.49,14.58c6.07,0.96,8.44-0.39,8.91-3.42C81.84,429.07,79.88,428.88,78.08,428.21z"/>
			</g>
			<path class="st7" d="M348.43,454.22c0.23-0.4,0.37-0.84,0.51-1.28c0.33-1.11,0.56-2.39-0.06-3.38c-0.38-0.61-1.03-1-1.65-1.36
				c-1.16-0.68-2.34-1.37-3.65-1.64c-1.23-0.25-2.51-0.12-3.76,0.01c-1.77,0.19-3.63,0.4-5.08,1.44c-1.94,1.38-2.71,3.98-2.54,6.36
				c0.02,0.27,0.05,0.55,0.17,0.8c0.19,0.39,0.57,0.66,0.94,0.88c3.9,2.34,9.08,2.38,13.02,0.08
				C347.17,455.65,347.96,455.05,348.43,454.22z"/>
			<g>
				<path class="st8" d="M339.03,441.7c-0.69,0.12-1.4,0.25-2,0.6c-1.18,0.69-1.73,2.09-2.12,3.41c-2.2,7.41,4.23,7.18,9.95,7.12
					c5.84-0.07,5.57-2.65,3.71-6.96c-0.5-1.15-1.02-2.35-1.96-3.19C344.65,440.9,341.63,441.25,339.03,441.7z"/>
				<path class="st9" d="M346.37,450.14c-0.8-0.15-1.58-0.44-2.39-0.47c-0.58-0.02-1.16,0.09-1.74,0.07
					c-2.01-0.06-3.78-1.72-4.24-3.68c-0.34-1.45-0.03-2.99,0.7-4.29c-0.58,0.11-1.16,0.24-1.67,0.54c-1.18,0.69-1.73,2.09-2.12,3.41
					c-2.2,7.41,4.23,7.18,9.95,7.12c3.65-0.04,4.91-1.07,4.89-2.89C348.66,450.27,347.49,450.35,346.37,450.14z"/>
			</g>
		</g>
		<path class="st10" d="M276.07,188.15c-10.82-0.32-20.76-7.29-31.58-6.83c-5.43,0.23-10.58,2.34-15.61,4.42
			c-10.51,4.35-21.03,8.7-31.54,13.06c-5.24,2.17-11.55,7.45-8.36,12.13c1.05,1.53,2.87,2.32,4.63,2.91
			c16.33,5.46,34.23,0.3,51.35,2.12c9.27,0.99,18.18,4.01,27.25,6.19c35.15,8.43,72.07,3.95,107.54-2.97
			c6.39-1.25,14.51-4.92,13.38-11.33c-0.59-3.39-3.81-5.71-7.05-6.87c-9.64-3.44-20.48,0.33-30.48-1.81
			c-9.94-2.12-17.71-9.72-26.94-13.96c-7.79-3.59-16.7-4.72-25.14-3.2C294.26,183.68,285.48,188.43,276.07,188.15z"/>
		<g>
			<path class="st11" d="M176.81,182.11c0,0-11.25-14.17-5.42-27.29c0,0-2.92,0.63-2.92-1.88s7.71-5.42,7.71-5.42
				s5.63-11.25,9.17-12.5c3.54-1.25,2.92,3.13,2.92,3.13s13.75-8.96,22.08-7.71c8.33,1.25,1.04,9.79,1.04,9.79s7.92-1.67,9.38,0.63
				c1.46,2.29-5.83,10.63-5.83,10.63s8.54,18.13-3.33,33.96C199.73,201.27,176.81,182.11,176.81,182.11z"/>
			<path class="st12" d="M217.07,158.36c-0.58,1.96-1.38,3.83-2.88,5.17c-2.07,1.86-5.93,1.96-7.24-0.5
				c-2.27,3.59-5.44,6.81-9.46,8.17c-4.03,1.36-8.98,0.48-11.62-2.86c-2.35-2.97-2.45-7.12-1.96-10.87
				c-1.73,1.49-4.64,1.31-6.17-0.38c-1.53-1.69-1.42-4.61,0.24-6.18c-1.03,0.18-2.08,0.35-3.1,0.15c-1.02-0.2-2.02-0.88-2.29-1.88
				c0-0.01,0-0.02,0-0.03c-2.01,1.06-4.11,2.47-4.11,3.78c0,2.5,2.92,1.88,2.92,1.88c-5.83,13.13,5.42,27.29,5.42,27.29
				s22.92,19.17,34.79,3.33C218.91,175.69,218.48,165.08,217.07,158.36z"/>
			<path class="st13" d="M220.77,140.86c-1.46-2.29-9.38-0.63-9.38-0.63s7.29-8.54-1.04-9.79c-8.33-1.25-22.08,7.71-22.08,7.71
				s0.63-4.38-2.92-3.13c-1.6,0.57-3.63,3.18-5.38,5.88c0.71-0.63,1.49-1.15,2.4-1.45c2.16-0.72,5.08,0.45,5.26,2.72
				c5-3.09,10.38-5.57,15.97-7.4c1.64-0.53,3.55-0.98,4.99-0.04c1.26,0.82,1.74,2.49,1.55,3.98c-0.19,1.49-0.92,2.85-1.64,4.17
				c2.61-1.27,6-0.75,8.1,1.25c0.83,0.79,1.43,1.79,1.8,2.88C220.04,144.65,221.49,142,220.77,140.86z"/>
			<path class="st11" d="M158.74,389.92c-2.34,0.23-4.84,2.34-4.38,5.63s2.34,3.59,2.97,5s-0.47,15.31,0.78,17.66
				c1.25,2.34,15.94,1.25,20.47,0c3.67-1.01,9.84-3.59,7.5-9.38c-1.64-4.05-9.08-5.57-13.13-3.13c0,0-0.47-4.53-0.47-5.31
				s3.44-1.25,3.44-3.75S178.11,388.04,158.74,389.92z"/>
			<path class="st11" d="M213.25,388.64c-2.29,0.51-4.52,2.93-3.64,6.12c0.87,3.2,2.77,3.27,3.57,4.59s1.44,15.25,2.97,17.42
				c1.53,2.17,15.38,0.5,19.72-1.3c3.51-1.46,9.27-5.24,6.62-10.09c-2.1-3.83-8.91-4.53-13.16-2.86c0,0-1.03-4.44-1.13-5.21
				c-0.1-0.78,3.26-1.67,2.95-4.15C230.83,390.69,232.25,384.37,213.25,388.64z"/>
			<path class="st14" d="M158.89,291.17c0,0-3.44,97.5-0.94,101.25s13.44,4.06,15.31,1.25s18.75-70.63,20.31-72.5
				s3.13-0.63,4.06,3.75s15,64.06,16.88,66.25s11.56,2.19,13.13-1.56s1.56-104.38,0.31-106.88S158.89,291.17,158.89,291.17z"/>
			<path class="st15" d="M158.89,291.17c0,0-0.31,8.78-0.68,21.18c11.08,0.47,22.21-0.6,32.92-3.45
				c13.66-3.63,26.59-10.18,37.29-19.4c-0.03-0.88-0.06-1.68-0.09-2.4l-14.11-3.84C194.07,285.49,158.89,291.17,158.89,291.17z"/>
			<path class="st16" d="M154.73,205.65c0,0-11.46,33.33-13.54,43.54c-2.08,10.21,9.38,28.13,9.38,28.13l14.17-38.75l3.13-32.5
				L154.73,205.65z"/>
			<path class="st17" d="M159.31,205.23c0,0-11.46,33.33-13.54,43.54c-2.08,10.21,9.38,28.13,9.38,28.13l14.17-38.75l3.13-32.5
				L159.31,205.23z"/>
			<path class="st18" d="M151.86,263.51c0,0-4.38-1.25-6.72,0.31s-4.69,18.44-1.09,22.97s13.13,4.69,13.13,4.69l1.09-18.75
				L151.86,263.51z"/>
			<path class="st19" d="M142.25,279.95c0.16,2.91,0.7,5.45,1.8,6.84c3.59,4.53,13.13,4.69,13.13,4.69l1.09-18.75l-3.93-5.65
				l-3.78-0.59C150.68,272.06,147.29,277.56,142.25,279.95z"/>
			<path class="st16" d="M231.18,205.23c0,0,13.33,34.38,14.38,43.54c1.04,9.17-13.33,26.88-13.33,26.88l-16.25-38.33l0.21-25.83
				L231.18,205.23z"/>
			<path class="st17" d="M224.93,203.56c0,0,13.33,34.38,14.38,43.54c1.04,9.17-13.33,26.88-13.33,26.88l-16.25-38.33l0.21-25.83
				L224.93,203.56z"/>
			<path class="st20" d="M210.14,294.45c6.88-0.94,20.47-6.09,23.59-10s-4.22-49.84-7.5-54.69s-20.94,10.47-20.94,10.47l1.56,16.09
				l2.03,14.38L210.14,294.45z"/>
			<path class="st18" d="M217.33,259.92c2.44-3.05,13.12-5.31,15.47-3.59c2.34,1.72,3.75,23.91,0.94,28.13s-15.62,8.91-17.34,8.44
				S215.45,262.26,217.33,259.92z"/>
			<path class="st21" d="M154.72,241.64c0,0-13.03,31.88-5.18,46.72c7.85,14.84,66,11.72,68.66,1.09
				c2.66-10.63-3.69-44.69-3.69-44.69l-12.57-6.25l-26.76-0.16L154.72,241.64z"/>
			<path class="st22" d="M214.52,244.76l-10.8-5.37c1.75,10.06,3.35,27.28-3.57,37.3c-4.83,7-35.46,11.07-52.59,5.59
				c0.4,2.22,1.04,4.27,1.99,6.08c7.85,14.84,66,11.72,68.66,1.09C220.87,278.82,214.52,244.76,214.52,244.76z"/>
			<path class="st20" d="M226.08,208.2c0,0,1.72,14.79,1.72,23.28c0,12.03-7.97,13.59-14.84,15.63
				c-4.56,1.35-12.66-22.81-12.66-22.81l5.31-16.09l9.22-2.97L226.08,208.2z"/>
			<path class="st21" d="M159.67,206.32c0,0-13.59,19.84-8.28,33.59s58.44,10.63,63.44,6.09s-3.75-28.44-1.56-37.97
				S159.67,206.32,159.67,206.32z"/>
			<path class="st22" d="M213.27,208.04c0.66-2.88-3.96-4.17-10.74-4.58c-0.19,9.65,2.85,22.64-3.64,28.43
				c-3.88,3.46-32.84,8.81-48.38,4.81c0.2,1.1,0.48,2.17,0.88,3.21c5.31,13.75,58.44,10.63,63.44,6.09S211.08,217.57,213.27,208.04z
				"/>
			<path class="st23" d="M225.14,182.94c-15.63-0.42-56.82-4.12-72.92-5.63c-6.67-0.63-12.19,21.44-4.79,27.08
				c15.83,12.08,70.23,8.2,78.36,5.9L225.14,182.94z"/>
			<path class="st24" d="M148.63,179.66c16.1,1.51,57.29,5.21,72.92,5.63l0.61,25.72c1.59-0.24,2.84-0.48,3.63-0.7l-0.65-27.36
				c-15.63-0.42-56.82-4.12-72.92-5.63c-1.43-0.13-2.81,0.78-4.02,2.35C148.35,179.66,148.49,179.64,148.63,179.66z"/>
			<path class="st25" d="M225.14,182.94c-0.31-0.01-0.64-0.02-0.97-0.03l0.37,15.67c-8.14,2.3-62.53,6.18-78.36-5.9
				c-0.8-0.61-1.44-1.42-1.95-2.36c-0.84,5.64-0.14,11.53,3.2,14.08c15.83,12.08,70.23,8.2,78.36,5.9L225.14,182.94z"/>
			<path class="st26" d="M225.14,182.94c-9.83,0.7-12.29,19.38-8.33,23.96c3.96,4.58,14.58,5.63,18.13-3.54
				C238.48,194.19,236.81,182.11,225.14,182.94z"/>
			<path class="st27" d="M230.79,190.19c-4.14-3.16-10.03,0.45-11.4,4.8c-1.21,3.85,1.06,11.74,6.61,9.99
				c2.28-0.72,3.79-2.15,4.36-4.48c0.4-1.61-0.1-4.1-1.74-4.92c-3.67-1.82-8.18,3.23-4.18,5.41c1.24,0.67,2.12-1.02,1.07-1.83
				c-0.74-1.13-0.03-1.59,2.13-1.38c0.78,0.61,0.6,1.91,0.43,2.71c-0.58,2.68-3.72,3.14-5.61,1.51c-3.42-2.95-1.25-8.21,1.89-10.28
				c6.19-4.08,9.17,5.28,9.04,9.61c-0.25,8.4-11.07,10.15-15.71,4.14c-4.4-5.7-1.91-16.88,3.87-20.9c0.34-0.24,0.05-0.75-0.33-0.56
				c-4.87,2.6-7.02,9.6-7.01,14.71c0.01,5.95,3.79,11.31,9.83,12.12C235.53,212.38,238.68,196.21,230.79,190.19z"/>
			<path class="st20" d="M214.64,245.5c-5.15,1.75-9.92,2.74-15.4,2.79c-5.58,0.05-11.13-0.18-16.71,0.02
				c-9.64,0.34-21.47,1.13-29.23-5.78c-0.22-0.2-0.63,0.07-0.44,0.34c5.38,7.75,17.9,7.4,26.14,7.21c6.4-0.15,12.76-0.19,19.16-0.1
				c5.62,0.08,12.12-0.1,17.01-3.21C215.82,246.36,215.42,245.24,214.64,245.5z"/>
			<path class="st18" d="M177.17,238.04c1.3-3.17,7.19-2.19,8.75,1.25s0.31,16.09,0.16,20c-0.16,3.91-8.44,3.13-10.16,0.63
				S176.08,240.7,177.17,238.04z"/>
			<path class="st16" d="M180.3,253.36c-3.73-0.45-3.44,5.16-0.47,5.47S184.2,253.82,180.3,253.36z"/>
			<path class="st16" d="M181.08,240.07c-3.73-0.45-3.44,5.16-0.47,5.47S184.99,240.54,181.08,240.07z"/>
			<path class="st19" d="M233.74,284.45c0.21-0.32,0.39-0.74,0.56-1.24c-1.69-0.15-3.35-0.64-4.83-1.45
				c-4.25-2.34-6.98-6.88-8.03-11.62c-0.92-4.16-0.68-8.48-0.02-12.71c-1.82,0.69-3.34,1.55-4.09,2.49
				c-1.88,2.34-2.66,32.5-0.94,32.97S230.92,288.67,233.74,284.45z"/>
			<path class="st28" d="M181.91,241.27c-0.38-0.67-1.57-0.84-2.13-0.29c-0.13,0.13-0.09,0.34,0.06,0.44
				c0.26,0.16,0.53,0.18,0.82,0.26c0.32,0.1,0.54,0.24,0.88,0.23C181.87,241.9,182.08,241.55,181.91,241.27z"/>
			<path class="st28" d="M182.62,242.4c-0.01-0.11-0.06-0.24-0.17-0.29c-0.05-0.02-0.1-0.05-0.16-0.07
				c-0.2-0.09-0.45,0.06-0.38,0.29c0.03,0.11,0.06,0.22,0.11,0.33c0.12,0.3,0.63,0.29,0.6-0.08
				C182.63,242.52,182.63,242.46,182.62,242.4z"/>
			<path class="st28" d="M179.34,254.46c-0.26,0.12-0.21,0.6,0.08,0.64c0.3,0.05,0.6,0.05,0.9,0.13c0.3,0.08,0.5,0.32,0.8,0.4
				c0.3,0.07,0.6-0.2,0.51-0.51C181.38,254.21,180.07,254.11,179.34,254.46z"/>
			<path class="st28" d="M181.94,256.65c-0.09-0.18-0.39-0.18-0.47,0c-0.14,0.29-0.15,0.38-0.07,0.69c0.07,0.31,0.55,0.31,0.62,0
				C182.09,257.03,182.08,256.94,181.94,256.65z"/>
			<path class="st29" d="M169.2,400.06c-3.31,0.79-6.03,0.98-9.39,0.26c-0.35-0.07-0.61,0.43-0.26,0.61
				c2.55,1.27,7.77,1.9,10.03-0.22C169.88,400.44,169.57,399.97,169.2,400.06z"/>
			<path class="st29" d="M225.65,397.11c-3.78,1.23-6.86,2.55-10.93,2.05c-0.21-0.03-0.31,0.28-0.17,0.41
				c1.21,1.14,3.53,0.85,5.01,0.62c2.13-0.33,4.87-0.83,6.5-2.36C226.37,397.54,226.06,396.98,225.65,397.11z"/>
			<path class="st29" d="M238.42,404.84c-0.86-1.1-2.2-2.35-3.62-2.58c-0.3-0.05-0.46,0.31-0.21,0.49c1.16,0.84,2.17,1.53,3.04,2.7
				c0.71,0.95,1.1,2.47,2,3.21c0.27,0.22,0.74,0.1,0.73-0.3C240.34,407.12,239.15,405.78,238.42,404.84z"/>
			<path class="st29" d="M183.39,411.49c-0.59-1.27-1.65-2.42-2.55-3.49c-0.92-1.09-1.94-2.11-3.1-2.94
				c-0.18-0.13-0.37,0.15-0.23,0.3c1.04,1.12,2.05,2.22,2.97,3.44c0.78,1.03,1.4,2.23,2.3,3.16
				C183.11,412.29,183.57,411.87,183.39,411.49z"/>
		</g>
	</g>
	<g id="Layer_5">
		<path class="st30" d="M485.79,380.87c1.54,0.07,3.1-0.34,4.48-1.18c-2.73,4.37-5.46,8.74-8.2,13.12c1.38-0.43,2.76-0.86,4.13-1.3
			c-1.55,5.48-3.76,10.68-6.54,15.39c1.48-0.23,2.97-0.46,4.45-0.7c-1.59,4.76-3.42,9.41-5.48,13.9c8.95,1.98,18.02,3.17,27.11,3.57
			c-2.45-4.53-4.12-9.66-4.88-14.99c0.91,1.25,2.41,1.83,3.75,1.43c-2.34-6.17-4.68-12.33-7.02-18.5c1.37,0.33,2.75,0.65,4.12,0.98
			c-1.92-4.37-4.04-8.62-6.33-12.72c1.29,0.2,2.58,0.4,3.87,0.61c-2.05-3.14-4.09-6.28-6.14-9.41
			C490.67,374.32,488.23,377.6,485.79,380.87z"/>
		<path class="st30" d="M644.08,397.44c1.2,0.05,2.41-0.27,3.49-0.92c-2.13,3.4-4.25,6.8-6.38,10.21c1.07-0.34,2.14-0.67,3.22-1.01
			c-1.2,4.26-2.92,8.31-5.09,11.98c1.15-0.18,2.31-0.36,3.46-0.54c-1.23,3.71-2.66,7.32-4.27,10.81c6.96,1.54,14.02,2.47,21.1,2.78
			c-1.91-3.52-3.21-7.52-3.8-11.67c0.71,0.97,1.88,1.42,2.92,1.11c-1.82-4.8-3.64-9.6-5.46-14.4c1.07,0.25,2.14,0.51,3.21,0.76
			c-1.49-3.4-3.14-6.71-4.93-9.9c1,0.16,2.01,0.32,3.01,0.47c-1.59-2.44-3.18-4.88-4.77-7.33
			C647.88,392.35,645.98,394.89,644.08,397.44z"/>
		<path class="st30" d="M688.34,389.97c1.43-0.25,2.78-0.93,3.88-1.97c-1.64,4.56-3.28,9.12-4.92,13.67
			c1.18-0.67,2.36-1.34,3.54-2.01c-0.33,5.34-1.33,10.56-2.95,15.43c1.32-0.51,2.63-1.02,3.95-1.52c-0.51,4.69-1.27,9.32-2.27,13.85
			c8.61,0.04,17.18-0.67,25.6-2.11c-3.15-3.67-5.71-8.06-7.47-12.8c1.08,0.97,2.58,1.2,3.73,0.57c-3.37-5.2-6.75-10.4-10.12-15.6
			c1.33,0.03,2.65,0.05,3.98,0.08c-2.63-3.63-5.42-7.12-8.34-10.42c1.22-0.07,2.45-0.14,3.67-0.21c-2.5-2.48-5-4.95-7.51-7.43
			C691.52,382.99,689.93,386.48,688.34,389.97z"/>
		<path class="st30" d="M715.92,397.01c1.06,0.05,2.13-0.24,3.07-0.81c-1.87,3-3.75,6-5.62,9c0.95-0.3,1.89-0.59,2.84-0.89
			c-1.06,3.76-2.58,7.33-4.49,10.56c1.02-0.16,2.04-0.32,3.05-0.48c-1.09,3.27-2.34,6.45-3.76,9.53c6.14,1.36,12.36,2.18,18.6,2.45
			c-1.68-3.11-2.83-6.63-3.35-10.29c0.62,0.86,1.65,1.25,2.57,0.98c-1.6-4.23-3.21-8.46-4.81-12.69c0.94,0.22,1.89,0.45,2.83,0.67
			c-1.32-3-2.77-5.91-4.34-8.73c0.88,0.14,1.77,0.28,2.65,0.42c-1.4-2.15-2.81-4.31-4.21-6.46
			C719.27,392.52,717.59,394.77,715.92,397.01z"/>
		<path class="st30" d="M461.55,391.18c1.04-0.02,2.08-0.36,2.99-0.98c-1.72,3.06-3.44,6.12-5.16,9.19c0.92-0.35,1.84-0.7,2.75-1.04
			c-0.89,3.76-2.24,7.36-3.99,10.65c0.99-0.22,1.99-0.43,2.98-0.65c-0.94,3.28-2.04,6.49-3.31,9.6c6.09,0.97,12.25,1.4,18.39,1.3
			c-1.78-2.95-3.05-6.35-3.72-9.92c0.65,0.81,1.68,1.13,2.57,0.81c-1.75-4.07-3.5-8.13-5.25-12.2c0.94,0.16,1.87,0.33,2.81,0.49
			c-1.42-2.87-2.96-5.65-4.63-8.33c0.88,0.08,1.75,0.17,2.63,0.25c-1.47-2.03-2.94-4.07-4.4-6.1
			C464.66,386.56,463.1,388.87,461.55,391.18z"/>
		<path class="st30" d="M370.1,399.9c1.12-0.01,2.23-0.34,3.2-0.96c-1.83,3.05-3.66,6.1-5.49,9.15c0.98-0.34,1.96-0.68,2.95-1.02
			c-0.93,3.75-2.36,7.35-4.22,10.62c1.07-0.21,2.13-0.42,3.2-0.63c-0.99,3.27-2.15,6.47-3.5,9.58c6.54,1.01,13.14,1.49,19.74,1.43
			c-1.92-2.97-3.31-6.37-4.04-9.94c0.7,0.81,1.81,1.14,2.76,0.83c-1.9-4.08-3.8-8.15-5.71-12.23c1.01,0.17,2.01,0.34,3.02,0.51
			c-1.54-2.88-3.21-5.67-5.01-8.36c0.94,0.09,1.88,0.18,2.82,0.27c-1.59-2.04-3.17-4.09-4.76-6.13
			C373.41,395.31,371.76,397.6,370.1,399.9z"/>
		<path class="st30" d="M338.61,398.87c0.89-0.18,1.72-0.63,2.39-1.29c-0.95,2.86-1.9,5.72-2.85,8.59c0.73-0.44,1.45-0.87,2.18-1.31
			c-0.12,3.32-0.66,6.59-1.59,9.65c0.81-0.34,1.63-0.68,2.44-1.02c-0.24,2.92-0.64,5.82-1.2,8.65c5.37-0.13,10.71-0.71,15.94-1.75
			c-2.02-2.23-3.69-4.91-4.86-7.83c0.69,0.58,1.63,0.7,2.34,0.29c-2.19-3.17-4.38-6.35-6.57-9.52c0.83-0.01,1.66-0.01,2.49-0.02
			c-1.7-2.21-3.5-4.33-5.37-6.34c0.76-0.06,1.53-0.13,2.29-0.19c-1.6-1.5-3.2-2.99-4.8-4.49
			C340.48,394.48,339.54,396.67,338.61,398.87z"/>
		<path class="st30" d="M565.9,387.56c1.21,0.13,2.45-0.11,3.58-0.7c-2.36,3.28-4.73,6.56-7.09,9.84c1.1-0.27,2.21-0.54,3.31-0.8
			c-1.49,4.2-3.49,8.16-5.91,11.7c1.18-0.11,2.35-0.21,3.53-0.32c-1.48,3.64-3.16,7.18-5,10.58c6.93,2,13.98,3.39,21.1,4.17
			c-1.69-3.66-2.75-7.76-3.08-11.97c0.65,1.02,1.8,1.55,2.87,1.31c-1.53-4.94-3.05-9.88-4.58-14.82c1.06,0.32,2.13,0.65,3.19,0.97
			c-1.29-3.52-2.73-6.94-4.33-10.27c1,0.22,2,0.45,3,0.67c-1.45-2.56-2.89-5.11-4.34-7.67C570.07,382.69,567.99,385.12,565.9,387.56
			z"/>
		<path class="st30" d="M541.58,380.53c1.61,0.04,3.23-0.42,4.66-1.32c-2.76,4.61-5.53,9.22-8.29,13.82
			c1.43-0.48,2.86-0.96,4.29-1.44c-1.5,5.74-3.7,11.2-6.52,16.16c1.55-0.27,3.09-0.55,4.64-0.82c-1.56,4.99-3.37,9.86-5.44,14.58
			c9.4,1.87,18.9,2.92,28.41,3.15c-2.65-4.66-4.51-9.97-5.42-15.5c0.98,1.28,2.56,1.85,3.95,1.41c-2.58-6.37-5.15-12.74-7.73-19.11
			c1.44,0.31,2.89,0.62,4.33,0.93c-2.1-4.51-4.4-8.89-6.89-13.11c1.35,0.18,2.7,0.37,4.05,0.55c-2.2-3.22-4.41-6.45-6.61-9.67
			C546.54,373.62,544.06,377.08,541.58,380.53z"/>
		<path class="st30" d="M587.84,396.45c0.9,0,1.8-0.28,2.59-0.81c-1.48,2.62-2.95,5.23-4.43,7.85c0.79-0.29,1.59-0.58,2.38-0.87
			c-0.75,3.23-1.91,6.32-3.41,9.13c0.86-0.18,1.72-0.35,2.58-0.53c-0.8,2.81-1.74,5.57-2.83,8.23c5.28,0.91,10.61,1.35,15.93,1.34
			c-1.55-2.57-2.67-5.51-3.26-8.59c0.56,0.7,1.46,1,2.23,0.73c-1.53-3.52-3.07-7.05-4.6-10.57c0.81,0.15,1.62,0.3,2.44,0.46
			c-1.24-2.49-2.59-4.91-4.04-7.23c0.76,0.08,1.52,0.17,2.28,0.25c-1.28-1.77-2.56-3.54-3.84-5.31
			C590.51,392.52,589.18,394.48,587.84,396.45z"/>
		<path class="st30" d="M418.51,401.76c0.9,0,1.8-0.28,2.58-0.81c-1.48,2.62-2.95,5.23-4.43,7.85c0.79-0.29,1.59-0.58,2.38-0.87
			c-0.75,3.23-1.91,6.32-3.41,9.13c0.86-0.18,1.72-0.35,2.58-0.53c-0.8,2.81-1.74,5.57-2.83,8.23c5.28,0.91,10.61,1.35,15.93,1.34
			c-1.55-2.57-2.67-5.51-3.26-8.59c0.56,0.7,1.46,1,2.23,0.73c-1.53-3.52-3.07-7.05-4.6-10.57c0.81,0.15,1.62,0.3,2.44,0.45
			c-1.24-2.49-2.59-4.91-4.04-7.23c0.76,0.08,1.52,0.17,2.28,0.25c-1.28-1.77-2.56-3.54-3.84-5.31
			C421.18,397.82,419.84,399.79,418.51,401.76z"/>
	</g>
	<g id="Layer_6">
		<path class="st31" d="M418.95,464.41c3.91,0.07,7.77,1.85,10.36,4.78c0.1-5.16,2.84-10.19,7.11-13.08
			c-0.04,4.18-1.35,8.35-3.73,11.79c1.64-0.6,3.42-0.82,5.15-0.64c-0.02,0.4-0.05,0.79-0.07,1.19c-2.89,2.44-6.43,5-10.1,4.11
			c-2.61-0.63-4.48-2.86-6.16-4.95C420.65,466.54,419.8,465.47,418.95,464.41z"/>
		<path class="st31" d="M22.14,408.38c2.7,1.2,5.25,2.74,7.57,4.58c-0.55-3.75,1.04-7.73,4.01-10.08c0.29,3.62,0.58,7.23,0.86,10.85
			c1.85-1.57,4.11-2.66,6.49-3.15c0.22,0.6-0.13,1.24-0.48,1.78c-2.01,3.14-4.55,6.6-8.26,6.88c-1.58,0.12-3.16-0.4-4.53-1.2
			C24.44,416.06,22.22,412.27,22.14,408.38z"/>
		<path class="st31" d="M247.48,450c-1.41-1.86-2.53-3.93-3.32-6.13c3.4-0.88,6.65,1.67,9.24,4.05c0.34-6.12,2.17-12.16,5.27-17.44
			c1.67,5.96,2.17,12.24,1.48,18.39c1.6-1.67,3.81-2.74,6.12-2.97c0.1,2.1-1.34,3.94-2.89,5.36c-2.36,2.17-5.41,3.94-8.6,3.59
			C251.79,454.53,249.29,452.39,247.48,450z"/>
		<path class="st31" d="M292.86,412.11c-4.41-5.43-8.82-10.86-13.24-16.3c6.99,1.75,13.48,5.46,18.53,10.6
			c2.79-9.21,10.66-16.7,20-19.01c-3.1,5.8-5.46,11.99-7.03,18.38c3.47-3.07,9.14-3.26,12.82-0.45c-5.67,3.78-11.63,7.15-17.8,10.05
			c-2.25,1.06-4.72,2.08-7.15,1.54C296.41,416.35,294.53,414.17,292.86,412.11z"/>
		<path class="st31" d="M416.82,429.56c4.94-6.18,14.31-8.31,21.43-4.87c-7.48,1.77-14.52,5.37-20.34,10.39
			c-1.03,0.05-2.05,0.1-3.08,0.15c-2.94-5.21-6.56-10.03-10.75-14.3C409.64,420.19,415.44,424.12,416.82,429.56z"/>
		<path class="st31" d="M81.2,396.44c4.94-6.18,14.31-8.31,21.43-4.87c-7.48,1.77-14.52,5.37-20.34,10.39
			c-1.03,0.05-2.05,0.1-3.08,0.15c-2.94-5.21-6.56-10.03-10.75-14.3C74.02,387.07,79.82,391,81.2,396.44z"/>
		<path class="st31" d="M531.12,444.52c3.94,1.48,7.26,4.54,9.03,8.36c2.42-6.95,8.94-12.3,16.24-13.3
			c-2.53,5.44-6.17,10.35-10.64,14.34c2.98-1.93,6.77-2.57,10.22-1.73c-3.83,3.57-8.79,6.5-14.01,6.01
			C535.49,457.6,530.23,450.96,531.12,444.52z"/>
	</g>
	<g id="Layer_4">
		<path class="st32" d="M14.58,344.01c0.62,0,1.24-0.19,1.78-0.52c-1.02,1.68-2.04,3.36-3.06,5.04c0.55-0.19,1.09-0.37,1.64-0.56
			c-0.53,2.07-1.32,4.05-2.36,5.86c0.59-0.11,1.18-0.23,1.78-0.34c-0.55,1.8-1.21,3.57-1.96,5.28c3.63,0.57,7.29,0.84,10.95,0.82
			c-1.06-1.64-1.82-3.52-2.22-5.49c0.39,0.45,1,0.64,1.53,0.46c-1.05-2.25-2.09-4.51-3.14-6.76c0.56,0.1,1.12,0.19,1.67,0.29
			c-0.85-1.59-1.77-3.14-2.76-4.62c0.52,0.05,1.04,0.1,1.56,0.15c-0.88-1.13-1.75-2.26-2.63-3.39
			C16.43,341.48,15.51,342.75,14.58,344.01z"/>
		<path class="st32" d="M27.71,352.45c0.62,0,1.24-0.19,1.78-0.52c-1.02,1.68-2.04,3.36-3.06,5.04c0.55-0.19,1.09-0.37,1.64-0.56
			c-0.53,2.07-1.32,4.05-2.36,5.86c0.59-0.11,1.18-0.23,1.78-0.34c-0.55,1.8-1.21,3.57-1.96,5.28c3.63,0.57,7.29,0.84,10.95,0.82
			c-1.06-1.64-1.82-3.52-2.22-5.49c0.39,0.45,1,0.64,1.53,0.46c-1.05-2.25-2.09-4.51-3.14-6.76c0.56,0.1,1.12,0.19,1.67,0.29
			c-0.85-1.59-1.77-3.14-2.76-4.62c0.52,0.05,1.04,0.1,1.56,0.15c-0.88-1.13-1.75-2.26-2.63-3.39
			C29.55,349.92,28.63,351.18,27.71,352.45z"/>
		<path class="st32" d="M81.56,345.06c0.62,0,1.24-0.19,1.78-0.52c-1.02,1.68-2.04,3.36-3.06,5.04c0.55-0.19,1.09-0.37,1.64-0.56
			c-0.53,2.07-1.32,4.05-2.36,5.86c0.59-0.11,1.18-0.23,1.78-0.34c-0.55,1.8-1.21,3.57-1.96,5.28c3.63,0.57,7.29,0.84,10.95,0.82
			c-1.06-1.64-1.82-3.52-2.22-5.49c0.39,0.45,1,0.64,1.53,0.46c-1.05-2.25-2.09-4.51-3.14-6.76c0.56,0.1,1.12,0.19,1.67,0.29
			c-0.85-1.59-1.77-3.14-2.76-4.62c0.52,0.05,1.04,0.1,1.56,0.15c-0.88-1.13-1.75-2.26-2.63-3.39
			C83.41,342.53,82.49,343.79,81.56,345.06z"/>
		<path class="st32" d="M99.86,345.4c0.62,0,1.24-0.19,1.78-0.52c-1.02,1.68-2.04,3.36-3.06,5.04c0.55-0.19,1.09-0.37,1.64-0.56
			c-0.53,2.07-1.32,4.05-2.36,5.86c0.59-0.11,1.18-0.23,1.78-0.34c-0.55,1.8-1.21,3.57-1.96,5.28c3.63,0.57,7.29,0.84,10.95,0.82
			c-1.06-1.64-1.82-3.52-2.22-5.49c0.39,0.45,1,0.64,1.53,0.46c-1.05-2.25-2.09-4.51-3.14-6.76c0.56,0.1,1.12,0.19,1.67,0.29
			c-0.85-1.59-1.77-3.14-2.76-4.62c0.52,0.05,1.04,0.1,1.56,0.15c-0.88-1.13-1.75-2.26-2.63-3.39
			C101.71,342.87,100.79,344.14,99.86,345.4z"/>
		<path class="st32" d="M192.05,352.28c0.62,0,1.24-0.19,1.78-0.52c-1.02,1.68-2.04,3.36-3.06,5.04c0.55-0.19,1.09-0.37,1.64-0.56
			c-0.53,2.07-1.32,4.05-2.36,5.86c0.59-0.11,1.18-0.23,1.78-0.34c-0.55,1.8-1.21,3.57-1.96,5.28c3.63,0.57,7.29,0.84,10.95,0.82
			c-1.06-1.64-1.82-3.52-2.22-5.49c0.39,0.45,1,0.64,1.53,0.46c-1.05-2.25-2.09-4.51-3.14-6.76c0.56,0.1,1.12,0.19,1.67,0.29
			c-0.85-1.59-1.77-3.14-2.76-4.62c0.52,0.05,1.04,0.1,1.56,0.15c-0.88-1.13-1.75-2.26-2.63-3.39
			C193.9,349.75,192.98,351.01,192.05,352.28z"/>
		<path class="st32" d="M199.71,358.21c0.62,0,1.24-0.19,1.78-0.52c-1.02,1.68-2.04,3.36-3.06,5.04c0.55-0.19,1.09-0.37,1.64-0.56
			c-0.53,2.07-1.32,4.05-2.36,5.86c0.59-0.11,1.18-0.23,1.78-0.34c-0.55,1.8-1.21,3.57-1.96,5.28c3.63,0.57,7.29,0.84,10.95,0.82
			c-1.06-1.64-1.82-3.52-2.22-5.49c0.39,0.45,1,0.64,1.53,0.46c-1.05-2.25-2.09-4.51-3.14-6.76c0.56,0.1,1.12,0.19,1.67,0.29
			c-0.85-1.59-1.77-3.14-2.76-4.62c0.52,0.05,1.04,0.1,1.56,0.15c-0.88-1.13-1.75-2.26-2.63-3.39
			C201.56,355.69,200.63,356.95,199.71,358.21z"/>
		<path class="st32" d="M292.83,365.87c0.62,0,1.24-0.19,1.78-0.52c-1.02,1.68-2.04,3.36-3.06,5.04c0.55-0.19,1.09-0.37,1.64-0.56
			c-0.53,2.07-1.32,4.05-2.36,5.86c0.59-0.11,1.18-0.23,1.78-0.34c-0.55,1.8-1.21,3.57-1.96,5.28c3.63,0.57,7.29,0.84,10.95,0.82
			c-1.06-1.64-1.82-3.52-2.22-5.49c0.39,0.45,1,0.64,1.53,0.46c-1.05-2.25-2.09-4.51-3.14-6.76c0.56,0.1,1.12,0.19,1.67,0.29
			c-0.85-1.59-1.77-3.14-2.76-4.62c0.52,0.05,1.04,0.1,1.56,0.15c-0.88-1.13-1.75-2.26-2.63-3.39
			C294.68,363.34,293.76,364.61,292.83,365.87z"/>
		<path class="st32" d="M302.56,360.62c0.77-0.01,1.53-0.23,2.2-0.65c-1.27,2.08-2.53,4.16-3.8,6.24c0.68-0.23,1.35-0.46,2.03-0.69
			c-0.65,2.56-1.64,5.02-2.93,7.25c0.73-0.14,1.47-0.28,2.2-0.42c-0.69,2.24-1.5,4.42-2.43,6.54c4.5,0.7,9.03,1.05,13.57,1.02
			c-1.32-2.03-2.26-4.36-2.75-6.81c0.48,0.56,1.24,0.79,1.9,0.57c-1.3-2.79-2.59-5.58-3.89-8.38c0.69,0.12,1.38,0.24,2.07,0.35
			c-1.05-1.97-2.19-3.89-3.42-5.72c0.65,0.06,1.29,0.13,1.94,0.19c-1.09-1.4-2.17-2.8-3.26-4.2
			C304.85,357.49,303.71,359.06,302.56,360.62z"/>
		<path class="st32" d="M363.72,373.2c0.62,0,1.24-0.19,1.78-0.52c-1.02,1.68-2.04,3.36-3.07,5.04c0.55-0.19,1.09-0.37,1.64-0.56
			c-0.53,2.07-1.33,4.05-2.36,5.86c0.59-0.11,1.18-0.23,1.78-0.34c-0.55,1.81-1.21,3.57-1.96,5.28c3.63,0.57,7.3,0.85,10.96,0.82
			c-1.06-1.64-1.82-3.53-2.22-5.5c0.39,0.45,1,0.64,1.53,0.46c-1.05-2.26-2.1-4.51-3.14-6.77c0.56,0.1,1.12,0.19,1.68,0.29
			c-0.85-1.59-1.77-3.14-2.77-4.62c0.52,0.05,1.04,0.1,1.56,0.15c-0.88-1.13-1.75-2.26-2.63-3.4
			C365.57,370.67,364.64,371.94,363.72,373.2z"/>
		<path class="st32" d="M426.22,372.78c0.62,0,1.24-0.19,1.78-0.52c-1.02,1.68-2.04,3.36-3.07,5.04c0.55-0.19,1.09-0.37,1.64-0.56
			c-0.53,2.07-1.33,4.05-2.36,5.86c0.59-0.11,1.18-0.23,1.78-0.34c-0.55,1.81-1.21,3.57-1.96,5.28c3.63,0.57,7.3,0.85,10.96,0.82
			c-1.06-1.64-1.82-3.53-2.22-5.5c0.39,0.45,1,0.64,1.53,0.46c-1.05-2.26-2.1-4.51-3.14-6.77c0.56,0.1,1.12,0.19,1.68,0.29
			c-0.85-1.59-1.77-3.14-2.77-4.62c0.52,0.05,1.04,0.1,1.56,0.15c-0.88-1.13-1.75-2.26-2.63-3.4
			C428.07,370.25,427.14,371.52,426.22,372.78z"/>
		<path class="st32" d="M475.11,362.46c0.56,0,1.13-0.17,1.62-0.48c-0.93,1.53-1.86,3.05-2.78,4.58c0.5-0.17,0.99-0.34,1.49-0.51
			c-0.48,1.88-1.2,3.68-2.15,5.32c0.54-0.1,1.08-0.21,1.61-0.31c-0.5,1.64-1.1,3.24-1.78,4.79c3.3,0.52,6.62,0.77,9.95,0.75
			c-0.96-1.49-1.66-3.2-2.02-4.99c0.35,0.41,0.91,0.58,1.39,0.42c-0.95-2.05-1.9-4.09-2.85-6.14c0.51,0.09,1.01,0.17,1.52,0.26
			c-0.77-1.45-1.61-2.85-2.51-4.2c0.47,0.05,0.95,0.09,1.42,0.14c-0.8-1.03-1.59-2.05-2.39-3.08
			C476.79,360.17,475.95,361.32,475.11,362.46z"/>
		<path class="st32" d="M523.24,357.46c0.56,0,1.13-0.17,1.62-0.48c-0.93,1.53-1.86,3.05-2.78,4.58c0.5-0.17,0.99-0.34,1.49-0.51
			c-0.48,1.88-1.2,3.68-2.15,5.32c0.54-0.1,1.08-0.21,1.61-0.31c-0.5,1.64-1.1,3.24-1.78,4.79c3.3,0.52,6.62,0.77,9.95,0.75
			c-0.96-1.49-1.66-3.2-2.02-4.99c0.35,0.41,0.91,0.58,1.39,0.42c-0.95-2.05-1.9-4.09-2.85-6.14c0.51,0.09,1.01,0.17,1.52,0.26
			c-0.77-1.45-1.61-2.85-2.51-4.2c0.47,0.05,0.95,0.09,1.42,0.14c-0.8-1.03-1.59-2.05-2.39-3.08
			C524.91,355.17,524.08,356.32,523.24,357.46z"/>
		<path class="st32" d="M582.93,354.4c0.66,0,1.31-0.2,1.89-0.55c-1.08,1.78-2.17,3.56-3.25,5.34c0.58-0.2,1.16-0.4,1.74-0.59
			c-0.56,2.19-1.4,4.29-2.5,6.21c0.63-0.12,1.25-0.24,1.88-0.36c-0.59,1.91-1.28,3.78-2.08,5.6c3.85,0.6,7.73,0.9,11.61,0.87
			c-1.13-1.74-1.93-3.73-2.35-5.82c0.41,0.48,1.06,0.67,1.62,0.49c-1.11-2.39-2.22-4.78-3.33-7.17c0.59,0.1,1.18,0.2,1.77,0.3
			c-0.9-1.69-1.88-3.32-2.93-4.9c0.55,0.05,1.1,0.11,1.66,0.16c-0.93-1.2-1.86-2.4-2.79-3.6
			C584.89,351.72,583.91,353.06,582.93,354.4z"/>
		<path class="st32" d="M592.99,361.45c0.51,0,1.02-0.15,1.46-0.43c-0.84,1.38-1.68,2.76-2.52,4.15c0.45-0.15,0.9-0.31,1.35-0.46
			c-0.43,1.7-1.09,3.33-1.94,4.82c0.49-0.09,0.97-0.19,1.46-0.28c-0.46,1.48-1,2.94-1.61,4.34c2.99,0.47,6,0.69,9.01,0.68
			c-0.87-1.35-1.5-2.9-1.83-4.52c0.32,0.37,0.82,0.52,1.26,0.38c-0.86-1.85-1.72-3.71-2.58-5.56c0.46,0.08,0.92,0.16,1.38,0.24
			c-0.7-1.31-1.46-2.58-2.27-3.8c0.43,0.04,0.86,0.08,1.29,0.13c-0.72-0.93-1.44-1.86-2.16-2.79
			C594.51,359.37,593.75,360.41,592.99,361.45z"/>
		<path class="st32" d="M650.64,367.74c0.51,0,1.02-0.15,1.46-0.43c-0.84,1.38-1.68,2.76-2.52,4.15c0.45-0.15,0.9-0.31,1.35-0.46
			c-0.43,1.7-1.09,3.33-1.94,4.82c0.49-0.09,0.97-0.19,1.46-0.28c-0.46,1.48-0.99,2.94-1.61,4.34c2.99,0.47,6,0.69,9.01,0.68
			c-0.87-1.35-1.5-2.9-1.83-4.52c0.32,0.37,0.82,0.52,1.26,0.38c-0.86-1.85-1.72-3.71-2.58-5.56c0.46,0.08,0.92,0.16,1.38,0.24
			c-0.7-1.31-1.46-2.58-2.27-3.8c0.43,0.04,0.86,0.08,1.29,0.13c-0.72-0.93-1.44-1.86-2.16-2.79
			C652.16,365.66,651.4,366.7,650.64,367.74z"/>
		<path class="st32" d="M660.91,359.29c0.68,0,1.36-0.2,1.95-0.57c-1.12,1.84-2.24,3.68-3.36,5.52c0.6-0.2,1.2-0.41,1.79-0.61
			c-0.58,2.27-1.45,4.44-2.59,6.42c0.65-0.13,1.3-0.25,1.95-0.38c-0.61,1.98-1.33,3.91-2.15,5.79c3.98,0.62,7.99,0.93,12,0.9
			c-1.16-1.8-2-3.86-2.43-6.02c0.42,0.49,1.1,0.7,1.68,0.51c-1.15-2.47-2.29-4.94-3.44-7.41c0.61,0.1,1.22,0.21,1.83,0.31
			c-0.93-1.75-1.94-3.44-3.03-5.06c0.57,0.06,1.14,0.11,1.71,0.17c-0.96-1.24-1.92-2.48-2.88-3.72
			C662.93,356.51,661.92,357.9,660.91,359.29z"/>
		<path class="st32" d="M710.13,373.97c0.68,0,1.36-0.2,1.95-0.57c-1.12,1.84-2.24,3.68-3.36,5.52c0.6-0.2,1.2-0.41,1.79-0.61
			c-0.58,2.27-1.45,4.44-2.59,6.42c0.65-0.13,1.3-0.25,1.95-0.38c-0.61,1.98-1.33,3.91-2.15,5.79c3.98,0.62,7.99,0.93,12,0.9
			c-1.16-1.8-2-3.86-2.43-6.02c0.42,0.49,1.1,0.7,1.68,0.51c-1.15-2.47-2.29-4.94-3.44-7.41c0.61,0.1,1.22,0.21,1.83,0.31
			c-0.93-1.75-1.94-3.44-3.03-5.06c0.57,0.06,1.14,0.11,1.71,0.17c-0.96-1.24-1.92-2.48-2.88-3.72
			C712.15,371.2,711.14,372.59,710.13,373.97z"/>
		<path class="st32" d="M730.84,380.66c0.49,0,0.98-0.15,1.41-0.41c-0.81,1.33-1.62,2.66-2.42,3.99c0.43-0.15,0.86-0.3,1.29-0.44
			c-0.42,1.64-1.05,3.2-1.87,4.63c0.47-0.09,0.94-0.18,1.4-0.27c-0.44,1.43-0.96,2.82-1.55,4.17c2.87,0.45,5.77,0.67,8.66,0.65
			c-0.84-1.3-1.44-2.79-1.76-4.34c0.31,0.36,0.79,0.5,1.21,0.37c-0.83-1.78-1.66-3.56-2.48-5.35c0.44,0.08,0.88,0.15,1.32,0.23
			c-0.67-1.26-1.4-2.48-2.19-3.65c0.41,0.04,0.82,0.08,1.24,0.12c-0.69-0.89-1.39-1.79-2.08-2.68
			C732.3,378.66,731.57,379.66,730.84,380.66z"/>
		<path class="st32" d="M739.17,378.56c0.6,0,1.19-0.18,1.71-0.5c-0.98,1.61-1.96,3.22-2.94,4.84c0.52-0.18,1.05-0.36,1.57-0.54
			c-0.5,1.99-1.27,3.89-2.27,5.62c0.57-0.11,1.14-0.22,1.7-0.33c-0.53,1.73-1.16,3.43-1.88,5.07c3.48,0.55,7,0.81,10.51,0.79
			c-1.02-1.57-1.75-3.38-2.13-5.27c0.37,0.43,0.96,0.61,1.47,0.44c-1-2.16-2.01-4.33-3.01-6.49c0.54,0.09,1.07,0.18,1.61,0.27
			c-0.81-1.53-1.7-3.01-2.65-4.44c0.5,0.05,1,0.1,1.5,0.15c-0.84-1.09-1.68-2.17-2.52-3.26
			C740.94,376.13,740.06,377.35,739.17,378.56z"/>
		<path class="st32" d="M481.23,357.4c0.66,0,1.32-0.2,1.9-0.56c-1.09,1.79-2.18,3.59-3.27,5.38c0.58-0.2,1.17-0.4,1.75-0.6
			c-0.56,2.21-1.41,4.32-2.52,6.25c0.63-0.12,1.26-0.24,1.9-0.37c-0.59,1.93-1.29,3.81-2.09,5.64c3.87,0.61,7.78,0.9,11.69,0.88
			c-1.13-1.75-1.95-3.76-2.37-5.86c0.41,0.48,1.07,0.68,1.63,0.49c-1.12-2.41-2.23-4.81-3.35-7.22c0.6,0.1,1.19,0.2,1.79,0.31
			c-0.9-1.7-1.89-3.35-2.95-4.93c0.56,0.05,1.11,0.11,1.67,0.16c-0.93-1.21-1.87-2.41-2.8-3.62
			C483.2,354.7,482.22,356.05,481.23,357.4z"/>
		<path class="st32" d="M89.52,338.24c0.78-0.01,1.56-0.23,2.24-0.66c-1.29,2.12-2.58,4.24-3.87,6.36c0.69-0.24,1.38-0.47,2.07-0.71
			c-0.66,2.61-1.67,5.11-2.98,7.39c0.75-0.14,1.49-0.29,2.24-0.43c-0.7,2.28-1.53,4.5-2.47,6.66c4.58,0.72,9.2,1.07,13.81,1.04
			c-1.34-2.07-2.3-4.44-2.8-6.93c0.49,0.57,1.26,0.8,1.93,0.58c-1.32-2.84-2.64-5.69-3.96-8.53c0.7,0.12,1.41,0.24,2.11,0.36
			c-1.07-2.01-2.23-3.96-3.49-5.83c0.66,0.06,1.32,0.13,1.97,0.19c-1.11-1.43-2.21-2.85-3.32-4.28
			C91.85,335.05,90.68,336.65,89.52,338.24z"/>
	</g>
	<g id="Layer_3">
		<path class="st10" d="M109.39,154.4c-10.38-2.85-20.88-5.15-31.66-5.74c-13.17-0.72-27.12,0.08-38.69-6.26
			c-3.54-1.94-6.72-4.49-10.33-6.3c-8.76-4.39-18.85-3.93-28.7-2.41v43.93c14.59-0.52,29.15-1.78,43.48-4.55
			c13.02-2.52,26.04-6.29,39.28-5.44c8.04,0.52,15.94,2.74,23.99,2.59c0.52-0.01,1.03-0.04,1.54-0.1
			C117.02,169.14,117.87,156.72,109.39,154.4z"/>
		<path class="st33" d="M88.12,64.05c0,9.14-7.41,16.55-16.55,16.55c-9.14,0-16.55-7.41-16.55-16.55c0-9.14,7.41-16.55,16.55-16.55
			C80.71,47.49,88.12,54.9,88.12,64.05z"/>
		<path class="st10" d="M418.11,69.1c-2.62-0.38-5.18-1.55-7.8-1.24c-1.97,0.23-3.73,1.27-5.44,2.28
			c-4.69,2.79-9.39,5.58-14.08,8.37c-0.58,2.43,2.64,3.84,5.12,4.21c25.39,3.73,51.13,5.09,76.78,4.04
			c1.78-0.07,3.65-0.19,5.15-1.14c1.5-0.96,2.42-3.07,1.47-4.58c-0.5-0.8-1.4-1.26-2.27-1.63c-4.05-1.69-8.62-2.09-12.9-1.13
			c-6.35-9.34-18.51-14.33-29.59-12.14C429.04,67.22,423.66,69.91,418.11,69.1z"/>
		<path class="st10" d="M641.92,258.94c-1.64,1.63-2.79,3.76-4.65,5.13c-4.61,3.38-11.96,1.11-16.09,5.06
			c0.07,4.68,5.97,6.58,10.62,7.1c27.63,3.08,55.55,3.54,83.27,1.38c2.53-0.2,5.41-0.62,6.8-2.74c1.98-3.01-0.75-7.21-4.15-8.42
			c-3.4-1.2-7.13-0.53-10.74-0.66c-1.55-0.05-3.18-0.3-4.38-1.28c-0.99-0.81-1.55-2.02-2.23-3.11c-3.05-4.94-8.89-7.74-14.69-8.05
			c-5.8-0.31-11.54,1.6-16.62,4.4c-2.73,1.5-5.81,3.33-8.74,2.28c-1.41-0.5-2.51-1.6-3.75-2.45
			C652.18,254.58,645.69,255.18,641.92,258.94z"/>
	</g>
</g>
<g id="DESIGNED_BY_FREEPIK">
</g>
</svg>
